M48
; DRILL file {KiCad 7.0.8} date Mo 06 Nov 2023 17:53:40 CET
; FORMAT={-:-/ absolute / metric / decimal}
; #@! TF.CreationDate,2023-11-06T17:53:40+01:00
; #@! TF.GenerationSoftware,Kicad,Pcbnew,7.0.8
; #@! TF.FileFunction,MixedPlating,1,2
FMAT,2
METRIC
; #@! TA.AperFunction,Plated,PTH,ViaDrill
T1C0.500
; #@! TA.AperFunction,Plated,PTH,ComponentDrill
T2C0.800
; #@! TA.AperFunction,Plated,PTH,ComponentDrill
T3C0.900
; #@! TA.AperFunction,Plated,PTH,ComponentDrill
T4C1.000
; #@! TA.AperFunction,Plated,PTH,ComponentDrill
T5C1.100
; #@! TA.AperFunction,Plated,PTH,ComponentDrill
T6C1.500
; #@! TA.AperFunction,NonPlated,NPTH,ComponentDrill
T7C3.200
%
G90
G05
T1
X106.4Y-100.0
T2
X119.3Y-95.0
X120.0Y-81.92
X120.0Y-92.08
X120.0Y-97.92
X120.0Y-108.08
X121.8Y-95.0
X122.92Y-82.0
X122.92Y-108.0
X124.6Y-89.92
X124.6Y-100.08
X133.08Y-82.0
X133.08Y-108.0
X142.92Y-82.0
X142.92Y-108.0
X153.08Y-82.0
X153.08Y-108.0
T3
X130.0Y-85.71
X130.0Y-88.25
X130.0Y-93.71
X130.0Y-96.25
X130.0Y-101.71
X130.0Y-104.25
X138.0Y-93.71
X138.0Y-96.25
X146.0Y-85.71
X146.0Y-88.25
X146.0Y-93.71
X146.0Y-96.25
X146.0Y-101.71
X146.0Y-104.25
T4
X108.5Y-82.3
X108.5Y-107.7
X111.04Y-82.3
X111.04Y-107.7
X113.58Y-82.3
X113.58Y-107.7
X116.12Y-82.3
X116.12Y-107.7
T5
X151.75Y-91.75
X151.75Y-98.25
X156.25Y-91.75
X156.25Y-98.25
T6
X95.0Y-95.0
X115.0Y-95.0
T7
X97.0Y-84.0
X97.0Y-106.0
X138.0Y-84.0
X138.0Y-106.0
T0
M30
