%TF.GenerationSoftware,KiCad,Pcbnew,7.0.8*%
%TF.CreationDate,2023-11-06T17:53:39+01:00*%
%TF.ProjectId,EDice,45446963-652e-46b6-9963-61645f706362,rev?*%
%TF.SameCoordinates,Original*%
%TF.FileFunction,Copper,L2,Bot*%
%TF.FilePolarity,Positive*%
%FSLAX46Y46*%
G04 Gerber Fmt 4.6, Leading zero omitted, Abs format (unit mm)*
G04 Created by KiCad (PCBNEW 7.0.8) date 2023-11-06 17:53:39*
%MOMM*%
%LPD*%
G01*
G04 APERTURE LIST*
%TA.AperFunction,ComponentPad*%
%ADD10R,1.800000X1.800000*%
%TD*%
%TA.AperFunction,ComponentPad*%
%ADD11C,1.800000*%
%TD*%
%TA.AperFunction,ComponentPad*%
%ADD12C,2.000000*%
%TD*%
%TA.AperFunction,ComponentPad*%
%ADD13C,1.600000*%
%TD*%
%TA.AperFunction,ComponentPad*%
%ADD14O,1.600000X1.600000*%
%TD*%
%TA.AperFunction,ComponentPad*%
%ADD15O,1.700000X1.700000*%
%TD*%
%TA.AperFunction,ComponentPad*%
%ADD16R,1.700000X1.700000*%
%TD*%
%TA.AperFunction,ComponentPad*%
%ADD17C,3.000000*%
%TD*%
%TA.AperFunction,ViaPad*%
%ADD18C,1.300000*%
%TD*%
G04 APERTURE END LIST*
D10*
%TO.P,D3,1,K*%
%TO.N,GND*%
X130000000Y-96250000D03*
D11*
%TO.P,D3,2,A*%
%TO.N,Net-(D3-A)*%
X130000000Y-93710000D03*
%TD*%
D10*
%TO.P,D1,1,K*%
%TO.N,GND*%
X130000000Y-88250000D03*
D11*
%TO.P,D1,2,A*%
%TO.N,Net-(D1-A)*%
X130000000Y-85710000D03*
%TD*%
D12*
%TO.P,SW1,1,1*%
%TO.N,GND*%
X151750000Y-98250000D03*
X151750000Y-91750000D03*
%TO.P,SW1,2,2*%
%TO.N,/BTN*%
X156250000Y-98250000D03*
X156250000Y-91750000D03*
%TD*%
D10*
%TO.P,D4,1,K*%
%TO.N,GND*%
X138000000Y-96250000D03*
D11*
%TO.P,D4,2,A*%
%TO.N,Net-(D4-A)*%
X138000000Y-93710000D03*
%TD*%
D10*
%TO.P,D2,1,K*%
%TO.N,GND*%
X146000000Y-88250000D03*
D11*
%TO.P,D2,2,A*%
%TO.N,Net-(D2-A)*%
X146000000Y-85710000D03*
%TD*%
D13*
%TO.P,R1,1*%
%TO.N,/LED1*%
X122920000Y-82000000D03*
D14*
%TO.P,R1,2*%
%TO.N,Net-(D1-A)*%
X133080000Y-82000000D03*
%TD*%
D13*
%TO.P,R6,1*%
%TO.N,/LED6*%
X120000000Y-81920000D03*
D14*
%TO.P,R6,2*%
%TO.N,Net-(D6-A)*%
X120000000Y-92080000D03*
%TD*%
D13*
%TO.P,R7,1*%
%TO.N,/LED7*%
X142920000Y-108000000D03*
D14*
%TO.P,R7,2*%
%TO.N,Net-(D7-A)*%
X153080000Y-108000000D03*
%TD*%
D10*
%TO.P,D7,1,K*%
%TO.N,GND*%
X146000000Y-104250000D03*
D11*
%TO.P,D7,2,A*%
%TO.N,Net-(D7-A)*%
X146000000Y-101710000D03*
%TD*%
D13*
%TO.P,R4,1*%
%TO.N,/LED4*%
X124600000Y-100080000D03*
D14*
%TO.P,R4,2*%
%TO.N,Net-(D4-A)*%
X124600000Y-89920000D03*
%TD*%
D10*
%TO.P,D5,1,K*%
%TO.N,GND*%
X130000000Y-104250000D03*
D11*
%TO.P,D5,2,A*%
%TO.N,Net-(D5-A)*%
X130000000Y-101710000D03*
%TD*%
D13*
%TO.P,R2,1*%
%TO.N,/LED2*%
X142920000Y-82000000D03*
D14*
%TO.P,R2,2*%
%TO.N,Net-(D2-A)*%
X153080000Y-82000000D03*
%TD*%
D13*
%TO.P,R3,1*%
%TO.N,/LED3*%
X120000000Y-108080000D03*
D14*
%TO.P,R3,2*%
%TO.N,Net-(D3-A)*%
X120000000Y-97920000D03*
%TD*%
D13*
%TO.P,C1,1*%
%TO.N,+BATT*%
X119300000Y-95000000D03*
%TO.P,C1,2*%
%TO.N,GND*%
X121800000Y-95000000D03*
%TD*%
D10*
%TO.P,D6,1,K*%
%TO.N,GND*%
X146000000Y-96250000D03*
D11*
%TO.P,D6,2,A*%
%TO.N,Net-(D6-A)*%
X146000000Y-93710000D03*
%TD*%
D13*
%TO.P,R5,1*%
%TO.N,/LED5*%
X122920000Y-108000000D03*
D14*
%TO.P,R5,2*%
%TO.N,Net-(D5-A)*%
X133080000Y-108000000D03*
%TD*%
D15*
%TO.P,J2,4,Pin_4*%
%TO.N,+BATT*%
X116120000Y-82300000D03*
%TO.P,J2,3,Pin_3*%
%TO.N,/PA7*%
X113580000Y-82300000D03*
%TO.P,J2,2,Pin_2*%
%TO.N,/PA6*%
X111040000Y-82300000D03*
D16*
%TO.P,J2,1,Pin_1*%
%TO.N,/PA5*%
X108500000Y-82300000D03*
%TD*%
%TO.P,J3,1,Pin_1*%
%TO.N,/PA3*%
X108500000Y-107700000D03*
D15*
%TO.P,J3,2,Pin_2*%
%TO.N,/PA4*%
X111040000Y-107700000D03*
%TO.P,J3,3,Pin_3*%
%TO.N,/PA0*%
X113580000Y-107700000D03*
%TO.P,J3,4,Pin_4*%
%TO.N,GND*%
X116120000Y-107700000D03*
%TD*%
D17*
%TO.P,BT1,1,+*%
%TO.N,+BATT*%
X95000000Y-95000000D03*
%TO.P,BT1,2,-*%
%TO.N,GND*%
X115000000Y-95000000D03*
%TD*%
D18*
%TO.N,GND*%
X106400000Y-100000000D03*
%TD*%
%TA.AperFunction,Conductor*%
%TO.N,GND*%
G36*
X156002019Y-80000633D02*
G01*
X156037198Y-80002938D01*
X156083708Y-80005986D01*
X156265459Y-80018985D01*
X156273100Y-80020015D01*
X156366738Y-80038641D01*
X156389420Y-80043153D01*
X156415023Y-80048722D01*
X156533666Y-80074531D01*
X156540383Y-80076395D01*
X156659437Y-80116809D01*
X156756671Y-80153076D01*
X156791741Y-80166157D01*
X156797499Y-80168643D01*
X156912952Y-80225578D01*
X157034906Y-80292170D01*
X157039634Y-80295032D01*
X157096571Y-80333076D01*
X157146649Y-80366537D01*
X157149358Y-80368454D01*
X157258652Y-80450271D01*
X157262345Y-80453265D01*
X157359502Y-80538469D01*
X157362448Y-80541228D01*
X157458769Y-80637549D01*
X157461526Y-80640492D01*
X157546729Y-80737648D01*
X157549732Y-80741353D01*
X157601564Y-80810592D01*
X157631543Y-80850639D01*
X157633461Y-80853349D01*
X157704962Y-80960357D01*
X157707828Y-80965091D01*
X157774421Y-81087047D01*
X157831355Y-81202499D01*
X157833841Y-81208257D01*
X157855852Y-81267267D01*
X157883196Y-81340578D01*
X157888289Y-81355581D01*
X157923597Y-81459596D01*
X157925472Y-81466352D01*
X157956846Y-81610579D01*
X157979980Y-81726880D01*
X157981015Y-81734560D01*
X157994017Y-81916350D01*
X157999367Y-81997966D01*
X157999500Y-82002023D01*
X157999500Y-91694872D01*
X157982467Y-91752877D01*
X157996956Y-91780136D01*
X157999500Y-91805127D01*
X157999500Y-98194872D01*
X157982467Y-98252877D01*
X157996956Y-98280136D01*
X157999500Y-98305127D01*
X157999500Y-107997975D01*
X157999367Y-108002032D01*
X157994017Y-108083648D01*
X157981015Y-108265438D01*
X157979980Y-108273118D01*
X157956846Y-108389420D01*
X157925472Y-108533646D01*
X157923597Y-108540401D01*
X157889297Y-108641448D01*
X157883208Y-108659388D01*
X157883195Y-108659425D01*
X157833841Y-108791741D01*
X157831355Y-108797499D01*
X157774421Y-108912952D01*
X157707828Y-109034907D01*
X157704961Y-109039641D01*
X157633461Y-109146649D01*
X157631543Y-109149359D01*
X157549744Y-109258631D01*
X157546723Y-109262357D01*
X157461529Y-109359502D01*
X157458755Y-109362464D01*
X157362464Y-109458755D01*
X157359502Y-109461529D01*
X157262357Y-109546723D01*
X157258631Y-109549744D01*
X157149359Y-109631543D01*
X157146649Y-109633461D01*
X157039641Y-109704961D01*
X157034907Y-109707828D01*
X156912952Y-109774421D01*
X156797499Y-109831355D01*
X156791741Y-109833841D01*
X156670956Y-109878893D01*
X156659418Y-109883197D01*
X156540401Y-109923597D01*
X156533646Y-109925472D01*
X156389420Y-109956846D01*
X156273118Y-109979980D01*
X156265438Y-109981015D01*
X156083648Y-109994017D01*
X156032582Y-109997364D01*
X156002025Y-109999367D01*
X155997976Y-109999500D01*
X95002024Y-109999500D01*
X94997974Y-109999367D01*
X94959954Y-109996875D01*
X94916350Y-109994017D01*
X94734560Y-109981015D01*
X94726880Y-109979980D01*
X94610579Y-109956846D01*
X94466352Y-109925472D01*
X94459596Y-109923597D01*
X94427881Y-109912831D01*
X94340578Y-109883196D01*
X94305768Y-109870212D01*
X94208257Y-109833841D01*
X94202499Y-109831355D01*
X94087047Y-109774421D01*
X93965091Y-109707828D01*
X93960357Y-109704962D01*
X93853349Y-109633461D01*
X93850639Y-109631543D01*
X93810592Y-109601564D01*
X93741353Y-109549732D01*
X93737648Y-109546729D01*
X93640492Y-109461526D01*
X93637549Y-109458769D01*
X93541228Y-109362448D01*
X93538469Y-109359502D01*
X93492199Y-109306741D01*
X93453265Y-109262345D01*
X93450271Y-109258652D01*
X93368454Y-109149358D01*
X93366537Y-109146649D01*
X93322035Y-109080047D01*
X93295032Y-109039634D01*
X93292170Y-109034906D01*
X93225578Y-108912952D01*
X93168643Y-108797499D01*
X93166157Y-108791741D01*
X93144147Y-108732732D01*
X93116805Y-108659425D01*
X93095910Y-108597870D01*
X107149500Y-108597870D01*
X107149501Y-108597876D01*
X107155908Y-108657483D01*
X107206202Y-108792328D01*
X107206206Y-108792335D01*
X107292452Y-108907544D01*
X107292455Y-108907547D01*
X107407664Y-108993793D01*
X107407671Y-108993797D01*
X107542517Y-109044091D01*
X107542516Y-109044091D01*
X107549444Y-109044835D01*
X107602127Y-109050500D01*
X109397872Y-109050499D01*
X109457483Y-109044091D01*
X109592331Y-108993796D01*
X109707546Y-108907546D01*
X109793796Y-108792331D01*
X109842810Y-108660916D01*
X109884681Y-108604984D01*
X109950145Y-108580566D01*
X110018418Y-108595417D01*
X110046673Y-108616569D01*
X110168599Y-108738495D01*
X110252865Y-108797499D01*
X110362165Y-108874032D01*
X110362167Y-108874033D01*
X110362170Y-108874035D01*
X110576337Y-108973903D01*
X110804592Y-109035063D01*
X110981034Y-109050500D01*
X111039999Y-109055659D01*
X111040000Y-109055659D01*
X111040001Y-109055659D01*
X111098966Y-109050500D01*
X111275408Y-109035063D01*
X111503663Y-108973903D01*
X111717830Y-108874035D01*
X111911401Y-108738495D01*
X112078495Y-108571401D01*
X112208425Y-108385842D01*
X112263002Y-108342217D01*
X112332500Y-108335023D01*
X112394855Y-108366546D01*
X112411575Y-108385842D01*
X112541281Y-108571082D01*
X112541505Y-108571401D01*
X112708599Y-108738495D01*
X112792865Y-108797499D01*
X112902165Y-108874032D01*
X112902167Y-108874033D01*
X112902170Y-108874035D01*
X113116337Y-108973903D01*
X113344592Y-109035063D01*
X113521034Y-109050500D01*
X113579999Y-109055659D01*
X113580000Y-109055659D01*
X113580001Y-109055659D01*
X113638966Y-109050500D01*
X113815408Y-109035063D01*
X114043663Y-108973903D01*
X114257830Y-108874035D01*
X114451401Y-108738495D01*
X114618495Y-108571401D01*
X114748730Y-108385405D01*
X114803307Y-108341781D01*
X114872805Y-108334587D01*
X114935160Y-108366110D01*
X114951879Y-108385405D01*
X115081890Y-108571078D01*
X115248917Y-108738105D01*
X115442421Y-108873600D01*
X115656507Y-108973429D01*
X115656516Y-108973433D01*
X115870000Y-109030634D01*
X115870000Y-108135501D01*
X115977685Y-108184680D01*
X116084237Y-108200000D01*
X116155763Y-108200000D01*
X116262315Y-108184680D01*
X116370000Y-108135501D01*
X116370000Y-109030633D01*
X116583483Y-108973433D01*
X116583492Y-108973429D01*
X116797578Y-108873600D01*
X116991082Y-108738105D01*
X117158105Y-108571082D01*
X117293600Y-108377578D01*
X117393429Y-108163492D01*
X117393432Y-108163486D01*
X117415802Y-108080001D01*
X118694532Y-108080001D01*
X118714364Y-108306686D01*
X118714366Y-108306697D01*
X118773258Y-108526488D01*
X118773261Y-108526497D01*
X118869431Y-108732732D01*
X118869432Y-108732734D01*
X118999954Y-108919141D01*
X119160858Y-109080045D01*
X119160861Y-109080047D01*
X119347266Y-109210568D01*
X119553504Y-109306739D01*
X119773308Y-109365635D01*
X119935230Y-109379801D01*
X119999998Y-109385468D01*
X120000000Y-109385468D01*
X120000002Y-109385468D01*
X120056673Y-109380509D01*
X120226692Y-109365635D01*
X120446496Y-109306739D01*
X120652734Y-109210568D01*
X120839139Y-109080047D01*
X121000047Y-108919139D01*
X121130568Y-108732734D01*
X121226739Y-108526496D01*
X121285635Y-108306692D01*
X121305149Y-108083648D01*
X121305468Y-108080001D01*
X121305468Y-108079998D01*
X121298469Y-108000001D01*
X121614532Y-108000001D01*
X121634364Y-108226686D01*
X121634366Y-108226697D01*
X121693258Y-108446488D01*
X121693261Y-108446497D01*
X121789431Y-108652732D01*
X121789432Y-108652734D01*
X121919954Y-108839141D01*
X122080858Y-109000045D01*
X122080861Y-109000047D01*
X122267266Y-109130568D01*
X122473504Y-109226739D01*
X122693308Y-109285635D01*
X122855230Y-109299801D01*
X122919998Y-109305468D01*
X122920000Y-109305468D01*
X122920002Y-109305468D01*
X122976673Y-109300509D01*
X123146692Y-109285635D01*
X123366496Y-109226739D01*
X123572734Y-109130568D01*
X123759139Y-109000047D01*
X123920047Y-108839139D01*
X124050568Y-108652734D01*
X124146739Y-108446496D01*
X124205635Y-108226692D01*
X124225468Y-108000001D01*
X131774532Y-108000001D01*
X131794364Y-108226686D01*
X131794366Y-108226697D01*
X131853258Y-108446488D01*
X131853261Y-108446497D01*
X131949431Y-108652732D01*
X131949432Y-108652734D01*
X132079954Y-108839141D01*
X132240858Y-109000045D01*
X132240861Y-109000047D01*
X132427266Y-109130568D01*
X132633504Y-109226739D01*
X132853308Y-109285635D01*
X133015230Y-109299801D01*
X133079998Y-109305468D01*
X133080000Y-109305468D01*
X133080002Y-109305468D01*
X133136673Y-109300509D01*
X133306692Y-109285635D01*
X133526496Y-109226739D01*
X133732734Y-109130568D01*
X133919139Y-109000047D01*
X134080047Y-108839139D01*
X134210568Y-108652734D01*
X134306739Y-108446496D01*
X134365635Y-108226692D01*
X134385468Y-108000001D01*
X141614532Y-108000001D01*
X141634364Y-108226686D01*
X141634366Y-108226697D01*
X141693258Y-108446488D01*
X141693261Y-108446497D01*
X141789431Y-108652732D01*
X141789432Y-108652734D01*
X141919954Y-108839141D01*
X142080858Y-109000045D01*
X142080861Y-109000047D01*
X142267266Y-109130568D01*
X142473504Y-109226739D01*
X142693308Y-109285635D01*
X142855230Y-109299801D01*
X142919998Y-109305468D01*
X142920000Y-109305468D01*
X142920002Y-109305468D01*
X142976673Y-109300509D01*
X143146692Y-109285635D01*
X143366496Y-109226739D01*
X143572734Y-109130568D01*
X143759139Y-109000047D01*
X143920047Y-108839139D01*
X144050568Y-108652734D01*
X144146739Y-108446496D01*
X144205635Y-108226692D01*
X144225468Y-108000001D01*
X151774532Y-108000001D01*
X151794364Y-108226686D01*
X151794366Y-108226697D01*
X151853258Y-108446488D01*
X151853261Y-108446497D01*
X151949431Y-108652732D01*
X151949432Y-108652734D01*
X152079954Y-108839141D01*
X152240858Y-109000045D01*
X152240861Y-109000047D01*
X152427266Y-109130568D01*
X152633504Y-109226739D01*
X152853308Y-109285635D01*
X153015230Y-109299801D01*
X153079998Y-109305468D01*
X153080000Y-109305468D01*
X153080002Y-109305468D01*
X153136673Y-109300509D01*
X153306692Y-109285635D01*
X153526496Y-109226739D01*
X153732734Y-109130568D01*
X153919139Y-109000047D01*
X154080047Y-108839139D01*
X154210568Y-108652734D01*
X154306739Y-108446496D01*
X154365635Y-108226692D01*
X154385468Y-108000000D01*
X154365635Y-107773308D01*
X154306739Y-107553504D01*
X154210568Y-107347266D01*
X154080047Y-107160861D01*
X154080045Y-107160858D01*
X153919141Y-106999954D01*
X153732734Y-106869432D01*
X153732732Y-106869431D01*
X153526497Y-106773261D01*
X153526488Y-106773258D01*
X153306697Y-106714366D01*
X153306693Y-106714365D01*
X153306692Y-106714365D01*
X153306691Y-106714364D01*
X153306686Y-106714364D01*
X153080002Y-106694532D01*
X153079998Y-106694532D01*
X152853313Y-106714364D01*
X152853302Y-106714366D01*
X152633511Y-106773258D01*
X152633502Y-106773261D01*
X152427267Y-106869431D01*
X152427265Y-106869432D01*
X152240858Y-106999954D01*
X152079954Y-107160858D01*
X151949432Y-107347265D01*
X151949431Y-107347267D01*
X151853261Y-107553502D01*
X151853258Y-107553511D01*
X151794366Y-107773302D01*
X151794364Y-107773313D01*
X151774532Y-107999998D01*
X151774532Y-108000001D01*
X144225468Y-108000001D01*
X144225468Y-108000000D01*
X144205635Y-107773308D01*
X144146739Y-107553504D01*
X144050568Y-107347266D01*
X143920047Y-107160861D01*
X143920045Y-107160858D01*
X143759141Y-106999954D01*
X143572734Y-106869432D01*
X143572732Y-106869431D01*
X143366497Y-106773261D01*
X143366488Y-106773258D01*
X143146697Y-106714366D01*
X143146693Y-106714365D01*
X143146692Y-106714365D01*
X143146691Y-106714364D01*
X143146686Y-106714364D01*
X142920002Y-106694532D01*
X142919998Y-106694532D01*
X142693313Y-106714364D01*
X142693302Y-106714366D01*
X142473511Y-106773258D01*
X142473502Y-106773261D01*
X142267267Y-106869431D01*
X142267265Y-106869432D01*
X142080858Y-106999954D01*
X141919954Y-107160858D01*
X141789432Y-107347265D01*
X141789431Y-107347267D01*
X141693261Y-107553502D01*
X141693258Y-107553511D01*
X141634366Y-107773302D01*
X141634364Y-107773313D01*
X141614532Y-107999998D01*
X141614532Y-108000001D01*
X134385468Y-108000001D01*
X134385468Y-108000000D01*
X134365635Y-107773308D01*
X134306739Y-107553504D01*
X134210568Y-107347266D01*
X134080047Y-107160861D01*
X134080045Y-107160858D01*
X133919141Y-106999954D01*
X133732734Y-106869432D01*
X133732732Y-106869431D01*
X133526497Y-106773261D01*
X133526488Y-106773258D01*
X133306697Y-106714366D01*
X133306693Y-106714365D01*
X133306692Y-106714365D01*
X133306691Y-106714364D01*
X133306686Y-106714364D01*
X133080002Y-106694532D01*
X133079998Y-106694532D01*
X132853313Y-106714364D01*
X132853302Y-106714366D01*
X132633511Y-106773258D01*
X132633502Y-106773261D01*
X132427267Y-106869431D01*
X132427265Y-106869432D01*
X132240858Y-106999954D01*
X132079954Y-107160858D01*
X131949432Y-107347265D01*
X131949431Y-107347267D01*
X131853261Y-107553502D01*
X131853258Y-107553511D01*
X131794366Y-107773302D01*
X131794364Y-107773313D01*
X131774532Y-107999998D01*
X131774532Y-108000001D01*
X124225468Y-108000001D01*
X124225468Y-108000000D01*
X124205635Y-107773308D01*
X124146739Y-107553504D01*
X124050568Y-107347266D01*
X123920047Y-107160861D01*
X123920045Y-107160858D01*
X123759141Y-106999954D01*
X123572734Y-106869432D01*
X123572732Y-106869431D01*
X123366497Y-106773261D01*
X123366488Y-106773258D01*
X123146697Y-106714366D01*
X123146693Y-106714365D01*
X123146692Y-106714365D01*
X123146691Y-106714364D01*
X123146686Y-106714364D01*
X122920002Y-106694532D01*
X122919998Y-106694532D01*
X122693313Y-106714364D01*
X122693302Y-106714366D01*
X122473511Y-106773258D01*
X122473502Y-106773261D01*
X122267267Y-106869431D01*
X122267265Y-106869432D01*
X122080858Y-106999954D01*
X121919954Y-107160858D01*
X121789432Y-107347265D01*
X121789431Y-107347267D01*
X121693261Y-107553502D01*
X121693258Y-107553511D01*
X121634366Y-107773302D01*
X121634364Y-107773313D01*
X121614532Y-107999998D01*
X121614532Y-108000001D01*
X121298469Y-108000001D01*
X121285635Y-107853313D01*
X121285635Y-107853308D01*
X121226739Y-107633504D01*
X121130568Y-107427266D01*
X121000047Y-107240861D01*
X121000045Y-107240858D01*
X120839141Y-107079954D01*
X120652734Y-106949432D01*
X120652732Y-106949431D01*
X120446497Y-106853261D01*
X120446488Y-106853258D01*
X120226697Y-106794366D01*
X120226693Y-106794365D01*
X120226692Y-106794365D01*
X120226691Y-106794364D01*
X120226686Y-106794364D01*
X120000002Y-106774532D01*
X119999998Y-106774532D01*
X119773313Y-106794364D01*
X119773302Y-106794366D01*
X119553511Y-106853258D01*
X119553502Y-106853261D01*
X119347267Y-106949431D01*
X119347265Y-106949432D01*
X119160858Y-107079954D01*
X118999954Y-107240858D01*
X118869432Y-107427265D01*
X118869431Y-107427267D01*
X118773261Y-107633502D01*
X118773258Y-107633511D01*
X118714366Y-107853302D01*
X118714364Y-107853313D01*
X118694532Y-108079998D01*
X118694532Y-108080001D01*
X117415802Y-108080001D01*
X117450636Y-107950000D01*
X116553686Y-107950000D01*
X116579493Y-107909844D01*
X116620000Y-107771889D01*
X116620000Y-107628111D01*
X116579493Y-107490156D01*
X116553686Y-107450000D01*
X117450636Y-107450000D01*
X117450635Y-107449999D01*
X117393432Y-107236513D01*
X117393429Y-107236507D01*
X117293600Y-107022422D01*
X117293599Y-107022420D01*
X117158113Y-106828926D01*
X117158108Y-106828920D01*
X116991082Y-106661894D01*
X116797578Y-106526399D01*
X116583492Y-106426570D01*
X116583486Y-106426567D01*
X116370000Y-106369364D01*
X116370000Y-107264498D01*
X116262315Y-107215320D01*
X116155763Y-107200000D01*
X116084237Y-107200000D01*
X115977685Y-107215320D01*
X115870000Y-107264498D01*
X115870000Y-106369364D01*
X115869999Y-106369364D01*
X115656513Y-106426567D01*
X115656507Y-106426570D01*
X115442422Y-106526399D01*
X115442420Y-106526400D01*
X115248926Y-106661886D01*
X115248920Y-106661891D01*
X115081891Y-106828920D01*
X115081890Y-106828922D01*
X114951880Y-107014595D01*
X114897303Y-107058219D01*
X114827804Y-107065412D01*
X114765450Y-107033890D01*
X114748730Y-107014594D01*
X114618494Y-106828597D01*
X114451402Y-106661506D01*
X114451395Y-106661501D01*
X114257834Y-106525967D01*
X114257830Y-106525965D01*
X114257828Y-106525964D01*
X114043663Y-106426097D01*
X114043659Y-106426096D01*
X114043655Y-106426094D01*
X113815413Y-106364938D01*
X113815403Y-106364936D01*
X113580001Y-106344341D01*
X113579999Y-106344341D01*
X113344596Y-106364936D01*
X113344586Y-106364938D01*
X113116344Y-106426094D01*
X113116335Y-106426098D01*
X112902171Y-106525964D01*
X112902169Y-106525965D01*
X112708597Y-106661505D01*
X112541505Y-106828597D01*
X112411575Y-107014158D01*
X112356998Y-107057783D01*
X112287500Y-107064977D01*
X112225145Y-107033454D01*
X112208425Y-107014158D01*
X112078494Y-106828597D01*
X111911402Y-106661506D01*
X111911395Y-106661501D01*
X111717834Y-106525967D01*
X111717830Y-106525965D01*
X111717828Y-106525964D01*
X111503663Y-106426097D01*
X111503659Y-106426096D01*
X111503655Y-106426094D01*
X111275413Y-106364938D01*
X111275403Y-106364936D01*
X111040001Y-106344341D01*
X111039999Y-106344341D01*
X110804596Y-106364936D01*
X110804586Y-106364938D01*
X110576344Y-106426094D01*
X110576335Y-106426098D01*
X110362171Y-106525964D01*
X110362169Y-106525965D01*
X110168600Y-106661503D01*
X110046673Y-106783430D01*
X109985350Y-106816914D01*
X109915658Y-106811930D01*
X109859725Y-106770058D01*
X109842810Y-106739081D01*
X109793797Y-106607671D01*
X109793793Y-106607664D01*
X109707547Y-106492455D01*
X109707544Y-106492452D01*
X109592335Y-106406206D01*
X109592328Y-106406202D01*
X109457482Y-106355908D01*
X109457483Y-106355908D01*
X109397883Y-106349501D01*
X109397881Y-106349500D01*
X109397873Y-106349500D01*
X109397864Y-106349500D01*
X107602129Y-106349500D01*
X107602123Y-106349501D01*
X107542516Y-106355908D01*
X107407671Y-106406202D01*
X107407664Y-106406206D01*
X107292455Y-106492452D01*
X107292452Y-106492455D01*
X107206206Y-106607664D01*
X107206202Y-106607671D01*
X107155908Y-106742517D01*
X107149501Y-106802116D01*
X107149500Y-106802135D01*
X107149500Y-108597870D01*
X93095910Y-108597870D01*
X93076395Y-108540383D01*
X93074531Y-108533666D01*
X93043153Y-108389420D01*
X93034250Y-108344664D01*
X93020015Y-108273100D01*
X93018985Y-108265459D01*
X93005986Y-108083708D01*
X93002519Y-108030798D01*
X93000633Y-108002019D01*
X93000500Y-107997964D01*
X93000500Y-106067763D01*
X95145787Y-106067763D01*
X95175413Y-106337013D01*
X95175415Y-106337024D01*
X95243926Y-106599082D01*
X95243928Y-106599088D01*
X95349870Y-106848390D01*
X95476168Y-107055337D01*
X95490979Y-107079605D01*
X95490986Y-107079615D01*
X95664253Y-107287819D01*
X95664259Y-107287824D01*
X95730601Y-107347266D01*
X95865998Y-107468582D01*
X96091910Y-107618044D01*
X96337176Y-107733020D01*
X96337183Y-107733022D01*
X96337185Y-107733023D01*
X96596557Y-107811057D01*
X96596564Y-107811058D01*
X96596569Y-107811060D01*
X96864561Y-107850500D01*
X96864566Y-107850500D01*
X97067636Y-107850500D01*
X97119133Y-107846730D01*
X97270156Y-107835677D01*
X97382758Y-107810593D01*
X97534546Y-107776782D01*
X97534548Y-107776781D01*
X97534553Y-107776780D01*
X97787558Y-107680014D01*
X98023777Y-107547441D01*
X98238177Y-107381888D01*
X98426186Y-107186881D01*
X98583799Y-106966579D01*
X98668349Y-106802128D01*
X98707649Y-106725690D01*
X98707651Y-106725684D01*
X98707656Y-106725675D01*
X98795118Y-106469305D01*
X98844319Y-106202933D01*
X98849259Y-106067763D01*
X136145787Y-106067763D01*
X136175413Y-106337013D01*
X136175415Y-106337024D01*
X136243926Y-106599082D01*
X136243928Y-106599088D01*
X136349870Y-106848390D01*
X136476168Y-107055337D01*
X136490979Y-107079605D01*
X136490986Y-107079615D01*
X136664253Y-107287819D01*
X136664259Y-107287824D01*
X136730601Y-107347266D01*
X136865998Y-107468582D01*
X137091910Y-107618044D01*
X137337176Y-107733020D01*
X137337183Y-107733022D01*
X137337185Y-107733023D01*
X137596557Y-107811057D01*
X137596564Y-107811058D01*
X137596569Y-107811060D01*
X137864561Y-107850500D01*
X137864566Y-107850500D01*
X138067636Y-107850500D01*
X138119133Y-107846730D01*
X138270156Y-107835677D01*
X138382758Y-107810593D01*
X138534546Y-107776782D01*
X138534548Y-107776781D01*
X138534553Y-107776780D01*
X138787558Y-107680014D01*
X139023777Y-107547441D01*
X139238177Y-107381888D01*
X139426186Y-107186881D01*
X139583799Y-106966579D01*
X139668349Y-106802128D01*
X139707649Y-106725690D01*
X139707651Y-106725684D01*
X139707656Y-106725675D01*
X139795118Y-106469305D01*
X139844319Y-106202933D01*
X139854212Y-105932235D01*
X139824586Y-105662982D01*
X139756072Y-105400912D01*
X139650130Y-105151610D01*
X139509018Y-104920390D01*
X139419747Y-104813119D01*
X139335746Y-104712180D01*
X139335740Y-104712175D01*
X139134002Y-104531418D01*
X138908092Y-104381957D01*
X138842620Y-104351265D01*
X138662824Y-104266980D01*
X138662819Y-104266978D01*
X138662814Y-104266976D01*
X138403442Y-104188942D01*
X138403428Y-104188939D01*
X138287791Y-104171921D01*
X138135439Y-104149500D01*
X137932369Y-104149500D01*
X137932364Y-104149500D01*
X137729844Y-104164323D01*
X137729831Y-104164325D01*
X137465453Y-104223217D01*
X137465446Y-104223220D01*
X137212439Y-104319987D01*
X136976226Y-104452557D01*
X136761822Y-104618112D01*
X136573822Y-104813109D01*
X136573816Y-104813116D01*
X136416202Y-105033419D01*
X136416199Y-105033424D01*
X136292350Y-105274309D01*
X136292343Y-105274327D01*
X136204884Y-105530685D01*
X136204881Y-105530699D01*
X136155681Y-105797068D01*
X136155680Y-105797075D01*
X136145787Y-106067763D01*
X98849259Y-106067763D01*
X98854212Y-105932235D01*
X98824586Y-105662982D01*
X98756072Y-105400912D01*
X98650130Y-105151610D01*
X98509018Y-104920390D01*
X98419747Y-104813119D01*
X98335746Y-104712180D01*
X98335740Y-104712175D01*
X98134002Y-104531418D01*
X97908092Y-104381957D01*
X97842620Y-104351265D01*
X97662824Y-104266980D01*
X97662819Y-104266978D01*
X97662814Y-104266976D01*
X97403442Y-104188942D01*
X97403428Y-104188939D01*
X97287791Y-104171921D01*
X97135439Y-104149500D01*
X96932369Y-104149500D01*
X96932364Y-104149500D01*
X96729844Y-104164323D01*
X96729831Y-104164325D01*
X96465453Y-104223217D01*
X96465446Y-104223220D01*
X96212439Y-104319987D01*
X95976226Y-104452557D01*
X95761822Y-104618112D01*
X95573822Y-104813109D01*
X95573816Y-104813116D01*
X95416202Y-105033419D01*
X95416199Y-105033424D01*
X95292350Y-105274309D01*
X95292343Y-105274327D01*
X95204884Y-105530685D01*
X95204881Y-105530699D01*
X95155681Y-105797068D01*
X95155680Y-105797075D01*
X95145787Y-106067763D01*
X93000500Y-106067763D01*
X93000500Y-101710006D01*
X128594700Y-101710006D01*
X128613864Y-101941297D01*
X128613866Y-101941308D01*
X128670842Y-102166300D01*
X128764075Y-102378848D01*
X128891018Y-102573150D01*
X128986167Y-102676510D01*
X129017089Y-102739164D01*
X129009228Y-102808590D01*
X128965081Y-102862746D01*
X128938271Y-102876674D01*
X128857911Y-102906646D01*
X128857906Y-102906649D01*
X128742812Y-102992809D01*
X128742809Y-102992812D01*
X128656649Y-103107906D01*
X128656645Y-103107913D01*
X128606403Y-103242620D01*
X128606401Y-103242627D01*
X128600000Y-103302155D01*
X128600000Y-104000000D01*
X129624722Y-104000000D01*
X129576375Y-104083740D01*
X129546190Y-104215992D01*
X129556327Y-104351265D01*
X129605887Y-104477541D01*
X129623797Y-104500000D01*
X128600000Y-104500000D01*
X128600000Y-105197844D01*
X128606401Y-105257372D01*
X128606403Y-105257379D01*
X128656645Y-105392086D01*
X128656649Y-105392093D01*
X128742809Y-105507187D01*
X128742812Y-105507190D01*
X128857906Y-105593350D01*
X128857913Y-105593354D01*
X128992620Y-105643596D01*
X128992627Y-105643598D01*
X129052155Y-105649999D01*
X129052172Y-105650000D01*
X129750000Y-105650000D01*
X129750000Y-104624189D01*
X129802547Y-104660016D01*
X129932173Y-104700000D01*
X130033724Y-104700000D01*
X130134138Y-104684865D01*
X130250000Y-104629068D01*
X130250000Y-105650000D01*
X130947828Y-105650000D01*
X130947844Y-105649999D01*
X131007372Y-105643598D01*
X131007379Y-105643596D01*
X131142086Y-105593354D01*
X131142093Y-105593350D01*
X131257187Y-105507190D01*
X131257190Y-105507187D01*
X131343350Y-105392093D01*
X131343354Y-105392086D01*
X131393596Y-105257379D01*
X131393598Y-105257372D01*
X131399999Y-105197844D01*
X131400000Y-105197827D01*
X131400000Y-104500000D01*
X130375278Y-104500000D01*
X130423625Y-104416260D01*
X130453810Y-104284008D01*
X130443673Y-104148735D01*
X130394113Y-104022459D01*
X130376203Y-104000000D01*
X131400000Y-104000000D01*
X131400000Y-103302172D01*
X131399999Y-103302155D01*
X131393598Y-103242627D01*
X131393596Y-103242620D01*
X131343354Y-103107913D01*
X131343350Y-103107906D01*
X131257190Y-102992812D01*
X131257187Y-102992809D01*
X131142093Y-102906649D01*
X131142086Y-102906645D01*
X131061729Y-102876674D01*
X131005795Y-102834803D01*
X130981378Y-102769338D01*
X130996230Y-102701065D01*
X131013826Y-102676516D01*
X131108979Y-102573153D01*
X131235924Y-102378849D01*
X131329157Y-102166300D01*
X131386134Y-101941305D01*
X131405300Y-101710006D01*
X144594700Y-101710006D01*
X144613864Y-101941297D01*
X144613866Y-101941308D01*
X144670842Y-102166300D01*
X144764075Y-102378848D01*
X144891018Y-102573150D01*
X144986167Y-102676510D01*
X145017089Y-102739164D01*
X145009228Y-102808590D01*
X144965081Y-102862746D01*
X144938271Y-102876674D01*
X144857911Y-102906646D01*
X144857906Y-102906649D01*
X144742812Y-102992809D01*
X144742809Y-102992812D01*
X144656649Y-103107906D01*
X144656645Y-103107913D01*
X144606403Y-103242620D01*
X144606401Y-103242627D01*
X144600000Y-103302155D01*
X144600000Y-104000000D01*
X145624722Y-104000000D01*
X145576375Y-104083740D01*
X145546190Y-104215992D01*
X145556327Y-104351265D01*
X145605887Y-104477541D01*
X145623797Y-104500000D01*
X144600000Y-104500000D01*
X144600000Y-105197844D01*
X144606401Y-105257372D01*
X144606403Y-105257379D01*
X144656645Y-105392086D01*
X144656649Y-105392093D01*
X144742809Y-105507187D01*
X144742812Y-105507190D01*
X144857906Y-105593350D01*
X144857913Y-105593354D01*
X144992620Y-105643596D01*
X144992627Y-105643598D01*
X145052155Y-105649999D01*
X145052172Y-105650000D01*
X145750000Y-105650000D01*
X145750000Y-104624189D01*
X145802547Y-104660016D01*
X145932173Y-104700000D01*
X146033724Y-104700000D01*
X146134138Y-104684865D01*
X146250000Y-104629068D01*
X146250000Y-105650000D01*
X146947828Y-105650000D01*
X146947844Y-105649999D01*
X147007372Y-105643598D01*
X147007379Y-105643596D01*
X147142086Y-105593354D01*
X147142093Y-105593350D01*
X147257187Y-105507190D01*
X147257190Y-105507187D01*
X147343350Y-105392093D01*
X147343354Y-105392086D01*
X147393596Y-105257379D01*
X147393598Y-105257372D01*
X147399999Y-105197844D01*
X147400000Y-105197827D01*
X147400000Y-104500000D01*
X146375278Y-104500000D01*
X146423625Y-104416260D01*
X146453810Y-104284008D01*
X146443673Y-104148735D01*
X146394113Y-104022459D01*
X146376203Y-104000000D01*
X147400000Y-104000000D01*
X147400000Y-103302172D01*
X147399999Y-103302155D01*
X147393598Y-103242627D01*
X147393596Y-103242620D01*
X147343354Y-103107913D01*
X147343350Y-103107906D01*
X147257190Y-102992812D01*
X147257187Y-102992809D01*
X147142093Y-102906649D01*
X147142086Y-102906645D01*
X147061729Y-102876674D01*
X147005795Y-102834803D01*
X146981378Y-102769338D01*
X146996230Y-102701065D01*
X147013826Y-102676516D01*
X147108979Y-102573153D01*
X147235924Y-102378849D01*
X147329157Y-102166300D01*
X147386134Y-101941305D01*
X147405300Y-101710000D01*
X147405300Y-101709993D01*
X147386135Y-101478702D01*
X147386133Y-101478691D01*
X147329157Y-101253699D01*
X147235924Y-101041151D01*
X147108983Y-100846852D01*
X147108980Y-100846849D01*
X147108979Y-100846847D01*
X146951784Y-100676087D01*
X146951779Y-100676083D01*
X146951777Y-100676081D01*
X146768634Y-100533535D01*
X146768628Y-100533531D01*
X146564504Y-100423064D01*
X146564495Y-100423061D01*
X146344984Y-100347702D01*
X146173282Y-100319050D01*
X146116049Y-100309500D01*
X145883951Y-100309500D01*
X145838164Y-100317140D01*
X145655015Y-100347702D01*
X145435504Y-100423061D01*
X145435495Y-100423064D01*
X145231371Y-100533531D01*
X145231365Y-100533535D01*
X145048222Y-100676081D01*
X145048219Y-100676084D01*
X144891016Y-100846852D01*
X144764075Y-101041151D01*
X144670842Y-101253699D01*
X144613866Y-101478691D01*
X144613864Y-101478702D01*
X144594700Y-101709993D01*
X144594700Y-101710006D01*
X131405300Y-101710006D01*
X131405300Y-101710000D01*
X131405300Y-101709993D01*
X131386135Y-101478702D01*
X131386133Y-101478691D01*
X131329157Y-101253699D01*
X131235924Y-101041151D01*
X131108983Y-100846852D01*
X131108980Y-100846849D01*
X131108979Y-100846847D01*
X130951784Y-100676087D01*
X130951779Y-100676083D01*
X130951777Y-100676081D01*
X130768634Y-100533535D01*
X130768628Y-100533531D01*
X130564504Y-100423064D01*
X130564495Y-100423061D01*
X130344984Y-100347702D01*
X130173282Y-100319050D01*
X130116049Y-100309500D01*
X129883951Y-100309500D01*
X129838164Y-100317140D01*
X129655015Y-100347702D01*
X129435504Y-100423061D01*
X129435495Y-100423064D01*
X129231371Y-100533531D01*
X129231365Y-100533535D01*
X129048222Y-100676081D01*
X129048219Y-100676084D01*
X128891016Y-100846852D01*
X128764075Y-101041151D01*
X128670842Y-101253699D01*
X128613866Y-101478691D01*
X128613864Y-101478702D01*
X128594700Y-101709993D01*
X128594700Y-101710006D01*
X93000500Y-101710006D01*
X93000500Y-100080001D01*
X123294532Y-100080001D01*
X123314364Y-100306686D01*
X123314366Y-100306697D01*
X123373258Y-100526488D01*
X123373261Y-100526497D01*
X123469431Y-100732732D01*
X123469432Y-100732734D01*
X123599954Y-100919141D01*
X123760858Y-101080045D01*
X123760861Y-101080047D01*
X123947266Y-101210568D01*
X124153504Y-101306739D01*
X124373308Y-101365635D01*
X124535230Y-101379801D01*
X124599998Y-101385468D01*
X124600000Y-101385468D01*
X124600002Y-101385468D01*
X124656673Y-101380509D01*
X124826692Y-101365635D01*
X125046496Y-101306739D01*
X125252734Y-101210568D01*
X125439139Y-101080047D01*
X125600047Y-100919139D01*
X125730568Y-100732734D01*
X125826739Y-100526496D01*
X125885635Y-100306692D01*
X125905468Y-100080000D01*
X125885635Y-99853308D01*
X125826739Y-99633504D01*
X125730568Y-99427266D01*
X125600047Y-99240861D01*
X125600045Y-99240858D01*
X125439141Y-99079954D01*
X125252734Y-98949432D01*
X125252732Y-98949431D01*
X125046497Y-98853261D01*
X125046488Y-98853258D01*
X124826697Y-98794366D01*
X124826693Y-98794365D01*
X124826692Y-98794365D01*
X124826691Y-98794364D01*
X124826686Y-98794364D01*
X124600002Y-98774532D01*
X124599998Y-98774532D01*
X124373313Y-98794364D01*
X124373302Y-98794366D01*
X124153511Y-98853258D01*
X124153502Y-98853261D01*
X123947267Y-98949431D01*
X123947265Y-98949432D01*
X123760858Y-99079954D01*
X123599954Y-99240858D01*
X123469432Y-99427265D01*
X123469431Y-99427267D01*
X123373261Y-99633502D01*
X123373258Y-99633511D01*
X123314366Y-99853302D01*
X123314364Y-99853313D01*
X123294532Y-100079998D01*
X123294532Y-100080001D01*
X93000500Y-100080001D01*
X93000500Y-97920001D01*
X118694532Y-97920001D01*
X118714364Y-98146686D01*
X118714366Y-98146697D01*
X118773258Y-98366488D01*
X118773261Y-98366497D01*
X118869431Y-98572732D01*
X118869432Y-98572734D01*
X118999954Y-98759141D01*
X119160858Y-98920045D01*
X119207693Y-98952839D01*
X119347266Y-99050568D01*
X119553504Y-99146739D01*
X119773308Y-99205635D01*
X119935230Y-99219801D01*
X119999998Y-99225468D01*
X120000000Y-99225468D01*
X120000002Y-99225468D01*
X120056673Y-99220509D01*
X120226692Y-99205635D01*
X120446496Y-99146739D01*
X120652734Y-99050568D01*
X120839139Y-98920047D01*
X121000047Y-98759139D01*
X121130568Y-98572734D01*
X121226739Y-98366496D01*
X121257953Y-98250005D01*
X150244859Y-98250005D01*
X150265385Y-98497729D01*
X150265387Y-98497738D01*
X150326412Y-98738717D01*
X150426266Y-98966364D01*
X150526564Y-99119882D01*
X151224070Y-98422376D01*
X151226884Y-98435915D01*
X151296442Y-98570156D01*
X151399638Y-98680652D01*
X151528819Y-98759209D01*
X151580002Y-98773549D01*
X150879942Y-99473609D01*
X150926768Y-99510055D01*
X150926770Y-99510056D01*
X151145385Y-99628364D01*
X151145396Y-99628369D01*
X151380506Y-99709083D01*
X151625707Y-99750000D01*
X151874293Y-99750000D01*
X152119493Y-99709083D01*
X152354603Y-99628369D01*
X152354614Y-99628364D01*
X152573228Y-99510057D01*
X152573231Y-99510055D01*
X152620056Y-99473609D01*
X151921568Y-98775121D01*
X152038458Y-98724349D01*
X152155739Y-98628934D01*
X152242928Y-98505415D01*
X152273354Y-98419802D01*
X152973434Y-99119882D01*
X153073731Y-98966369D01*
X153173587Y-98738717D01*
X153234612Y-98497738D01*
X153234614Y-98497729D01*
X153255141Y-98250005D01*
X154744357Y-98250005D01*
X154764890Y-98497812D01*
X154764892Y-98497824D01*
X154825936Y-98738881D01*
X154925826Y-98966606D01*
X155061833Y-99174782D01*
X155061836Y-99174785D01*
X155230256Y-99357738D01*
X155426491Y-99510474D01*
X155426493Y-99510475D01*
X155644332Y-99628364D01*
X155645190Y-99628828D01*
X155864141Y-99703994D01*
X155878964Y-99709083D01*
X155880386Y-99709571D01*
X156125665Y-99750500D01*
X156374335Y-99750500D01*
X156619614Y-99709571D01*
X156854810Y-99628828D01*
X157073509Y-99510474D01*
X157269744Y-99357738D01*
X157438164Y-99174785D01*
X157574173Y-98966607D01*
X157674063Y-98738881D01*
X157735108Y-98497821D01*
X157745991Y-98366488D01*
X157751924Y-98294887D01*
X157769340Y-98249751D01*
X157756523Y-98229807D01*
X157751924Y-98205112D01*
X157735109Y-98002187D01*
X157735107Y-98002175D01*
X157674063Y-97761118D01*
X157574173Y-97533393D01*
X157438166Y-97325217D01*
X157384817Y-97267265D01*
X157269744Y-97142262D01*
X157073509Y-96989526D01*
X157073507Y-96989525D01*
X157073506Y-96989524D01*
X156854811Y-96871172D01*
X156854802Y-96871169D01*
X156619616Y-96790429D01*
X156374335Y-96749500D01*
X156125665Y-96749500D01*
X155880383Y-96790429D01*
X155645197Y-96871169D01*
X155645188Y-96871172D01*
X155426493Y-96989524D01*
X155230257Y-97142261D01*
X155061833Y-97325217D01*
X154925826Y-97533393D01*
X154825936Y-97761118D01*
X154764892Y-98002175D01*
X154764890Y-98002187D01*
X154744357Y-98249994D01*
X154744357Y-98250005D01*
X153255141Y-98250005D01*
X153255141Y-98249994D01*
X153234614Y-98002270D01*
X153234612Y-98002261D01*
X153173587Y-97761282D01*
X153073731Y-97533630D01*
X152973434Y-97380116D01*
X152275929Y-98077622D01*
X152273116Y-98064085D01*
X152203558Y-97929844D01*
X152100362Y-97819348D01*
X151971181Y-97740791D01*
X151919997Y-97726450D01*
X152620057Y-97026390D01*
X152620056Y-97026389D01*
X152573229Y-96989943D01*
X152354614Y-96871635D01*
X152354603Y-96871630D01*
X152119493Y-96790916D01*
X151874293Y-96750000D01*
X151625707Y-96750000D01*
X151380506Y-96790916D01*
X151145396Y-96871630D01*
X151145390Y-96871632D01*
X150926761Y-96989949D01*
X150879942Y-97026388D01*
X150879942Y-97026390D01*
X151578431Y-97724878D01*
X151461542Y-97775651D01*
X151344261Y-97871066D01*
X151257072Y-97994585D01*
X151226645Y-98080197D01*
X150526564Y-97380116D01*
X150426267Y-97533632D01*
X150326412Y-97761282D01*
X150265387Y-98002261D01*
X150265385Y-98002270D01*
X150244859Y-98249994D01*
X150244859Y-98250005D01*
X121257953Y-98250005D01*
X121285635Y-98146692D01*
X121305468Y-97920000D01*
X121285635Y-97693308D01*
X121226739Y-97473504D01*
X121130568Y-97267266D01*
X121000047Y-97080861D01*
X121000045Y-97080858D01*
X120839141Y-96919954D01*
X120652734Y-96789432D01*
X120652732Y-96789431D01*
X120446497Y-96693261D01*
X120446488Y-96693258D01*
X120226697Y-96634366D01*
X120226693Y-96634365D01*
X120226692Y-96634365D01*
X120226691Y-96634364D01*
X120226686Y-96634364D01*
X120000002Y-96614532D01*
X119999998Y-96614532D01*
X119773313Y-96634364D01*
X119773302Y-96634366D01*
X119553511Y-96693258D01*
X119553502Y-96693261D01*
X119347267Y-96789431D01*
X119347265Y-96789432D01*
X119160858Y-96919954D01*
X118999954Y-97080858D01*
X118869432Y-97267265D01*
X118869431Y-97267267D01*
X118773261Y-97473502D01*
X118773258Y-97473511D01*
X118714366Y-97693302D01*
X118714364Y-97693313D01*
X118694532Y-97919998D01*
X118694532Y-97920001D01*
X93000500Y-97920001D01*
X93000500Y-95998256D01*
X93020185Y-95931217D01*
X93072989Y-95885462D01*
X93142147Y-95875518D01*
X93205703Y-95904543D01*
X93233332Y-95938829D01*
X93312770Y-96084309D01*
X93312775Y-96084317D01*
X93484254Y-96313387D01*
X93484270Y-96313405D01*
X93686594Y-96515729D01*
X93686612Y-96515745D01*
X93915682Y-96687224D01*
X93915690Y-96687229D01*
X94166833Y-96824364D01*
X94166832Y-96824364D01*
X94166836Y-96824365D01*
X94166839Y-96824367D01*
X94434954Y-96924369D01*
X94434960Y-96924370D01*
X94434962Y-96924371D01*
X94714566Y-96985195D01*
X94714568Y-96985195D01*
X94714572Y-96985196D01*
X94968220Y-97003337D01*
X94999999Y-97005610D01*
X95000000Y-97005610D01*
X95000001Y-97005610D01*
X95028595Y-97003564D01*
X95285428Y-96985196D01*
X95565046Y-96924369D01*
X95833161Y-96824367D01*
X96084315Y-96687226D01*
X96313395Y-96515739D01*
X96515739Y-96313395D01*
X96687226Y-96084315D01*
X96824367Y-95833161D01*
X96924369Y-95565046D01*
X96950197Y-95446317D01*
X96985195Y-95285433D01*
X96985195Y-95285432D01*
X96985196Y-95285428D01*
X97005610Y-95000001D01*
X112994891Y-95000001D01*
X113015300Y-95285362D01*
X113076109Y-95564895D01*
X113176091Y-95832958D01*
X113313191Y-96084038D01*
X113313196Y-96084046D01*
X113419882Y-96226561D01*
X113419883Y-96226562D01*
X114322803Y-95323641D01*
X114346059Y-95377553D01*
X114450756Y-95518185D01*
X114585062Y-95630882D01*
X114676665Y-95676886D01*
X113773436Y-96580115D01*
X113915960Y-96686807D01*
X113915961Y-96686808D01*
X114167042Y-96823908D01*
X114167041Y-96823908D01*
X114435104Y-96923890D01*
X114714637Y-96984699D01*
X114999999Y-97005109D01*
X115000001Y-97005109D01*
X115285362Y-96984699D01*
X115564895Y-96923890D01*
X115832958Y-96823908D01*
X116084047Y-96686803D01*
X116226561Y-96580116D01*
X116226562Y-96580115D01*
X115325946Y-95679498D01*
X115338891Y-95674787D01*
X115485373Y-95578445D01*
X115605688Y-95450918D01*
X115678447Y-95324894D01*
X116580115Y-96226562D01*
X116580116Y-96226561D01*
X116686803Y-96084047D01*
X116823908Y-95832958D01*
X116923890Y-95564895D01*
X116984699Y-95285362D01*
X117005109Y-95000001D01*
X117994532Y-95000001D01*
X118014364Y-95226686D01*
X118014366Y-95226697D01*
X118073258Y-95446488D01*
X118073261Y-95446497D01*
X118169431Y-95652732D01*
X118169432Y-95652734D01*
X118299954Y-95839141D01*
X118460858Y-96000045D01*
X118460861Y-96000047D01*
X118647266Y-96130568D01*
X118853504Y-96226739D01*
X119073308Y-96285635D01*
X119235230Y-96299801D01*
X119299998Y-96305468D01*
X119300000Y-96305468D01*
X119300002Y-96305468D01*
X119356673Y-96300509D01*
X119526692Y-96285635D01*
X119746496Y-96226739D01*
X119952734Y-96130568D01*
X120139139Y-96000047D01*
X120300047Y-95839139D01*
X120430568Y-95652734D01*
X120437893Y-95637023D01*
X120484062Y-95584586D01*
X120551254Y-95565432D01*
X120618136Y-95585645D01*
X120662657Y-95637023D01*
X120669865Y-95652481D01*
X120669866Y-95652483D01*
X120720973Y-95725471D01*
X120720974Y-95725472D01*
X121402046Y-95044399D01*
X121414835Y-95125148D01*
X121472359Y-95238045D01*
X121561955Y-95327641D01*
X121674852Y-95385165D01*
X121755599Y-95397953D01*
X121074526Y-96079025D01*
X121074526Y-96079026D01*
X121147512Y-96130131D01*
X121147516Y-96130133D01*
X121353673Y-96226265D01*
X121353682Y-96226269D01*
X121573389Y-96285139D01*
X121573400Y-96285141D01*
X121799998Y-96304966D01*
X121800002Y-96304966D01*
X122026599Y-96285141D01*
X122026610Y-96285139D01*
X122246317Y-96226269D01*
X122246331Y-96226264D01*
X122452478Y-96130136D01*
X122525472Y-96079025D01*
X121844401Y-95397953D01*
X121925148Y-95385165D01*
X122038045Y-95327641D01*
X122127641Y-95238045D01*
X122185165Y-95125148D01*
X122197953Y-95044400D01*
X122879025Y-95725472D01*
X122930136Y-95652478D01*
X123026264Y-95446331D01*
X123026269Y-95446317D01*
X123085139Y-95226610D01*
X123085141Y-95226599D01*
X123104966Y-95000002D01*
X123104966Y-94999997D01*
X123085141Y-94773400D01*
X123085139Y-94773389D01*
X123026269Y-94553682D01*
X123026265Y-94553673D01*
X122930133Y-94347516D01*
X122930131Y-94347512D01*
X122879026Y-94274526D01*
X122879025Y-94274526D01*
X122197953Y-94955598D01*
X122185165Y-94874852D01*
X122127641Y-94761955D01*
X122038045Y-94672359D01*
X121925148Y-94614835D01*
X121844400Y-94602046D01*
X122525472Y-93920974D01*
X122525471Y-93920973D01*
X122452483Y-93869866D01*
X122452481Y-93869865D01*
X122246326Y-93773734D01*
X122246317Y-93773730D01*
X122026610Y-93714860D01*
X122026599Y-93714858D01*
X121971139Y-93710006D01*
X128594700Y-93710006D01*
X128613864Y-93941297D01*
X128613866Y-93941308D01*
X128670842Y-94166300D01*
X128764075Y-94378848D01*
X128891018Y-94573150D01*
X128986167Y-94676510D01*
X129017089Y-94739164D01*
X129009228Y-94808590D01*
X128965081Y-94862746D01*
X128938271Y-94876674D01*
X128857911Y-94906646D01*
X128857906Y-94906649D01*
X128742812Y-94992809D01*
X128742809Y-94992812D01*
X128656649Y-95107906D01*
X128656645Y-95107913D01*
X128606403Y-95242620D01*
X128606401Y-95242627D01*
X128600000Y-95302155D01*
X128600000Y-96000000D01*
X129624722Y-96000000D01*
X129576375Y-96083740D01*
X129546190Y-96215992D01*
X129556327Y-96351265D01*
X129605887Y-96477541D01*
X129623797Y-96500000D01*
X128600000Y-96500000D01*
X128600000Y-97197844D01*
X128606401Y-97257372D01*
X128606403Y-97257379D01*
X128656645Y-97392086D01*
X128656649Y-97392093D01*
X128742809Y-97507187D01*
X128742812Y-97507190D01*
X128857906Y-97593350D01*
X128857913Y-97593354D01*
X128992620Y-97643596D01*
X128992627Y-97643598D01*
X129052155Y-97649999D01*
X129052172Y-97650000D01*
X129750000Y-97650000D01*
X129750000Y-96624189D01*
X129802547Y-96660016D01*
X129932173Y-96700000D01*
X130033724Y-96700000D01*
X130134138Y-96684865D01*
X130250000Y-96629068D01*
X130250000Y-97650000D01*
X130947828Y-97650000D01*
X130947844Y-97649999D01*
X131007372Y-97643598D01*
X131007379Y-97643596D01*
X131142086Y-97593354D01*
X131142093Y-97593350D01*
X131257187Y-97507190D01*
X131257190Y-97507187D01*
X131343350Y-97392093D01*
X131343354Y-97392086D01*
X131393596Y-97257379D01*
X131393598Y-97257372D01*
X131399999Y-97197844D01*
X131400000Y-97197827D01*
X131400000Y-96500000D01*
X130375278Y-96500000D01*
X130423625Y-96416260D01*
X130453810Y-96284008D01*
X130443673Y-96148735D01*
X130394113Y-96022459D01*
X130376203Y-96000000D01*
X131400000Y-96000000D01*
X131400000Y-95302172D01*
X131399999Y-95302155D01*
X131393598Y-95242627D01*
X131393596Y-95242620D01*
X131343354Y-95107913D01*
X131343350Y-95107906D01*
X131257190Y-94992812D01*
X131257187Y-94992809D01*
X131142093Y-94906649D01*
X131142086Y-94906645D01*
X131061729Y-94876674D01*
X131005795Y-94834803D01*
X130981378Y-94769338D01*
X130996230Y-94701065D01*
X131013826Y-94676516D01*
X131108979Y-94573153D01*
X131235924Y-94378849D01*
X131329157Y-94166300D01*
X131386134Y-93941305D01*
X131388235Y-93915953D01*
X131405300Y-93710006D01*
X136594700Y-93710006D01*
X136613864Y-93941297D01*
X136613866Y-93941308D01*
X136670842Y-94166300D01*
X136764075Y-94378848D01*
X136891018Y-94573150D01*
X136986167Y-94676510D01*
X137017089Y-94739164D01*
X137009228Y-94808590D01*
X136965081Y-94862746D01*
X136938271Y-94876674D01*
X136857911Y-94906646D01*
X136857906Y-94906649D01*
X136742812Y-94992809D01*
X136742809Y-94992812D01*
X136656649Y-95107906D01*
X136656645Y-95107913D01*
X136606403Y-95242620D01*
X136606401Y-95242627D01*
X136600000Y-95302155D01*
X136600000Y-96000000D01*
X137624722Y-96000000D01*
X137576375Y-96083740D01*
X137546190Y-96215992D01*
X137556327Y-96351265D01*
X137605887Y-96477541D01*
X137623797Y-96500000D01*
X136600000Y-96500000D01*
X136600000Y-97197844D01*
X136606401Y-97257372D01*
X136606403Y-97257379D01*
X136656645Y-97392086D01*
X136656649Y-97392093D01*
X136742809Y-97507187D01*
X136742812Y-97507190D01*
X136857906Y-97593350D01*
X136857913Y-97593354D01*
X136992620Y-97643596D01*
X136992627Y-97643598D01*
X137052155Y-97649999D01*
X137052172Y-97650000D01*
X137750000Y-97650000D01*
X137750000Y-96624189D01*
X137802547Y-96660016D01*
X137932173Y-96700000D01*
X138033724Y-96700000D01*
X138134138Y-96684865D01*
X138250000Y-96629068D01*
X138250000Y-97650000D01*
X138947828Y-97650000D01*
X138947844Y-97649999D01*
X139007372Y-97643598D01*
X139007379Y-97643596D01*
X139142086Y-97593354D01*
X139142093Y-97593350D01*
X139257187Y-97507190D01*
X139257190Y-97507187D01*
X139343350Y-97392093D01*
X139343354Y-97392086D01*
X139393596Y-97257379D01*
X139393598Y-97257372D01*
X139399999Y-97197844D01*
X139400000Y-97197827D01*
X139400000Y-96500000D01*
X138375278Y-96500000D01*
X138423625Y-96416260D01*
X138453810Y-96284008D01*
X138443673Y-96148735D01*
X138394113Y-96022459D01*
X138376203Y-96000000D01*
X139400000Y-96000000D01*
X139400000Y-95302172D01*
X139399999Y-95302155D01*
X139393598Y-95242627D01*
X139393596Y-95242620D01*
X139343354Y-95107913D01*
X139343350Y-95107906D01*
X139257190Y-94992812D01*
X139257187Y-94992809D01*
X139142093Y-94906649D01*
X139142086Y-94906645D01*
X139061729Y-94876674D01*
X139005795Y-94834803D01*
X138981378Y-94769338D01*
X138996230Y-94701065D01*
X139013826Y-94676516D01*
X139108979Y-94573153D01*
X139235924Y-94378849D01*
X139329157Y-94166300D01*
X139386134Y-93941305D01*
X139388235Y-93915953D01*
X139405300Y-93710006D01*
X144594700Y-93710006D01*
X144613864Y-93941297D01*
X144613866Y-93941308D01*
X144670842Y-94166300D01*
X144764075Y-94378848D01*
X144891018Y-94573150D01*
X144986167Y-94676510D01*
X145017089Y-94739164D01*
X145009228Y-94808590D01*
X144965081Y-94862746D01*
X144938271Y-94876674D01*
X144857911Y-94906646D01*
X144857906Y-94906649D01*
X144742812Y-94992809D01*
X144742809Y-94992812D01*
X144656649Y-95107906D01*
X144656645Y-95107913D01*
X144606403Y-95242620D01*
X144606401Y-95242627D01*
X144600000Y-95302155D01*
X144600000Y-96000000D01*
X145624722Y-96000000D01*
X145576375Y-96083740D01*
X145546190Y-96215992D01*
X145556327Y-96351265D01*
X145605887Y-96477541D01*
X145623797Y-96500000D01*
X144600000Y-96500000D01*
X144600000Y-97197844D01*
X144606401Y-97257372D01*
X144606403Y-97257379D01*
X144656645Y-97392086D01*
X144656649Y-97392093D01*
X144742809Y-97507187D01*
X144742812Y-97507190D01*
X144857906Y-97593350D01*
X144857913Y-97593354D01*
X144992620Y-97643596D01*
X144992627Y-97643598D01*
X145052155Y-97649999D01*
X145052172Y-97650000D01*
X145750000Y-97650000D01*
X145750000Y-96624189D01*
X145802547Y-96660016D01*
X145932173Y-96700000D01*
X146033724Y-96700000D01*
X146134138Y-96684865D01*
X146250000Y-96629068D01*
X146250000Y-97650000D01*
X146947828Y-97650000D01*
X146947844Y-97649999D01*
X147007372Y-97643598D01*
X147007379Y-97643596D01*
X147142086Y-97593354D01*
X147142093Y-97593350D01*
X147257187Y-97507190D01*
X147257190Y-97507187D01*
X147343350Y-97392093D01*
X147343354Y-97392086D01*
X147393596Y-97257379D01*
X147393598Y-97257372D01*
X147399999Y-97197844D01*
X147400000Y-97197827D01*
X147400000Y-96500000D01*
X146375278Y-96500000D01*
X146423625Y-96416260D01*
X146453810Y-96284008D01*
X146443673Y-96148735D01*
X146394113Y-96022459D01*
X146376203Y-96000000D01*
X147400000Y-96000000D01*
X147400000Y-95302172D01*
X147399999Y-95302155D01*
X147393598Y-95242627D01*
X147393596Y-95242620D01*
X147343354Y-95107913D01*
X147343350Y-95107906D01*
X147257190Y-94992812D01*
X147257187Y-94992809D01*
X147142093Y-94906649D01*
X147142086Y-94906645D01*
X147061729Y-94876674D01*
X147005795Y-94834803D01*
X146981378Y-94769338D01*
X146996230Y-94701065D01*
X147013826Y-94676516D01*
X147108979Y-94573153D01*
X147235924Y-94378849D01*
X147329157Y-94166300D01*
X147386134Y-93941305D01*
X147388235Y-93915953D01*
X147405300Y-93710006D01*
X147405300Y-93709993D01*
X147386135Y-93478702D01*
X147386133Y-93478691D01*
X147329157Y-93253699D01*
X147235924Y-93041151D01*
X147108983Y-92846852D01*
X147108980Y-92846849D01*
X147108979Y-92846847D01*
X146951784Y-92676087D01*
X146951779Y-92676083D01*
X146951777Y-92676081D01*
X146768634Y-92533535D01*
X146768628Y-92533531D01*
X146564504Y-92423064D01*
X146564495Y-92423061D01*
X146344984Y-92347702D01*
X146173282Y-92319050D01*
X146116049Y-92309500D01*
X145883951Y-92309500D01*
X145838164Y-92317140D01*
X145655015Y-92347702D01*
X145435504Y-92423061D01*
X145435495Y-92423064D01*
X145231371Y-92533531D01*
X145231365Y-92533535D01*
X145048222Y-92676081D01*
X145048219Y-92676084D01*
X144891016Y-92846852D01*
X144764075Y-93041151D01*
X144670842Y-93253699D01*
X144613866Y-93478691D01*
X144613864Y-93478702D01*
X144594700Y-93709993D01*
X144594700Y-93710006D01*
X139405300Y-93710006D01*
X139405300Y-93709993D01*
X139386135Y-93478702D01*
X139386133Y-93478691D01*
X139329157Y-93253699D01*
X139235924Y-93041151D01*
X139108983Y-92846852D01*
X139108980Y-92846849D01*
X139108979Y-92846847D01*
X138951784Y-92676087D01*
X138951779Y-92676083D01*
X138951777Y-92676081D01*
X138768634Y-92533535D01*
X138768628Y-92533531D01*
X138564504Y-92423064D01*
X138564495Y-92423061D01*
X138344984Y-92347702D01*
X138173282Y-92319050D01*
X138116049Y-92309500D01*
X137883951Y-92309500D01*
X137838164Y-92317140D01*
X137655015Y-92347702D01*
X137435504Y-92423061D01*
X137435495Y-92423064D01*
X137231371Y-92533531D01*
X137231365Y-92533535D01*
X137048222Y-92676081D01*
X137048219Y-92676084D01*
X136891016Y-92846852D01*
X136764075Y-93041151D01*
X136670842Y-93253699D01*
X136613866Y-93478691D01*
X136613864Y-93478702D01*
X136594700Y-93709993D01*
X136594700Y-93710006D01*
X131405300Y-93710006D01*
X131405300Y-93709993D01*
X131386135Y-93478702D01*
X131386133Y-93478691D01*
X131329157Y-93253699D01*
X131235924Y-93041151D01*
X131108983Y-92846852D01*
X131108980Y-92846849D01*
X131108979Y-92846847D01*
X130951784Y-92676087D01*
X130951779Y-92676083D01*
X130951777Y-92676081D01*
X130768634Y-92533535D01*
X130768628Y-92533531D01*
X130564504Y-92423064D01*
X130564495Y-92423061D01*
X130344984Y-92347702D01*
X130173282Y-92319050D01*
X130116049Y-92309500D01*
X129883951Y-92309500D01*
X129838164Y-92317140D01*
X129655015Y-92347702D01*
X129435504Y-92423061D01*
X129435495Y-92423064D01*
X129231371Y-92533531D01*
X129231365Y-92533535D01*
X129048222Y-92676081D01*
X129048219Y-92676084D01*
X128891016Y-92846852D01*
X128764075Y-93041151D01*
X128670842Y-93253699D01*
X128613866Y-93478691D01*
X128613864Y-93478702D01*
X128594700Y-93709993D01*
X128594700Y-93710006D01*
X121971139Y-93710006D01*
X121800002Y-93695034D01*
X121799998Y-93695034D01*
X121573400Y-93714858D01*
X121573389Y-93714860D01*
X121353682Y-93773730D01*
X121353673Y-93773734D01*
X121147513Y-93869868D01*
X121074527Y-93920972D01*
X121074526Y-93920973D01*
X121755600Y-94602046D01*
X121674852Y-94614835D01*
X121561955Y-94672359D01*
X121472359Y-94761955D01*
X121414835Y-94874852D01*
X121402046Y-94955599D01*
X120720973Y-94274526D01*
X120720972Y-94274527D01*
X120669868Y-94347512D01*
X120662656Y-94362979D01*
X120616482Y-94415417D01*
X120549288Y-94434567D01*
X120482407Y-94414350D01*
X120437893Y-94362976D01*
X120430568Y-94347266D01*
X120300047Y-94160861D01*
X120300045Y-94160858D01*
X120139141Y-93999954D01*
X119952734Y-93869432D01*
X119952732Y-93869431D01*
X119746497Y-93773261D01*
X119746488Y-93773258D01*
X119526697Y-93714366D01*
X119526693Y-93714365D01*
X119526692Y-93714365D01*
X119526691Y-93714364D01*
X119526686Y-93714364D01*
X119300002Y-93694532D01*
X119299998Y-93694532D01*
X119073313Y-93714364D01*
X119073302Y-93714366D01*
X118853511Y-93773258D01*
X118853502Y-93773261D01*
X118647267Y-93869431D01*
X118647265Y-93869432D01*
X118460858Y-93999954D01*
X118299954Y-94160858D01*
X118169432Y-94347265D01*
X118169431Y-94347267D01*
X118073261Y-94553502D01*
X118073258Y-94553511D01*
X118014366Y-94773302D01*
X118014364Y-94773313D01*
X117994532Y-94999998D01*
X117994532Y-95000001D01*
X117005109Y-95000001D01*
X117005109Y-94999998D01*
X116984699Y-94714637D01*
X116923890Y-94435104D01*
X116823908Y-94167041D01*
X116686808Y-93915961D01*
X116686807Y-93915960D01*
X116580115Y-93773436D01*
X115677195Y-94676356D01*
X115653941Y-94622447D01*
X115549244Y-94481815D01*
X115414938Y-94369118D01*
X115323333Y-94323112D01*
X116226562Y-93419883D01*
X116226561Y-93419882D01*
X116084046Y-93313196D01*
X116084038Y-93313191D01*
X115832957Y-93176091D01*
X115832958Y-93176091D01*
X115564895Y-93076109D01*
X115285362Y-93015300D01*
X115000001Y-92994891D01*
X114999999Y-92994891D01*
X114714637Y-93015300D01*
X114435104Y-93076109D01*
X114167041Y-93176091D01*
X113915961Y-93313191D01*
X113915953Y-93313196D01*
X113773437Y-93419882D01*
X113773436Y-93419883D01*
X114674054Y-94320501D01*
X114661109Y-94325213D01*
X114514627Y-94421555D01*
X114394312Y-94549082D01*
X114321552Y-94675105D01*
X113419883Y-93773436D01*
X113419882Y-93773437D01*
X113313196Y-93915953D01*
X113313191Y-93915961D01*
X113176091Y-94167041D01*
X113076109Y-94435104D01*
X113015300Y-94714637D01*
X112994891Y-94999998D01*
X112994891Y-95000001D01*
X97005610Y-95000001D01*
X97005610Y-95000000D01*
X96985196Y-94714572D01*
X96965155Y-94622447D01*
X96924371Y-94434962D01*
X96924370Y-94434960D01*
X96924369Y-94434954D01*
X96824367Y-94166839D01*
X96801754Y-94125427D01*
X96687229Y-93915690D01*
X96687224Y-93915682D01*
X96515745Y-93686612D01*
X96515729Y-93686594D01*
X96313405Y-93484270D01*
X96313387Y-93484254D01*
X96084317Y-93312775D01*
X96084309Y-93312770D01*
X95833166Y-93175635D01*
X95833167Y-93175635D01*
X95707672Y-93128828D01*
X95565046Y-93075631D01*
X95565043Y-93075630D01*
X95565037Y-93075628D01*
X95285433Y-93014804D01*
X95000001Y-92994390D01*
X94999999Y-92994390D01*
X94714566Y-93014804D01*
X94434962Y-93075628D01*
X94166833Y-93175635D01*
X93915690Y-93312770D01*
X93915682Y-93312775D01*
X93686612Y-93484254D01*
X93686594Y-93484270D01*
X93484270Y-93686594D01*
X93484254Y-93686612D01*
X93312775Y-93915682D01*
X93312770Y-93915690D01*
X93233332Y-94061170D01*
X93183926Y-94110575D01*
X93115653Y-94125427D01*
X93050189Y-94101010D01*
X93008318Y-94045076D01*
X93000500Y-94001743D01*
X93000500Y-92080001D01*
X118694532Y-92080001D01*
X118714364Y-92306686D01*
X118714366Y-92306697D01*
X118773258Y-92526488D01*
X118773261Y-92526497D01*
X118869431Y-92732732D01*
X118869432Y-92732734D01*
X118999954Y-92919141D01*
X119160858Y-93080045D01*
X119160861Y-93080047D01*
X119347266Y-93210568D01*
X119553504Y-93306739D01*
X119773308Y-93365635D01*
X119935230Y-93379801D01*
X119999998Y-93385468D01*
X120000000Y-93385468D01*
X120000002Y-93385468D01*
X120056673Y-93380509D01*
X120226692Y-93365635D01*
X120446496Y-93306739D01*
X120652734Y-93210568D01*
X120839139Y-93080047D01*
X121000047Y-92919139D01*
X121130568Y-92732734D01*
X121226739Y-92526496D01*
X121285635Y-92306692D01*
X121305468Y-92080000D01*
X121285635Y-91853308D01*
X121257955Y-91750005D01*
X150244859Y-91750005D01*
X150265385Y-91997729D01*
X150265387Y-91997738D01*
X150326412Y-92238717D01*
X150426266Y-92466364D01*
X150526564Y-92619882D01*
X151224070Y-91922376D01*
X151226884Y-91935915D01*
X151296442Y-92070156D01*
X151399638Y-92180652D01*
X151528819Y-92259209D01*
X151580002Y-92273549D01*
X150879942Y-92973609D01*
X150926768Y-93010055D01*
X150926770Y-93010056D01*
X151145385Y-93128364D01*
X151145396Y-93128369D01*
X151380506Y-93209083D01*
X151625707Y-93250000D01*
X151874293Y-93250000D01*
X152119493Y-93209083D01*
X152354603Y-93128369D01*
X152354614Y-93128364D01*
X152573228Y-93010057D01*
X152573231Y-93010055D01*
X152620056Y-92973609D01*
X151921568Y-92275121D01*
X152038458Y-92224349D01*
X152155739Y-92128934D01*
X152242928Y-92005415D01*
X152273354Y-91919802D01*
X152973434Y-92619882D01*
X153073731Y-92466369D01*
X153173587Y-92238717D01*
X153234612Y-91997738D01*
X153234614Y-91997729D01*
X153255141Y-91750005D01*
X154744357Y-91750005D01*
X154764890Y-91997812D01*
X154764892Y-91997824D01*
X154825936Y-92238881D01*
X154925826Y-92466606D01*
X155061833Y-92674782D01*
X155094245Y-92709991D01*
X155230256Y-92857738D01*
X155426491Y-93010474D01*
X155426493Y-93010475D01*
X155644332Y-93128364D01*
X155645190Y-93128828D01*
X155864141Y-93203994D01*
X155878964Y-93209083D01*
X155880386Y-93209571D01*
X156125665Y-93250500D01*
X156374335Y-93250500D01*
X156619614Y-93209571D01*
X156854810Y-93128828D01*
X157073509Y-93010474D01*
X157269744Y-92857738D01*
X157438164Y-92674785D01*
X157574173Y-92466607D01*
X157674063Y-92238881D01*
X157735108Y-91997821D01*
X157740238Y-91935915D01*
X157751924Y-91794887D01*
X157769340Y-91749751D01*
X157756523Y-91729807D01*
X157751924Y-91705112D01*
X157735109Y-91502187D01*
X157735107Y-91502175D01*
X157674063Y-91261118D01*
X157574173Y-91033393D01*
X157438166Y-90825217D01*
X157416557Y-90801744D01*
X157269744Y-90642262D01*
X157073509Y-90489526D01*
X157073507Y-90489525D01*
X157073506Y-90489524D01*
X156854811Y-90371172D01*
X156854802Y-90371169D01*
X156619616Y-90290429D01*
X156374335Y-90249500D01*
X156125665Y-90249500D01*
X155880383Y-90290429D01*
X155645197Y-90371169D01*
X155645188Y-90371172D01*
X155426493Y-90489524D01*
X155230257Y-90642261D01*
X155061833Y-90825217D01*
X154925826Y-91033393D01*
X154825936Y-91261118D01*
X154764892Y-91502175D01*
X154764890Y-91502187D01*
X154744357Y-91749994D01*
X154744357Y-91750005D01*
X153255141Y-91750005D01*
X153255141Y-91749994D01*
X153234614Y-91502270D01*
X153234612Y-91502261D01*
X153173587Y-91261282D01*
X153073731Y-91033630D01*
X152973434Y-90880116D01*
X152275929Y-91577622D01*
X152273116Y-91564085D01*
X152203558Y-91429844D01*
X152100362Y-91319348D01*
X151971181Y-91240791D01*
X151919997Y-91226450D01*
X152620057Y-90526390D01*
X152620056Y-90526389D01*
X152573229Y-90489943D01*
X152354614Y-90371635D01*
X152354603Y-90371630D01*
X152119493Y-90290916D01*
X151874293Y-90250000D01*
X151625707Y-90250000D01*
X151380506Y-90290916D01*
X151145396Y-90371630D01*
X151145390Y-90371632D01*
X150926761Y-90489949D01*
X150879942Y-90526388D01*
X150879942Y-90526390D01*
X151578431Y-91224878D01*
X151461542Y-91275651D01*
X151344261Y-91371066D01*
X151257072Y-91494585D01*
X151226645Y-91580197D01*
X150526564Y-90880116D01*
X150426267Y-91033632D01*
X150326412Y-91261282D01*
X150265387Y-91502261D01*
X150265385Y-91502270D01*
X150244859Y-91749994D01*
X150244859Y-91750005D01*
X121257955Y-91750005D01*
X121226739Y-91633504D01*
X121130568Y-91427266D01*
X121000047Y-91240861D01*
X121000045Y-91240858D01*
X120839141Y-91079954D01*
X120652734Y-90949432D01*
X120652732Y-90949431D01*
X120446497Y-90853261D01*
X120446488Y-90853258D01*
X120226697Y-90794366D01*
X120226693Y-90794365D01*
X120226692Y-90794365D01*
X120226691Y-90794364D01*
X120226686Y-90794364D01*
X120000002Y-90774532D01*
X119999998Y-90774532D01*
X119773313Y-90794364D01*
X119773302Y-90794366D01*
X119553511Y-90853258D01*
X119553502Y-90853261D01*
X119347267Y-90949431D01*
X119347265Y-90949432D01*
X119160858Y-91079954D01*
X118999954Y-91240858D01*
X118869432Y-91427265D01*
X118869431Y-91427267D01*
X118773261Y-91633502D01*
X118773258Y-91633511D01*
X118714366Y-91853302D01*
X118714364Y-91853313D01*
X118694532Y-92079998D01*
X118694532Y-92080001D01*
X93000500Y-92080001D01*
X93000500Y-89920001D01*
X123294532Y-89920001D01*
X123314364Y-90146686D01*
X123314366Y-90146697D01*
X123373258Y-90366488D01*
X123373261Y-90366497D01*
X123469431Y-90572732D01*
X123469432Y-90572734D01*
X123599954Y-90759141D01*
X123760858Y-90920045D01*
X123807693Y-90952839D01*
X123947266Y-91050568D01*
X124153504Y-91146739D01*
X124373308Y-91205635D01*
X124535230Y-91219801D01*
X124599998Y-91225468D01*
X124600000Y-91225468D01*
X124600002Y-91225468D01*
X124656673Y-91220509D01*
X124826692Y-91205635D01*
X125046496Y-91146739D01*
X125252734Y-91050568D01*
X125439139Y-90920047D01*
X125600047Y-90759139D01*
X125730568Y-90572734D01*
X125826739Y-90366496D01*
X125885635Y-90146692D01*
X125905468Y-89920000D01*
X125885635Y-89693308D01*
X125826739Y-89473504D01*
X125730568Y-89267266D01*
X125600047Y-89080861D01*
X125600045Y-89080858D01*
X125439141Y-88919954D01*
X125252734Y-88789432D01*
X125252732Y-88789431D01*
X125046497Y-88693261D01*
X125046488Y-88693258D01*
X124826697Y-88634366D01*
X124826693Y-88634365D01*
X124826692Y-88634365D01*
X124826691Y-88634364D01*
X124826686Y-88634364D01*
X124600002Y-88614532D01*
X124599998Y-88614532D01*
X124373313Y-88634364D01*
X124373302Y-88634366D01*
X124153511Y-88693258D01*
X124153502Y-88693261D01*
X123947267Y-88789431D01*
X123947265Y-88789432D01*
X123760858Y-88919954D01*
X123599954Y-89080858D01*
X123469432Y-89267265D01*
X123469431Y-89267267D01*
X123373261Y-89473502D01*
X123373258Y-89473511D01*
X123314366Y-89693302D01*
X123314364Y-89693313D01*
X123294532Y-89919998D01*
X123294532Y-89920001D01*
X93000500Y-89920001D01*
X93000500Y-84067763D01*
X95145787Y-84067763D01*
X95175413Y-84337013D01*
X95175415Y-84337024D01*
X95226789Y-84533531D01*
X95243928Y-84599088D01*
X95349870Y-84848390D01*
X95421998Y-84966575D01*
X95490979Y-85079605D01*
X95490986Y-85079615D01*
X95664253Y-85287819D01*
X95664259Y-85287824D01*
X95865998Y-85468582D01*
X96091910Y-85618044D01*
X96337176Y-85733020D01*
X96337183Y-85733022D01*
X96337185Y-85733023D01*
X96596557Y-85811057D01*
X96596564Y-85811058D01*
X96596569Y-85811060D01*
X96864561Y-85850500D01*
X96864566Y-85850500D01*
X97067636Y-85850500D01*
X97119133Y-85846730D01*
X97270156Y-85835677D01*
X97382758Y-85810593D01*
X97534546Y-85776782D01*
X97534548Y-85776781D01*
X97534553Y-85776780D01*
X97709141Y-85710006D01*
X128594700Y-85710006D01*
X128613864Y-85941297D01*
X128613866Y-85941308D01*
X128670842Y-86166300D01*
X128764075Y-86378848D01*
X128891018Y-86573150D01*
X128986167Y-86676510D01*
X129017089Y-86739164D01*
X129009228Y-86808590D01*
X128965081Y-86862746D01*
X128938271Y-86876674D01*
X128857911Y-86906646D01*
X128857906Y-86906649D01*
X128742812Y-86992809D01*
X128742809Y-86992812D01*
X128656649Y-87107906D01*
X128656645Y-87107913D01*
X128606403Y-87242620D01*
X128606401Y-87242627D01*
X128600000Y-87302155D01*
X128600000Y-88000000D01*
X129624722Y-88000000D01*
X129576375Y-88083740D01*
X129546190Y-88215992D01*
X129556327Y-88351265D01*
X129605887Y-88477541D01*
X129623797Y-88500000D01*
X128600000Y-88500000D01*
X128600000Y-89197844D01*
X128606401Y-89257372D01*
X128606403Y-89257379D01*
X128656645Y-89392086D01*
X128656649Y-89392093D01*
X128742809Y-89507187D01*
X128742812Y-89507190D01*
X128857906Y-89593350D01*
X128857913Y-89593354D01*
X128992620Y-89643596D01*
X128992627Y-89643598D01*
X129052155Y-89649999D01*
X129052172Y-89650000D01*
X129750000Y-89650000D01*
X129750000Y-88624189D01*
X129802547Y-88660016D01*
X129932173Y-88700000D01*
X130033724Y-88700000D01*
X130134138Y-88684865D01*
X130250000Y-88629068D01*
X130250000Y-89650000D01*
X130947828Y-89650000D01*
X130947844Y-89649999D01*
X131007372Y-89643598D01*
X131007379Y-89643596D01*
X131142086Y-89593354D01*
X131142093Y-89593350D01*
X131257187Y-89507190D01*
X131257190Y-89507187D01*
X131343350Y-89392093D01*
X131343354Y-89392086D01*
X131393596Y-89257379D01*
X131393598Y-89257372D01*
X131399999Y-89197844D01*
X131400000Y-89197827D01*
X131400000Y-88500000D01*
X130375278Y-88500000D01*
X130423625Y-88416260D01*
X130453810Y-88284008D01*
X130443673Y-88148735D01*
X130394113Y-88022459D01*
X130376203Y-88000000D01*
X131400000Y-88000000D01*
X131400000Y-87302172D01*
X131399999Y-87302155D01*
X131393598Y-87242627D01*
X131393596Y-87242620D01*
X131343354Y-87107913D01*
X131343350Y-87107906D01*
X131257190Y-86992812D01*
X131257187Y-86992809D01*
X131142093Y-86906649D01*
X131142086Y-86906645D01*
X131061729Y-86876674D01*
X131005795Y-86834803D01*
X130981378Y-86769338D01*
X130996230Y-86701065D01*
X131013826Y-86676516D01*
X131108979Y-86573153D01*
X131235924Y-86378849D01*
X131329157Y-86166300D01*
X131386134Y-85941305D01*
X131386135Y-85941297D01*
X131405300Y-85710006D01*
X131405300Y-85709993D01*
X131386135Y-85478702D01*
X131386133Y-85478691D01*
X131329157Y-85253699D01*
X131235924Y-85041151D01*
X131108983Y-84846852D01*
X131108980Y-84846849D01*
X131108979Y-84846847D01*
X130951784Y-84676087D01*
X130951779Y-84676083D01*
X130951777Y-84676081D01*
X130768634Y-84533535D01*
X130768628Y-84533531D01*
X130564504Y-84423064D01*
X130564495Y-84423061D01*
X130344984Y-84347702D01*
X130173282Y-84319050D01*
X130116049Y-84309500D01*
X129883951Y-84309500D01*
X129838164Y-84317140D01*
X129655015Y-84347702D01*
X129435504Y-84423061D01*
X129435495Y-84423064D01*
X129231371Y-84533531D01*
X129231365Y-84533535D01*
X129048222Y-84676081D01*
X129048219Y-84676084D01*
X128891016Y-84846852D01*
X128764075Y-85041151D01*
X128670842Y-85253699D01*
X128613866Y-85478691D01*
X128613864Y-85478702D01*
X128594700Y-85709993D01*
X128594700Y-85710006D01*
X97709141Y-85710006D01*
X97787558Y-85680014D01*
X98023777Y-85547441D01*
X98238177Y-85381888D01*
X98426186Y-85186881D01*
X98583799Y-84966579D01*
X98657787Y-84822669D01*
X98707649Y-84725690D01*
X98707651Y-84725684D01*
X98707656Y-84725675D01*
X98795118Y-84469305D01*
X98844319Y-84202933D01*
X98849259Y-84067763D01*
X136145787Y-84067763D01*
X136175413Y-84337013D01*
X136175415Y-84337024D01*
X136226789Y-84533531D01*
X136243928Y-84599088D01*
X136349870Y-84848390D01*
X136421998Y-84966575D01*
X136490979Y-85079605D01*
X136490986Y-85079615D01*
X136664253Y-85287819D01*
X136664259Y-85287824D01*
X136865998Y-85468582D01*
X137091910Y-85618044D01*
X137337176Y-85733020D01*
X137337183Y-85733022D01*
X137337185Y-85733023D01*
X137596557Y-85811057D01*
X137596564Y-85811058D01*
X137596569Y-85811060D01*
X137864561Y-85850500D01*
X137864566Y-85850500D01*
X138067636Y-85850500D01*
X138119133Y-85846730D01*
X138270156Y-85835677D01*
X138382758Y-85810593D01*
X138534546Y-85776782D01*
X138534548Y-85776781D01*
X138534553Y-85776780D01*
X138709141Y-85710006D01*
X144594700Y-85710006D01*
X144613864Y-85941297D01*
X144613866Y-85941308D01*
X144670842Y-86166300D01*
X144764075Y-86378848D01*
X144891018Y-86573150D01*
X144986167Y-86676510D01*
X145017089Y-86739164D01*
X145009228Y-86808590D01*
X144965081Y-86862746D01*
X144938271Y-86876674D01*
X144857911Y-86906646D01*
X144857906Y-86906649D01*
X144742812Y-86992809D01*
X144742809Y-86992812D01*
X144656649Y-87107906D01*
X144656645Y-87107913D01*
X144606403Y-87242620D01*
X144606401Y-87242627D01*
X144600000Y-87302155D01*
X144600000Y-88000000D01*
X145624722Y-88000000D01*
X145576375Y-88083740D01*
X145546190Y-88215992D01*
X145556327Y-88351265D01*
X145605887Y-88477541D01*
X145623797Y-88500000D01*
X144600000Y-88500000D01*
X144600000Y-89197844D01*
X144606401Y-89257372D01*
X144606403Y-89257379D01*
X144656645Y-89392086D01*
X144656649Y-89392093D01*
X144742809Y-89507187D01*
X144742812Y-89507190D01*
X144857906Y-89593350D01*
X144857913Y-89593354D01*
X144992620Y-89643596D01*
X144992627Y-89643598D01*
X145052155Y-89649999D01*
X145052172Y-89650000D01*
X145750000Y-89650000D01*
X145750000Y-88624189D01*
X145802547Y-88660016D01*
X145932173Y-88700000D01*
X146033724Y-88700000D01*
X146134138Y-88684865D01*
X146250000Y-88629068D01*
X146250000Y-89650000D01*
X146947828Y-89650000D01*
X146947844Y-89649999D01*
X147007372Y-89643598D01*
X147007379Y-89643596D01*
X147142086Y-89593354D01*
X147142093Y-89593350D01*
X147257187Y-89507190D01*
X147257190Y-89507187D01*
X147343350Y-89392093D01*
X147343354Y-89392086D01*
X147393596Y-89257379D01*
X147393598Y-89257372D01*
X147399999Y-89197844D01*
X147400000Y-89197827D01*
X147400000Y-88500000D01*
X146375278Y-88500000D01*
X146423625Y-88416260D01*
X146453810Y-88284008D01*
X146443673Y-88148735D01*
X146394113Y-88022459D01*
X146376203Y-88000000D01*
X147400000Y-88000000D01*
X147400000Y-87302172D01*
X147399999Y-87302155D01*
X147393598Y-87242627D01*
X147393596Y-87242620D01*
X147343354Y-87107913D01*
X147343350Y-87107906D01*
X147257190Y-86992812D01*
X147257187Y-86992809D01*
X147142093Y-86906649D01*
X147142086Y-86906645D01*
X147061729Y-86876674D01*
X147005795Y-86834803D01*
X146981378Y-86769338D01*
X146996230Y-86701065D01*
X147013826Y-86676516D01*
X147108979Y-86573153D01*
X147235924Y-86378849D01*
X147329157Y-86166300D01*
X147386134Y-85941305D01*
X147386135Y-85941297D01*
X147405300Y-85710006D01*
X147405300Y-85709993D01*
X147386135Y-85478702D01*
X147386133Y-85478691D01*
X147329157Y-85253699D01*
X147235924Y-85041151D01*
X147108983Y-84846852D01*
X147108980Y-84846849D01*
X147108979Y-84846847D01*
X146951784Y-84676087D01*
X146951779Y-84676083D01*
X146951777Y-84676081D01*
X146768634Y-84533535D01*
X146768628Y-84533531D01*
X146564504Y-84423064D01*
X146564495Y-84423061D01*
X146344984Y-84347702D01*
X146173282Y-84319050D01*
X146116049Y-84309500D01*
X145883951Y-84309500D01*
X145838164Y-84317140D01*
X145655015Y-84347702D01*
X145435504Y-84423061D01*
X145435495Y-84423064D01*
X145231371Y-84533531D01*
X145231365Y-84533535D01*
X145048222Y-84676081D01*
X145048219Y-84676084D01*
X144891016Y-84846852D01*
X144764075Y-85041151D01*
X144670842Y-85253699D01*
X144613866Y-85478691D01*
X144613864Y-85478702D01*
X144594700Y-85709993D01*
X144594700Y-85710006D01*
X138709141Y-85710006D01*
X138787558Y-85680014D01*
X139023777Y-85547441D01*
X139238177Y-85381888D01*
X139426186Y-85186881D01*
X139583799Y-84966579D01*
X139657787Y-84822669D01*
X139707649Y-84725690D01*
X139707651Y-84725684D01*
X139707656Y-84725675D01*
X139795118Y-84469305D01*
X139844319Y-84202933D01*
X139854212Y-83932235D01*
X139824586Y-83662982D01*
X139756072Y-83400912D01*
X139650130Y-83151610D01*
X139509018Y-82920390D01*
X139507845Y-82918981D01*
X139335746Y-82712180D01*
X139335740Y-82712175D01*
X139134002Y-82531418D01*
X138908092Y-82381957D01*
X138875111Y-82366496D01*
X138662824Y-82266980D01*
X138662819Y-82266978D01*
X138662814Y-82266976D01*
X138403442Y-82188942D01*
X138403428Y-82188939D01*
X138287791Y-82171921D01*
X138135439Y-82149500D01*
X137932369Y-82149500D01*
X137932364Y-82149500D01*
X137729844Y-82164323D01*
X137729831Y-82164325D01*
X137465453Y-82223217D01*
X137465446Y-82223220D01*
X137212439Y-82319987D01*
X136976226Y-82452557D01*
X136761822Y-82618112D01*
X136573822Y-82813109D01*
X136573816Y-82813116D01*
X136416202Y-83033419D01*
X136416199Y-83033424D01*
X136292350Y-83274309D01*
X136292343Y-83274327D01*
X136204884Y-83530685D01*
X136204881Y-83530699D01*
X136155681Y-83797068D01*
X136155680Y-83797075D01*
X136145787Y-84067763D01*
X98849259Y-84067763D01*
X98854212Y-83932235D01*
X98824586Y-83662982D01*
X98756072Y-83400912D01*
X98669788Y-83197870D01*
X107149500Y-83197870D01*
X107149501Y-83197876D01*
X107155908Y-83257483D01*
X107206202Y-83392328D01*
X107206206Y-83392335D01*
X107292452Y-83507544D01*
X107292455Y-83507547D01*
X107407664Y-83593793D01*
X107407671Y-83593797D01*
X107542517Y-83644091D01*
X107542516Y-83644091D01*
X107549444Y-83644835D01*
X107602127Y-83650500D01*
X109397872Y-83650499D01*
X109457483Y-83644091D01*
X109592331Y-83593796D01*
X109707546Y-83507546D01*
X109793796Y-83392331D01*
X109842810Y-83260916D01*
X109884681Y-83204984D01*
X109950145Y-83180566D01*
X110018418Y-83195417D01*
X110046673Y-83216569D01*
X110168599Y-83338495D01*
X110257740Y-83400912D01*
X110362165Y-83474032D01*
X110362167Y-83474033D01*
X110362170Y-83474035D01*
X110576337Y-83573903D01*
X110804592Y-83635063D01*
X110981034Y-83650500D01*
X111039999Y-83655659D01*
X111040000Y-83655659D01*
X111040001Y-83655659D01*
X111098966Y-83650500D01*
X111275408Y-83635063D01*
X111503663Y-83573903D01*
X111717830Y-83474035D01*
X111911401Y-83338495D01*
X112078495Y-83171401D01*
X112208425Y-82985842D01*
X112263002Y-82942217D01*
X112332500Y-82935023D01*
X112394855Y-82966546D01*
X112411575Y-82985842D01*
X112541500Y-83171395D01*
X112541505Y-83171401D01*
X112708599Y-83338495D01*
X112797740Y-83400912D01*
X112902165Y-83474032D01*
X112902167Y-83474033D01*
X112902170Y-83474035D01*
X113116337Y-83573903D01*
X113344592Y-83635063D01*
X113521034Y-83650500D01*
X113579999Y-83655659D01*
X113580000Y-83655659D01*
X113580001Y-83655659D01*
X113638966Y-83650500D01*
X113815408Y-83635063D01*
X114043663Y-83573903D01*
X114257830Y-83474035D01*
X114451401Y-83338495D01*
X114618495Y-83171401D01*
X114748425Y-82985842D01*
X114803002Y-82942217D01*
X114872500Y-82935023D01*
X114934855Y-82966546D01*
X114951575Y-82985842D01*
X115081500Y-83171395D01*
X115081505Y-83171401D01*
X115248599Y-83338495D01*
X115337740Y-83400912D01*
X115442165Y-83474032D01*
X115442167Y-83474033D01*
X115442170Y-83474035D01*
X115656337Y-83573903D01*
X115884592Y-83635063D01*
X116061034Y-83650500D01*
X116119999Y-83655659D01*
X116120000Y-83655659D01*
X116120001Y-83655659D01*
X116178966Y-83650500D01*
X116355408Y-83635063D01*
X116583663Y-83573903D01*
X116797830Y-83474035D01*
X116991401Y-83338495D01*
X117158495Y-83171401D01*
X117294035Y-82977830D01*
X117393903Y-82763663D01*
X117455063Y-82535408D01*
X117475659Y-82300000D01*
X117455063Y-82064592D01*
X117416320Y-81920001D01*
X118694532Y-81920001D01*
X118714364Y-82146686D01*
X118714366Y-82146697D01*
X118773258Y-82366488D01*
X118773261Y-82366497D01*
X118869431Y-82572732D01*
X118869432Y-82572734D01*
X118999954Y-82759141D01*
X119160858Y-82920045D01*
X119182249Y-82935023D01*
X119347266Y-83050568D01*
X119553504Y-83146739D01*
X119773308Y-83205635D01*
X119935230Y-83219801D01*
X119999998Y-83225468D01*
X120000000Y-83225468D01*
X120000002Y-83225468D01*
X120056673Y-83220509D01*
X120226692Y-83205635D01*
X120446496Y-83146739D01*
X120652734Y-83050568D01*
X120839139Y-82920047D01*
X121000047Y-82759139D01*
X121130568Y-82572734D01*
X121226739Y-82366496D01*
X121285635Y-82146692D01*
X121298469Y-82000001D01*
X121614532Y-82000001D01*
X121634364Y-82226686D01*
X121634366Y-82226697D01*
X121693258Y-82446488D01*
X121693261Y-82446497D01*
X121789431Y-82652732D01*
X121789432Y-82652734D01*
X121919954Y-82839141D01*
X122080858Y-83000045D01*
X122080861Y-83000047D01*
X122267266Y-83130568D01*
X122473504Y-83226739D01*
X122693308Y-83285635D01*
X122855230Y-83299801D01*
X122919998Y-83305468D01*
X122920000Y-83305468D01*
X122920002Y-83305468D01*
X122976673Y-83300509D01*
X123146692Y-83285635D01*
X123366496Y-83226739D01*
X123572734Y-83130568D01*
X123759139Y-83000047D01*
X123920047Y-82839139D01*
X124050568Y-82652734D01*
X124146739Y-82446496D01*
X124205635Y-82226692D01*
X124225468Y-82000001D01*
X131774532Y-82000001D01*
X131794364Y-82226686D01*
X131794366Y-82226697D01*
X131853258Y-82446488D01*
X131853261Y-82446497D01*
X131949431Y-82652732D01*
X131949432Y-82652734D01*
X132079954Y-82839141D01*
X132240858Y-83000045D01*
X132240861Y-83000047D01*
X132427266Y-83130568D01*
X132633504Y-83226739D01*
X132853308Y-83285635D01*
X133015230Y-83299801D01*
X133079998Y-83305468D01*
X133080000Y-83305468D01*
X133080002Y-83305468D01*
X133136673Y-83300509D01*
X133306692Y-83285635D01*
X133526496Y-83226739D01*
X133732734Y-83130568D01*
X133919139Y-83000047D01*
X134080047Y-82839139D01*
X134210568Y-82652734D01*
X134306739Y-82446496D01*
X134365635Y-82226692D01*
X134385468Y-82000001D01*
X141614532Y-82000001D01*
X141634364Y-82226686D01*
X141634366Y-82226697D01*
X141693258Y-82446488D01*
X141693261Y-82446497D01*
X141789431Y-82652732D01*
X141789432Y-82652734D01*
X141919954Y-82839141D01*
X142080858Y-83000045D01*
X142080861Y-83000047D01*
X142267266Y-83130568D01*
X142473504Y-83226739D01*
X142693308Y-83285635D01*
X142855230Y-83299801D01*
X142919998Y-83305468D01*
X142920000Y-83305468D01*
X142920002Y-83305468D01*
X142976673Y-83300509D01*
X143146692Y-83285635D01*
X143366496Y-83226739D01*
X143572734Y-83130568D01*
X143759139Y-83000047D01*
X143920047Y-82839139D01*
X144050568Y-82652734D01*
X144146739Y-82446496D01*
X144205635Y-82226692D01*
X144225468Y-82000001D01*
X151774532Y-82000001D01*
X151794364Y-82226686D01*
X151794366Y-82226697D01*
X151853258Y-82446488D01*
X151853261Y-82446497D01*
X151949431Y-82652732D01*
X151949432Y-82652734D01*
X152079954Y-82839141D01*
X152240858Y-83000045D01*
X152240861Y-83000047D01*
X152427266Y-83130568D01*
X152633504Y-83226739D01*
X152853308Y-83285635D01*
X153015230Y-83299801D01*
X153079998Y-83305468D01*
X153080000Y-83305468D01*
X153080002Y-83305468D01*
X153136673Y-83300509D01*
X153306692Y-83285635D01*
X153526496Y-83226739D01*
X153732734Y-83130568D01*
X153919139Y-83000047D01*
X154080047Y-82839139D01*
X154210568Y-82652734D01*
X154306739Y-82446496D01*
X154365635Y-82226692D01*
X154385468Y-82000000D01*
X154385459Y-81999901D01*
X154365635Y-81773313D01*
X154365635Y-81773308D01*
X154306739Y-81553504D01*
X154210568Y-81347266D01*
X154080047Y-81160861D01*
X154080045Y-81160858D01*
X153919141Y-80999954D01*
X153732734Y-80869432D01*
X153732732Y-80869431D01*
X153526497Y-80773261D01*
X153526488Y-80773258D01*
X153306697Y-80714366D01*
X153306693Y-80714365D01*
X153306692Y-80714365D01*
X153306691Y-80714364D01*
X153306686Y-80714364D01*
X153080002Y-80694532D01*
X153079998Y-80694532D01*
X152853313Y-80714364D01*
X152853302Y-80714366D01*
X152633511Y-80773258D01*
X152633502Y-80773261D01*
X152427267Y-80869431D01*
X152427265Y-80869432D01*
X152240858Y-80999954D01*
X152079954Y-81160858D01*
X151949432Y-81347265D01*
X151949431Y-81347267D01*
X151853261Y-81553502D01*
X151853258Y-81553511D01*
X151794366Y-81773302D01*
X151794364Y-81773313D01*
X151774532Y-81999998D01*
X151774532Y-82000001D01*
X144225468Y-82000001D01*
X144225468Y-82000000D01*
X144225459Y-81999901D01*
X144205635Y-81773313D01*
X144205635Y-81773308D01*
X144146739Y-81553504D01*
X144050568Y-81347266D01*
X143920047Y-81160861D01*
X143920045Y-81160858D01*
X143759141Y-80999954D01*
X143572734Y-80869432D01*
X143572732Y-80869431D01*
X143366497Y-80773261D01*
X143366488Y-80773258D01*
X143146697Y-80714366D01*
X143146693Y-80714365D01*
X143146692Y-80714365D01*
X143146691Y-80714364D01*
X143146686Y-80714364D01*
X142920002Y-80694532D01*
X142919998Y-80694532D01*
X142693313Y-80714364D01*
X142693302Y-80714366D01*
X142473511Y-80773258D01*
X142473502Y-80773261D01*
X142267267Y-80869431D01*
X142267265Y-80869432D01*
X142080858Y-80999954D01*
X141919954Y-81160858D01*
X141789432Y-81347265D01*
X141789431Y-81347267D01*
X141693261Y-81553502D01*
X141693258Y-81553511D01*
X141634366Y-81773302D01*
X141634364Y-81773313D01*
X141614532Y-81999998D01*
X141614532Y-82000001D01*
X134385468Y-82000001D01*
X134385468Y-82000000D01*
X134385459Y-81999901D01*
X134365635Y-81773313D01*
X134365635Y-81773308D01*
X134306739Y-81553504D01*
X134210568Y-81347266D01*
X134080047Y-81160861D01*
X134080045Y-81160858D01*
X133919141Y-80999954D01*
X133732734Y-80869432D01*
X133732732Y-80869431D01*
X133526497Y-80773261D01*
X133526488Y-80773258D01*
X133306697Y-80714366D01*
X133306693Y-80714365D01*
X133306692Y-80714365D01*
X133306691Y-80714364D01*
X133306686Y-80714364D01*
X133080002Y-80694532D01*
X133079998Y-80694532D01*
X132853313Y-80714364D01*
X132853302Y-80714366D01*
X132633511Y-80773258D01*
X132633502Y-80773261D01*
X132427267Y-80869431D01*
X132427265Y-80869432D01*
X132240858Y-80999954D01*
X132079954Y-81160858D01*
X131949432Y-81347265D01*
X131949431Y-81347267D01*
X131853261Y-81553502D01*
X131853258Y-81553511D01*
X131794366Y-81773302D01*
X131794364Y-81773313D01*
X131774532Y-81999998D01*
X131774532Y-82000001D01*
X124225468Y-82000001D01*
X124225468Y-82000000D01*
X124225459Y-81999901D01*
X124205635Y-81773313D01*
X124205635Y-81773308D01*
X124146739Y-81553504D01*
X124050568Y-81347266D01*
X123920047Y-81160861D01*
X123920045Y-81160858D01*
X123759141Y-80999954D01*
X123572734Y-80869432D01*
X123572732Y-80869431D01*
X123366497Y-80773261D01*
X123366488Y-80773258D01*
X123146697Y-80714366D01*
X123146693Y-80714365D01*
X123146692Y-80714365D01*
X123146691Y-80714364D01*
X123146686Y-80714364D01*
X122920002Y-80694532D01*
X122919998Y-80694532D01*
X122693313Y-80714364D01*
X122693302Y-80714366D01*
X122473511Y-80773258D01*
X122473502Y-80773261D01*
X122267267Y-80869431D01*
X122267265Y-80869432D01*
X122080858Y-80999954D01*
X121919954Y-81160858D01*
X121789432Y-81347265D01*
X121789431Y-81347267D01*
X121693261Y-81553502D01*
X121693258Y-81553511D01*
X121634366Y-81773302D01*
X121634364Y-81773313D01*
X121614532Y-81999998D01*
X121614532Y-82000001D01*
X121298469Y-82000001D01*
X121305468Y-81920000D01*
X121285635Y-81693308D01*
X121226739Y-81473504D01*
X121130568Y-81267266D01*
X121008165Y-81092455D01*
X121000045Y-81080858D01*
X120839141Y-80919954D01*
X120652734Y-80789432D01*
X120652732Y-80789431D01*
X120446497Y-80693261D01*
X120446488Y-80693258D01*
X120226697Y-80634366D01*
X120226693Y-80634365D01*
X120226692Y-80634365D01*
X120226691Y-80634364D01*
X120226686Y-80634364D01*
X120000002Y-80614532D01*
X119999998Y-80614532D01*
X119773313Y-80634364D01*
X119773302Y-80634366D01*
X119553511Y-80693258D01*
X119553502Y-80693261D01*
X119347267Y-80789431D01*
X119347265Y-80789432D01*
X119160858Y-80919954D01*
X118999954Y-81080858D01*
X118869432Y-81267265D01*
X118869431Y-81267267D01*
X118773261Y-81473502D01*
X118773258Y-81473511D01*
X118714366Y-81693302D01*
X118714364Y-81693313D01*
X118694532Y-81919998D01*
X118694532Y-81920001D01*
X117416320Y-81920001D01*
X117393903Y-81836337D01*
X117294035Y-81622171D01*
X117288425Y-81614158D01*
X117158494Y-81428597D01*
X116991402Y-81261506D01*
X116991395Y-81261501D01*
X116797834Y-81125967D01*
X116797830Y-81125965D01*
X116770676Y-81113303D01*
X116583663Y-81026097D01*
X116583659Y-81026096D01*
X116583655Y-81026094D01*
X116355413Y-80964938D01*
X116355403Y-80964936D01*
X116120001Y-80944341D01*
X116119999Y-80944341D01*
X115884596Y-80964936D01*
X115884586Y-80964938D01*
X115656344Y-81026094D01*
X115656335Y-81026098D01*
X115442171Y-81125964D01*
X115442169Y-81125965D01*
X115248597Y-81261505D01*
X115081505Y-81428597D01*
X114951575Y-81614158D01*
X114896998Y-81657783D01*
X114827500Y-81664977D01*
X114765145Y-81633454D01*
X114748425Y-81614158D01*
X114618494Y-81428597D01*
X114451402Y-81261506D01*
X114451395Y-81261501D01*
X114257834Y-81125967D01*
X114257830Y-81125965D01*
X114230676Y-81113303D01*
X114043663Y-81026097D01*
X114043659Y-81026096D01*
X114043655Y-81026094D01*
X113815413Y-80964938D01*
X113815403Y-80964936D01*
X113580001Y-80944341D01*
X113579999Y-80944341D01*
X113344596Y-80964936D01*
X113344586Y-80964938D01*
X113116344Y-81026094D01*
X113116335Y-81026098D01*
X112902171Y-81125964D01*
X112902169Y-81125965D01*
X112708597Y-81261505D01*
X112541505Y-81428597D01*
X112411575Y-81614158D01*
X112356998Y-81657783D01*
X112287500Y-81664977D01*
X112225145Y-81633454D01*
X112208425Y-81614158D01*
X112078494Y-81428597D01*
X111911402Y-81261506D01*
X111911395Y-81261501D01*
X111717834Y-81125967D01*
X111717830Y-81125965D01*
X111690676Y-81113303D01*
X111503663Y-81026097D01*
X111503659Y-81026096D01*
X111503655Y-81026094D01*
X111275413Y-80964938D01*
X111275403Y-80964936D01*
X111040001Y-80944341D01*
X111039999Y-80944341D01*
X110804596Y-80964936D01*
X110804586Y-80964938D01*
X110576344Y-81026094D01*
X110576335Y-81026098D01*
X110362171Y-81125964D01*
X110362169Y-81125965D01*
X110168600Y-81261503D01*
X110046673Y-81383430D01*
X109985350Y-81416914D01*
X109915658Y-81411930D01*
X109859725Y-81370058D01*
X109842810Y-81339081D01*
X109793797Y-81207671D01*
X109793793Y-81207664D01*
X109707547Y-81092455D01*
X109707544Y-81092452D01*
X109592335Y-81006206D01*
X109592328Y-81006202D01*
X109457482Y-80955908D01*
X109457483Y-80955908D01*
X109397883Y-80949501D01*
X109397881Y-80949500D01*
X109397873Y-80949500D01*
X109397864Y-80949500D01*
X107602129Y-80949500D01*
X107602123Y-80949501D01*
X107542516Y-80955908D01*
X107407671Y-81006202D01*
X107407664Y-81006206D01*
X107292455Y-81092452D01*
X107292452Y-81092455D01*
X107206206Y-81207664D01*
X107206202Y-81207671D01*
X107155908Y-81342517D01*
X107149501Y-81402116D01*
X107149500Y-81402135D01*
X107149500Y-83197870D01*
X98669788Y-83197870D01*
X98650130Y-83151610D01*
X98509018Y-82920390D01*
X98507845Y-82918981D01*
X98335746Y-82712180D01*
X98335740Y-82712175D01*
X98134002Y-82531418D01*
X97908092Y-82381957D01*
X97875111Y-82366496D01*
X97662824Y-82266980D01*
X97662819Y-82266978D01*
X97662814Y-82266976D01*
X97403442Y-82188942D01*
X97403428Y-82188939D01*
X97287791Y-82171921D01*
X97135439Y-82149500D01*
X96932369Y-82149500D01*
X96932364Y-82149500D01*
X96729844Y-82164323D01*
X96729831Y-82164325D01*
X96465453Y-82223217D01*
X96465446Y-82223220D01*
X96212439Y-82319987D01*
X95976226Y-82452557D01*
X95761822Y-82618112D01*
X95573822Y-82813109D01*
X95573816Y-82813116D01*
X95416202Y-83033419D01*
X95416199Y-83033424D01*
X95292350Y-83274309D01*
X95292343Y-83274327D01*
X95204884Y-83530685D01*
X95204881Y-83530699D01*
X95155681Y-83797068D01*
X95155680Y-83797075D01*
X95145787Y-84067763D01*
X93000500Y-84067763D01*
X93000500Y-82002035D01*
X93000633Y-81997980D01*
X93002393Y-81971103D01*
X93005989Y-81916244D01*
X93018986Y-81734536D01*
X93020014Y-81726903D01*
X93043153Y-81610579D01*
X93055569Y-81553502D01*
X93074533Y-81466323D01*
X93076392Y-81459625D01*
X93116815Y-81340543D01*
X93166159Y-81208251D01*
X93168633Y-81202520D01*
X93225583Y-81087036D01*
X93292179Y-80965076D01*
X93295019Y-80960384D01*
X93366563Y-80853311D01*
X93368428Y-80850676D01*
X93450291Y-80741321D01*
X93453244Y-80737678D01*
X93538503Y-80640459D01*
X93541198Y-80637581D01*
X93637581Y-80541198D01*
X93640459Y-80538503D01*
X93737678Y-80453244D01*
X93741321Y-80450291D01*
X93850676Y-80368428D01*
X93853311Y-80366563D01*
X93960384Y-80295019D01*
X93965076Y-80292179D01*
X94087036Y-80225583D01*
X94202520Y-80168633D01*
X94208251Y-80166159D01*
X94340543Y-80116815D01*
X94459625Y-80076392D01*
X94466323Y-80074533D01*
X94610579Y-80043153D01*
X94616728Y-80041929D01*
X94726903Y-80020014D01*
X94734536Y-80018986D01*
X94916244Y-80005989D01*
X94969211Y-80002517D01*
X94997981Y-80000633D01*
X95002036Y-80000500D01*
X155997964Y-80000500D01*
X156002019Y-80000633D01*
G37*
%TD.AperFunction*%
%TD*%
M02*
