M48
; DRILL file {KiCad 7.0.2} date Wed Jan 31 21:58:15 2024
; FORMAT={-:-/ absolute / inch / decimal}
; #@! TF.CreationDate,2024-01-31T21:58:15+01:00
; #@! TF.GenerationSoftware,Kicad,Pcbnew,7.0.2
; #@! TF.FileFunction,Plated,1,2,PTH
FMAT,2
INCH
; #@! TA.AperFunction,Plated,PTH,ViaDrill
T1C0.0197
; #@! TA.AperFunction,Plated,PTH,ComponentDrill
T2C0.0315
; #@! TA.AperFunction,Plated,PTH,ComponentDrill
T3C0.0354
; #@! TA.AperFunction,Plated,PTH,ComponentDrill
T4C0.0394
; #@! TA.AperFunction,Plated,PTH,ComponentDrill
T5C0.0591
%
G90
G05
T1
X4.0315Y-3.9291
X4.3622Y-3.6575
X4.3622Y-3.8189
T2
X3.7402Y-3.7008
X3.7402Y-3.7992
X4.8819Y-3.5402
X4.8819Y-3.9402
X4.9181Y-3.2283
X4.9181Y-4.252
X5.3181Y-3.2283
X5.3181Y-4.252
X5.4299Y-3.2283
X5.4299Y-4.252
X5.8299Y-3.2283
X5.8299Y-4.252
X5.9843Y-3.5402
X5.9843Y-3.9402
X6.1417Y-3.5402
X6.1417Y-3.9402
T3
X5.1181Y-3.3744
X5.1181Y-3.4744
X5.1181Y-3.6894
X5.1181Y-3.7894
X5.1181Y-4.0043
X5.1181Y-4.1043
X5.4331Y-3.6894
X5.4331Y-3.7894
X5.748Y-3.3744
X5.748Y-3.4744
X5.748Y-3.6894
X5.748Y-3.7894
X5.748Y-4.0043
X5.748Y-4.1043
T4
X4.4567Y-3.2571
X4.4567Y-4.2232
X4.5567Y-3.2571
X4.5567Y-4.2232
X4.6567Y-3.2571
X4.6567Y-4.2232
X4.7567Y-3.2571
X4.7567Y-4.2232
T5
X4.2126Y-3.4252
X4.2126Y-4.2126
T0
M30
