%TF.GenerationSoftware,KiCad,Pcbnew,7.0.2*%
%TF.CreationDate,2024-01-31T21:45:49+01:00*%
%TF.ProjectId,EDice,45446963-652e-46b6-9963-61645f706362,rev?*%
%TF.SameCoordinates,Original*%
%TF.FileFunction,Copper,L2,Bot*%
%TF.FilePolarity,Positive*%
%FSLAX46Y46*%
G04 Gerber Fmt 4.6, Leading zero omitted, Abs format (unit mm)*
G04 Created by KiCad (PCBNEW 7.0.2) date 2024-01-31 21:45:49*
%MOMM*%
%LPD*%
G01*
G04 APERTURE LIST*
%TA.AperFunction,ComponentPad*%
%ADD10R,1.800000X1.800000*%
%TD*%
%TA.AperFunction,ComponentPad*%
%ADD11C,1.800000*%
%TD*%
%TA.AperFunction,ComponentPad*%
%ADD12C,1.600000*%
%TD*%
%TA.AperFunction,ComponentPad*%
%ADD13O,1.600000X1.600000*%
%TD*%
%TA.AperFunction,ComponentPad*%
%ADD14R,1.700000X1.700000*%
%TD*%
%TA.AperFunction,ComponentPad*%
%ADD15O,1.700000X1.700000*%
%TD*%
%TA.AperFunction,ComponentPad*%
%ADD16C,3.000000*%
%TD*%
%TA.AperFunction,ViaPad*%
%ADD17C,1.300000*%
%TD*%
G04 APERTURE END LIST*
D10*
%TO.P,D3,1,K*%
%TO.N,GND*%
X130000000Y-96250000D03*
D11*
%TO.P,D3,2,A*%
%TO.N,Net-(D3-A)*%
X130000000Y-93710000D03*
%TD*%
D10*
%TO.P,D1,1,K*%
%TO.N,GND*%
X130000000Y-88250000D03*
D11*
%TO.P,D1,2,A*%
%TO.N,Net-(D1-A)*%
X130000000Y-85710000D03*
%TD*%
D10*
%TO.P,D4,1,K*%
%TO.N,GND*%
X138000000Y-96250000D03*
D11*
%TO.P,D4,2,A*%
%TO.N,Net-(D4-A)*%
X138000000Y-93710000D03*
%TD*%
D10*
%TO.P,D2,1,K*%
%TO.N,GND*%
X146000000Y-88250000D03*
D11*
%TO.P,D2,2,A*%
%TO.N,Net-(D2-A)*%
X146000000Y-85710000D03*
%TD*%
D12*
%TO.P,R1,1*%
%TO.N,/LED1*%
X124920000Y-82000000D03*
D13*
%TO.P,R1,2*%
%TO.N,Net-(D1-A)*%
X135080000Y-82000000D03*
%TD*%
D12*
%TO.P,R6,1*%
%TO.N,/LED6*%
X156000000Y-89920000D03*
D13*
%TO.P,R6,2*%
%TO.N,Net-(D6-A)*%
X156000000Y-100080000D03*
%TD*%
D12*
%TO.P,R7,1*%
%TO.N,/LED7*%
X137920000Y-108000000D03*
D13*
%TO.P,R7,2*%
%TO.N,Net-(D7-A)*%
X148080000Y-108000000D03*
%TD*%
D10*
%TO.P,D7,1,K*%
%TO.N,GND*%
X146000000Y-104250000D03*
D11*
%TO.P,D7,2,A*%
%TO.N,Net-(D7-A)*%
X146000000Y-101710000D03*
%TD*%
D12*
%TO.P,R4,1*%
%TO.N,/LED4*%
X152000000Y-100080000D03*
D13*
%TO.P,R4,2*%
%TO.N,Net-(D4-A)*%
X152000000Y-89920000D03*
%TD*%
D10*
%TO.P,D5,1,K*%
%TO.N,GND*%
X130000000Y-104250000D03*
D11*
%TO.P,D5,2,A*%
%TO.N,Net-(D5-A)*%
X130000000Y-101710000D03*
%TD*%
D12*
%TO.P,R2,1*%
%TO.N,/LED2*%
X137920000Y-82000000D03*
D13*
%TO.P,R2,2*%
%TO.N,Net-(D2-A)*%
X148080000Y-82000000D03*
%TD*%
D12*
%TO.P,R3,1*%
%TO.N,/LED3*%
X124000000Y-100080000D03*
D13*
%TO.P,R3,2*%
%TO.N,Net-(D3-A)*%
X124000000Y-89920000D03*
%TD*%
D12*
%TO.P,C1,1*%
%TO.N,+BATT*%
X95000000Y-94000000D03*
%TO.P,C1,2*%
%TO.N,GND*%
X95000000Y-96500000D03*
%TD*%
D10*
%TO.P,D6,1,K*%
%TO.N,GND*%
X146000000Y-96250000D03*
D11*
%TO.P,D6,2,A*%
%TO.N,Net-(D6-A)*%
X146000000Y-93710000D03*
%TD*%
D12*
%TO.P,R5,1*%
%TO.N,/LED5*%
X124920000Y-108000000D03*
D13*
%TO.P,R5,2*%
%TO.N,Net-(D5-A)*%
X135080000Y-108000000D03*
%TD*%
D14*
%TO.P,J2,1,Pin_1*%
%TO.N,/PA5*%
X113200000Y-82730000D03*
D15*
%TO.P,J2,2,Pin_2*%
%TO.N,/PA6*%
X115740000Y-82730000D03*
%TO.P,J2,3,Pin_3*%
%TO.N,/PA7*%
X118280000Y-82730000D03*
%TO.P,J2,4,Pin_4*%
%TO.N,+BATT*%
X120820000Y-82730000D03*
%TD*%
%TO.P,J3,4,Pin_4*%
%TO.N,GND*%
X120820000Y-107270000D03*
%TO.P,J3,3,Pin_3*%
%TO.N,/PA0*%
X118280000Y-107270000D03*
%TO.P,J3,2,Pin_2*%
%TO.N,/PA4*%
X115740000Y-107270000D03*
D14*
%TO.P,J3,1,Pin_1*%
%TO.N,/PA3*%
X113200000Y-107270000D03*
%TD*%
D16*
%TO.P,BT1,1,+*%
%TO.N,+BATT*%
X107000000Y-107000000D03*
%TO.P,BT1,2,-*%
%TO.N,GND*%
X107000000Y-87000000D03*
%TD*%
D17*
%TO.N,GND*%
X102400000Y-99800000D03*
X110800000Y-97000000D03*
X110800000Y-92900000D03*
%TD*%
%TA.AperFunction,Conductor*%
%TO.N,GND*%
G36*
X156006499Y-80000925D02*
G01*
X156083743Y-80005988D01*
X156256920Y-80018375D01*
X156281498Y-80021685D01*
X156389464Y-80043161D01*
X156526153Y-80072897D01*
X156547700Y-80078879D01*
X156656695Y-80115878D01*
X156662095Y-80117801D01*
X156785256Y-80163737D01*
X156803710Y-80171706D01*
X156909254Y-80223755D01*
X156916597Y-80227568D01*
X157029545Y-80289242D01*
X157044717Y-80298428D01*
X157143604Y-80364502D01*
X157152290Y-80370649D01*
X157254392Y-80447082D01*
X157266343Y-80456771D01*
X157307332Y-80492718D01*
X157356131Y-80535513D01*
X157365635Y-80544415D01*
X157455583Y-80634363D01*
X157464485Y-80643867D01*
X157543225Y-80733653D01*
X157552916Y-80745606D01*
X157629349Y-80847708D01*
X157635504Y-80856406D01*
X157701565Y-80955273D01*
X157710761Y-80970462D01*
X157772424Y-81083390D01*
X157776243Y-81090744D01*
X157828292Y-81196288D01*
X157836268Y-81214760D01*
X157882162Y-81337805D01*
X157884148Y-81343383D01*
X157921107Y-81452262D01*
X157927120Y-81473927D01*
X157956847Y-81610579D01*
X157978322Y-81718542D01*
X157981623Y-81743075D01*
X157994017Y-81916350D01*
X157999074Y-81993504D01*
X157999500Y-82006512D01*
X157999500Y-107993483D01*
X157999074Y-108006499D01*
X157994017Y-108083648D01*
X157981626Y-108256898D01*
X157978309Y-108281519D01*
X157956847Y-108389419D01*
X157927107Y-108526129D01*
X157921114Y-108547716D01*
X157884148Y-108656615D01*
X157882162Y-108662193D01*
X157836268Y-108785238D01*
X157828292Y-108803710D01*
X157776243Y-108909254D01*
X157772424Y-108916608D01*
X157710761Y-109029536D01*
X157701565Y-109044725D01*
X157635504Y-109143592D01*
X157629349Y-109152290D01*
X157552916Y-109254392D01*
X157543225Y-109266345D01*
X157464485Y-109356131D01*
X157455583Y-109365635D01*
X157365635Y-109455583D01*
X157356131Y-109464485D01*
X157266345Y-109543225D01*
X157254392Y-109552916D01*
X157152290Y-109629349D01*
X157143592Y-109635504D01*
X157044725Y-109701565D01*
X157029536Y-109710761D01*
X156916608Y-109772424D01*
X156909254Y-109776243D01*
X156803710Y-109828292D01*
X156785238Y-109836268D01*
X156662193Y-109882162D01*
X156656615Y-109884148D01*
X156547736Y-109921107D01*
X156526071Y-109927120D01*
X156389420Y-109956847D01*
X156376231Y-109959470D01*
X156281461Y-109978321D01*
X156256923Y-109981623D01*
X156083649Y-109994017D01*
X156006495Y-109999074D01*
X155993487Y-109999500D01*
X95006517Y-109999500D01*
X94993501Y-109999074D01*
X94916351Y-109994017D01*
X94743100Y-109981626D01*
X94718479Y-109978309D01*
X94610580Y-109956847D01*
X94596781Y-109953845D01*
X94473865Y-109927106D01*
X94452282Y-109921114D01*
X94343383Y-109884148D01*
X94337828Y-109882170D01*
X94255443Y-109851442D01*
X94214760Y-109836268D01*
X94196288Y-109828292D01*
X94090744Y-109776243D01*
X94083390Y-109772424D01*
X93970462Y-109710761D01*
X93955273Y-109701565D01*
X93856406Y-109635504D01*
X93847708Y-109629349D01*
X93745606Y-109552916D01*
X93733653Y-109543225D01*
X93643867Y-109464485D01*
X93634363Y-109455583D01*
X93544415Y-109365635D01*
X93535513Y-109356131D01*
X93456773Y-109266345D01*
X93447082Y-109254392D01*
X93370649Y-109152290D01*
X93364502Y-109143604D01*
X93298428Y-109044717D01*
X93289242Y-109029545D01*
X93227568Y-108916597D01*
X93223755Y-108909254D01*
X93171706Y-108803710D01*
X93163737Y-108785256D01*
X93117801Y-108662095D01*
X93115878Y-108656695D01*
X93078885Y-108547716D01*
X93072883Y-108526089D01*
X93043157Y-108389441D01*
X93021672Y-108281428D01*
X93018375Y-108256922D01*
X93005988Y-108083743D01*
X93000924Y-108006473D01*
X93000500Y-107993490D01*
X93000500Y-106067764D01*
X95145787Y-106067764D01*
X95163804Y-106231502D01*
X95175414Y-106337018D01*
X95191514Y-106398600D01*
X95242119Y-106592171D01*
X95243928Y-106599088D01*
X95349870Y-106848390D01*
X95349871Y-106848391D01*
X95490980Y-107079608D01*
X95490982Y-107079610D01*
X95664255Y-107287820D01*
X95845017Y-107449783D01*
X95865999Y-107468583D01*
X96091908Y-107618043D01*
X96091910Y-107618044D01*
X96337176Y-107733020D01*
X96482628Y-107776780D01*
X96596569Y-107811060D01*
X96864558Y-107850500D01*
X96864561Y-107850500D01*
X97063999Y-107850500D01*
X97067631Y-107850500D01*
X97270156Y-107835677D01*
X97534553Y-107776780D01*
X97787558Y-107680014D01*
X98023777Y-107547441D01*
X98238177Y-107381888D01*
X98426186Y-107186881D01*
X98559889Y-106999999D01*
X104994390Y-106999999D01*
X105014803Y-107285429D01*
X105073966Y-107557393D01*
X105075631Y-107565046D01*
X105175633Y-107833161D01*
X105312774Y-108084315D01*
X105484261Y-108313395D01*
X105686605Y-108515739D01*
X105915685Y-108687226D01*
X106166839Y-108824367D01*
X106434954Y-108924369D01*
X106574763Y-108954782D01*
X106714570Y-108985196D01*
X106750288Y-108987750D01*
X107000000Y-109005610D01*
X107266377Y-108986558D01*
X107285429Y-108985196D01*
X107355332Y-108969989D01*
X107565046Y-108924369D01*
X107833161Y-108824367D01*
X108084315Y-108687226D01*
X108313395Y-108515739D01*
X108515739Y-108313395D01*
X108628656Y-108162556D01*
X111849500Y-108162556D01*
X111849501Y-108167872D01*
X111850071Y-108173173D01*
X111855909Y-108227484D01*
X111897973Y-108340262D01*
X111906204Y-108362331D01*
X111992454Y-108477546D01*
X112107669Y-108563796D01*
X112242517Y-108614091D01*
X112302127Y-108620500D01*
X114097872Y-108620499D01*
X114157483Y-108614091D01*
X114292331Y-108563796D01*
X114407546Y-108477546D01*
X114493796Y-108362331D01*
X114502028Y-108340257D01*
X114550664Y-108266250D01*
X114626598Y-108220670D01*
X114714788Y-108212551D01*
X114797768Y-108243500D01*
X114829194Y-108269090D01*
X114868599Y-108308495D01*
X115062170Y-108444035D01*
X115276337Y-108543903D01*
X115350580Y-108563796D01*
X115504587Y-108605062D01*
X115504588Y-108605062D01*
X115504592Y-108605063D01*
X115740000Y-108625659D01*
X115975408Y-108605063D01*
X115991938Y-108600634D01*
X116002374Y-108597837D01*
X116203663Y-108543903D01*
X116417830Y-108444035D01*
X116611401Y-108308495D01*
X116778495Y-108141401D01*
X116846989Y-108043580D01*
X116912656Y-107984157D01*
X116997604Y-107959109D01*
X117085007Y-107973400D01*
X117157553Y-108024198D01*
X117173008Y-108043577D01*
X117241505Y-108141401D01*
X117408599Y-108308495D01*
X117602170Y-108444035D01*
X117816337Y-108543903D01*
X117890580Y-108563796D01*
X118044587Y-108605062D01*
X118044588Y-108605062D01*
X118044592Y-108605063D01*
X118280000Y-108625659D01*
X118515408Y-108605063D01*
X118531938Y-108600634D01*
X118542374Y-108597837D01*
X118743663Y-108543903D01*
X118957830Y-108444035D01*
X119151401Y-108308495D01*
X119318495Y-108141401D01*
X119387297Y-108043140D01*
X119452960Y-107983720D01*
X119537908Y-107958673D01*
X119625310Y-107972962D01*
X119697858Y-108023760D01*
X119713316Y-108043144D01*
X119781891Y-108141079D01*
X119948920Y-108308108D01*
X120142422Y-108443600D01*
X120356509Y-108543431D01*
X120569999Y-108600635D01*
X120570000Y-108600634D01*
X120570000Y-107705501D01*
X120677685Y-107754680D01*
X120784237Y-107770000D01*
X120855763Y-107770000D01*
X120962315Y-107754680D01*
X121070000Y-107705501D01*
X121070000Y-108600635D01*
X121283490Y-108543431D01*
X121497577Y-108443600D01*
X121691079Y-108308108D01*
X121858108Y-108141079D01*
X121956893Y-108000000D01*
X123614532Y-108000000D01*
X123634365Y-108226694D01*
X123693260Y-108446493D01*
X123693261Y-108446496D01*
X123789432Y-108652734D01*
X123919953Y-108839139D01*
X124080861Y-109000047D01*
X124267266Y-109130568D01*
X124473504Y-109226739D01*
X124693308Y-109285635D01*
X124920000Y-109305468D01*
X125146692Y-109285635D01*
X125366496Y-109226739D01*
X125572734Y-109130568D01*
X125759139Y-109000047D01*
X125920047Y-108839139D01*
X126050568Y-108652734D01*
X126146739Y-108446496D01*
X126205635Y-108226692D01*
X126225468Y-108000000D01*
X133774532Y-108000000D01*
X133794365Y-108226694D01*
X133853260Y-108446493D01*
X133853261Y-108446496D01*
X133949432Y-108652734D01*
X134079953Y-108839139D01*
X134240861Y-109000047D01*
X134427266Y-109130568D01*
X134633504Y-109226739D01*
X134853308Y-109285635D01*
X135080000Y-109305468D01*
X135306692Y-109285635D01*
X135526496Y-109226739D01*
X135732734Y-109130568D01*
X135919139Y-109000047D01*
X136080047Y-108839139D01*
X136210568Y-108652734D01*
X136306739Y-108446496D01*
X136307781Y-108442605D01*
X136349163Y-108364308D01*
X136420420Y-108311717D01*
X136507439Y-108295251D01*
X136592985Y-108318172D01*
X136660114Y-108375941D01*
X136692218Y-108442604D01*
X136693261Y-108446496D01*
X136789432Y-108652734D01*
X136919953Y-108839139D01*
X137080861Y-109000047D01*
X137267266Y-109130568D01*
X137473504Y-109226739D01*
X137693308Y-109285635D01*
X137920000Y-109305468D01*
X138146692Y-109285635D01*
X138366496Y-109226739D01*
X138572734Y-109130568D01*
X138759139Y-109000047D01*
X138920047Y-108839139D01*
X139050568Y-108652734D01*
X139146739Y-108446496D01*
X139205635Y-108226692D01*
X139225468Y-108000000D01*
X146774532Y-108000000D01*
X146794365Y-108226694D01*
X146853260Y-108446493D01*
X146853261Y-108446496D01*
X146949432Y-108652734D01*
X147079953Y-108839139D01*
X147240861Y-109000047D01*
X147427266Y-109130568D01*
X147633504Y-109226739D01*
X147853308Y-109285635D01*
X148080000Y-109305468D01*
X148306692Y-109285635D01*
X148526496Y-109226739D01*
X148732734Y-109130568D01*
X148919139Y-109000047D01*
X149080047Y-108839139D01*
X149210568Y-108652734D01*
X149306739Y-108446496D01*
X149365635Y-108226692D01*
X149385468Y-108000000D01*
X149365635Y-107773308D01*
X149306739Y-107553504D01*
X149210568Y-107347266D01*
X149080047Y-107160861D01*
X148919139Y-106999953D01*
X148732734Y-106869432D01*
X148526496Y-106773261D01*
X148526493Y-106773260D01*
X148306694Y-106714365D01*
X148080000Y-106694532D01*
X147853305Y-106714365D01*
X147633506Y-106773260D01*
X147427266Y-106869432D01*
X147240858Y-106999955D01*
X147079955Y-107160858D01*
X146949432Y-107347266D01*
X146853260Y-107553506D01*
X146794365Y-107773305D01*
X146774532Y-108000000D01*
X139225468Y-108000000D01*
X139205635Y-107773308D01*
X139146739Y-107553504D01*
X139050568Y-107347266D01*
X138920047Y-107160861D01*
X138759139Y-106999953D01*
X138572734Y-106869432D01*
X138366496Y-106773261D01*
X138366493Y-106773260D01*
X138146694Y-106714365D01*
X137920000Y-106694532D01*
X137693305Y-106714365D01*
X137473506Y-106773260D01*
X137267266Y-106869432D01*
X137080858Y-106999955D01*
X136919955Y-107160858D01*
X136789432Y-107347266D01*
X136693260Y-107553505D01*
X136692219Y-107557393D01*
X136650836Y-107635693D01*
X136579578Y-107688283D01*
X136492558Y-107704748D01*
X136407013Y-107681825D01*
X136339884Y-107624056D01*
X136307781Y-107557393D01*
X136306739Y-107553504D01*
X136210568Y-107347266D01*
X136080047Y-107160861D01*
X135919139Y-106999953D01*
X135732734Y-106869432D01*
X135526496Y-106773261D01*
X135526493Y-106773260D01*
X135306694Y-106714365D01*
X135080000Y-106694532D01*
X134853305Y-106714365D01*
X134633506Y-106773260D01*
X134427266Y-106869432D01*
X134240858Y-106999955D01*
X134079955Y-107160858D01*
X133949432Y-107347266D01*
X133853260Y-107553506D01*
X133794365Y-107773305D01*
X133774532Y-108000000D01*
X126225468Y-108000000D01*
X126205635Y-107773308D01*
X126146739Y-107553504D01*
X126050568Y-107347266D01*
X125920047Y-107160861D01*
X125759139Y-106999953D01*
X125572734Y-106869432D01*
X125366496Y-106773261D01*
X125366493Y-106773260D01*
X125146694Y-106714365D01*
X124920000Y-106694532D01*
X124693305Y-106714365D01*
X124473506Y-106773260D01*
X124267266Y-106869432D01*
X124080858Y-106999955D01*
X123919955Y-107160858D01*
X123789432Y-107347266D01*
X123693260Y-107553506D01*
X123634365Y-107773305D01*
X123614532Y-108000000D01*
X121956893Y-108000000D01*
X121993600Y-107947577D01*
X122093431Y-107733490D01*
X122150636Y-107520000D01*
X121253686Y-107520000D01*
X121279493Y-107479844D01*
X121320000Y-107341889D01*
X121320000Y-107198111D01*
X121279493Y-107060156D01*
X121253686Y-107020000D01*
X122150636Y-107020000D01*
X122150636Y-107019999D01*
X122093431Y-106806511D01*
X121993599Y-106592421D01*
X121858108Y-106398920D01*
X121691079Y-106231891D01*
X121497577Y-106096399D01*
X121436169Y-106067764D01*
X152145787Y-106067764D01*
X152163804Y-106231502D01*
X152175414Y-106337018D01*
X152191514Y-106398600D01*
X152242119Y-106592171D01*
X152243928Y-106599088D01*
X152349870Y-106848390D01*
X152349871Y-106848391D01*
X152490980Y-107079608D01*
X152490982Y-107079610D01*
X152664255Y-107287820D01*
X152845018Y-107449783D01*
X152865999Y-107468583D01*
X153091908Y-107618043D01*
X153091910Y-107618044D01*
X153337176Y-107733020D01*
X153482628Y-107776780D01*
X153596569Y-107811060D01*
X153864558Y-107850500D01*
X153864561Y-107850500D01*
X154063999Y-107850500D01*
X154067631Y-107850500D01*
X154270156Y-107835677D01*
X154534553Y-107776780D01*
X154787558Y-107680014D01*
X155023777Y-107547441D01*
X155238177Y-107381888D01*
X155426186Y-107186881D01*
X155583799Y-106966579D01*
X155707656Y-106725675D01*
X155795118Y-106469305D01*
X155844319Y-106202933D01*
X155854212Y-105932235D01*
X155824586Y-105662982D01*
X155756072Y-105400912D01*
X155650130Y-105151610D01*
X155509018Y-104920390D01*
X155335745Y-104712180D01*
X155134002Y-104531418D01*
X155134000Y-104531416D01*
X154908091Y-104381956D01*
X154662822Y-104266979D01*
X154403430Y-104188939D01*
X154135442Y-104149500D01*
X154135439Y-104149500D01*
X153932369Y-104149500D01*
X153928751Y-104149764D01*
X153928745Y-104149765D01*
X153729844Y-104164322D01*
X153465445Y-104223220D01*
X153212443Y-104319985D01*
X152976221Y-104452559D01*
X152761821Y-104618112D01*
X152573817Y-104813115D01*
X152573814Y-104813118D01*
X152573814Y-104813119D01*
X152429521Y-105014804D01*
X152416199Y-105033424D01*
X152292342Y-105274327D01*
X152204883Y-105530690D01*
X152155680Y-105797069D01*
X152145787Y-106067764D01*
X121436169Y-106067764D01*
X121283490Y-105996568D01*
X121070000Y-105939363D01*
X121070000Y-106834498D01*
X120962315Y-106785320D01*
X120855763Y-106770000D01*
X120784237Y-106770000D01*
X120677685Y-106785320D01*
X120570000Y-106834498D01*
X120570000Y-105939363D01*
X120569999Y-105939363D01*
X120356511Y-105996568D01*
X120142421Y-106096400D01*
X119948920Y-106231891D01*
X119781893Y-106398918D01*
X119713316Y-106496856D01*
X119647648Y-106556280D01*
X119562700Y-106581327D01*
X119475297Y-106567036D01*
X119402751Y-106516237D01*
X119387294Y-106496854D01*
X119318496Y-106398600D01*
X119151402Y-106231506D01*
X119151398Y-106231503D01*
X118957830Y-106095965D01*
X118743663Y-105996097D01*
X118743661Y-105996096D01*
X118515412Y-105934937D01*
X118280000Y-105914341D01*
X118044587Y-105934937D01*
X117816340Y-105996095D01*
X117602167Y-106095967D01*
X117408600Y-106231503D01*
X117241506Y-106398597D01*
X117173011Y-106496419D01*
X117107344Y-106555843D01*
X117022396Y-106580891D01*
X116934993Y-106566600D01*
X116862447Y-106515802D01*
X116846989Y-106496419D01*
X116828006Y-106469309D01*
X116778495Y-106398599D01*
X116611401Y-106231505D01*
X116417830Y-106095965D01*
X116203663Y-105996097D01*
X116203661Y-105996096D01*
X115975412Y-105934937D01*
X115740000Y-105914341D01*
X115504587Y-105934937D01*
X115276340Y-105996095D01*
X115062167Y-106095967D01*
X114868602Y-106231502D01*
X114829193Y-106270911D01*
X114754204Y-106318028D01*
X114666197Y-106327944D01*
X114582604Y-106298692D01*
X114519981Y-106236068D01*
X114502027Y-106199738D01*
X114493796Y-106177669D01*
X114407546Y-106062454D01*
X114292331Y-105976204D01*
X114292330Y-105976203D01*
X114157484Y-105925909D01*
X114103170Y-105920069D01*
X114103160Y-105920068D01*
X114097873Y-105919500D01*
X114092542Y-105919500D01*
X112307461Y-105919500D01*
X112307442Y-105919500D01*
X112302128Y-105919501D01*
X112296825Y-105920071D01*
X112296826Y-105920071D01*
X112242515Y-105925909D01*
X112107670Y-105976203D01*
X111992454Y-106062454D01*
X111906203Y-106177669D01*
X111855909Y-106312515D01*
X111850069Y-106366829D01*
X111850068Y-106366840D01*
X111849500Y-106372127D01*
X111849500Y-106377456D01*
X111849500Y-106377457D01*
X111849500Y-108162538D01*
X111849500Y-108162556D01*
X108628656Y-108162556D01*
X108687226Y-108084315D01*
X108824367Y-107833161D01*
X108924369Y-107565046D01*
X108985196Y-107285428D01*
X109005610Y-107000000D01*
X108985196Y-106714572D01*
X108924369Y-106434954D01*
X108824367Y-106166839D01*
X108687226Y-105915685D01*
X108515739Y-105686605D01*
X108313395Y-105484261D01*
X108084315Y-105312774D01*
X107833161Y-105175633D01*
X107565046Y-105075631D01*
X107565045Y-105075630D01*
X107565043Y-105075630D01*
X107285429Y-105014803D01*
X107017858Y-104995667D01*
X107000000Y-104994390D01*
X106999999Y-104994390D01*
X106714570Y-105014803D01*
X106434956Y-105075630D01*
X106166838Y-105175633D01*
X105915685Y-105312774D01*
X105686602Y-105484263D01*
X105484263Y-105686602D01*
X105312774Y-105915685D01*
X105175633Y-106166838D01*
X105075630Y-106434956D01*
X105014803Y-106714570D01*
X104994390Y-106999999D01*
X98559889Y-106999999D01*
X98583799Y-106966579D01*
X98707656Y-106725675D01*
X98795118Y-106469305D01*
X98844319Y-106202933D01*
X98854212Y-105932235D01*
X98824586Y-105662982D01*
X98756072Y-105400912D01*
X98650130Y-105151610D01*
X98509018Y-104920390D01*
X98335745Y-104712180D01*
X98134002Y-104531418D01*
X98134000Y-104531416D01*
X97908091Y-104381956D01*
X97662822Y-104266979D01*
X97403430Y-104188939D01*
X97135442Y-104149500D01*
X97135439Y-104149500D01*
X96932369Y-104149500D01*
X96928751Y-104149764D01*
X96928745Y-104149765D01*
X96729844Y-104164322D01*
X96465445Y-104223220D01*
X96212443Y-104319985D01*
X95976221Y-104452559D01*
X95761821Y-104618112D01*
X95573817Y-104813115D01*
X95573814Y-104813118D01*
X95573814Y-104813119D01*
X95429521Y-105014804D01*
X95416199Y-105033424D01*
X95292342Y-105274327D01*
X95204883Y-105530690D01*
X95155680Y-105797069D01*
X95145787Y-106067764D01*
X93000500Y-106067764D01*
X93000500Y-101709999D01*
X128594699Y-101709999D01*
X128613864Y-101941300D01*
X128670843Y-102166300D01*
X128764076Y-102378849D01*
X128891021Y-102573153D01*
X128910608Y-102594430D01*
X128954587Y-102671302D01*
X128960857Y-102759643D01*
X128928177Y-102841956D01*
X128879067Y-102887163D01*
X128880817Y-102889500D01*
X128742811Y-102992811D01*
X128656646Y-103107912D01*
X128606402Y-103242622D01*
X128600569Y-103296873D01*
X128600000Y-103307502D01*
X128600000Y-104000000D01*
X129624722Y-104000000D01*
X129576375Y-104083740D01*
X129546190Y-104215992D01*
X129556327Y-104351265D01*
X129605887Y-104477541D01*
X129623797Y-104500000D01*
X128600000Y-104500000D01*
X128600000Y-105192497D01*
X128600569Y-105203126D01*
X128606402Y-105257377D01*
X128656646Y-105392087D01*
X128742811Y-105507188D01*
X128857912Y-105593353D01*
X128992622Y-105643597D01*
X129046873Y-105649430D01*
X129057503Y-105650000D01*
X129750000Y-105650000D01*
X129750000Y-104624189D01*
X129802547Y-104660016D01*
X129932173Y-104700000D01*
X130033724Y-104700000D01*
X130134138Y-104684865D01*
X130249999Y-104629068D01*
X130249999Y-105649999D01*
X130250000Y-105650000D01*
X130942497Y-105650000D01*
X130953126Y-105649430D01*
X131007377Y-105643597D01*
X131142087Y-105593353D01*
X131257188Y-105507188D01*
X131343353Y-105392087D01*
X131393597Y-105257377D01*
X131399430Y-105203126D01*
X131400000Y-105192497D01*
X131400000Y-104500000D01*
X130375278Y-104500000D01*
X130423625Y-104416260D01*
X130453810Y-104284008D01*
X130443673Y-104148735D01*
X130394113Y-104022459D01*
X130376203Y-104000000D01*
X131400000Y-104000000D01*
X131400000Y-103307502D01*
X131399430Y-103296873D01*
X131393597Y-103242622D01*
X131343353Y-103107912D01*
X131257188Y-102992811D01*
X131119183Y-102889500D01*
X131121579Y-102886298D01*
X131092231Y-102867007D01*
X131046660Y-102791068D01*
X131038551Y-102702876D01*
X131069510Y-102619900D01*
X131089392Y-102594430D01*
X131108979Y-102573153D01*
X131235924Y-102378849D01*
X131329157Y-102166300D01*
X131386134Y-101941305D01*
X131386134Y-101941303D01*
X131386135Y-101941300D01*
X131405300Y-101709999D01*
X144594699Y-101709999D01*
X144613864Y-101941300D01*
X144670843Y-102166300D01*
X144764076Y-102378849D01*
X144891021Y-102573153D01*
X144910608Y-102594430D01*
X144954587Y-102671302D01*
X144960857Y-102759643D01*
X144928177Y-102841956D01*
X144879067Y-102887163D01*
X144880817Y-102889500D01*
X144742811Y-102992811D01*
X144656646Y-103107912D01*
X144606402Y-103242622D01*
X144600569Y-103296873D01*
X144600000Y-103307502D01*
X144600000Y-104000000D01*
X145624722Y-104000000D01*
X145576375Y-104083740D01*
X145546190Y-104215992D01*
X145556327Y-104351265D01*
X145605887Y-104477541D01*
X145623797Y-104500000D01*
X144600000Y-104500000D01*
X144600000Y-105192497D01*
X144600569Y-105203126D01*
X144606402Y-105257377D01*
X144656646Y-105392087D01*
X144742811Y-105507188D01*
X144857912Y-105593353D01*
X144992622Y-105643597D01*
X145046873Y-105649430D01*
X145057503Y-105650000D01*
X145750000Y-105650000D01*
X145750000Y-104624189D01*
X145802547Y-104660016D01*
X145932173Y-104700000D01*
X146033724Y-104700000D01*
X146134138Y-104684865D01*
X146250000Y-104629068D01*
X146250000Y-105650000D01*
X146942497Y-105650000D01*
X146953126Y-105649430D01*
X147007377Y-105643597D01*
X147142087Y-105593353D01*
X147257188Y-105507188D01*
X147343353Y-105392087D01*
X147393597Y-105257377D01*
X147399430Y-105203126D01*
X147400000Y-105192497D01*
X147400000Y-104500000D01*
X146375278Y-104500000D01*
X146423625Y-104416260D01*
X146453810Y-104284008D01*
X146443673Y-104148735D01*
X146394113Y-104022459D01*
X146376203Y-104000000D01*
X147400000Y-104000000D01*
X147400000Y-103307502D01*
X147399430Y-103296873D01*
X147393597Y-103242622D01*
X147343353Y-103107912D01*
X147257188Y-102992811D01*
X147119183Y-102889500D01*
X147121579Y-102886298D01*
X147092231Y-102867007D01*
X147046660Y-102791068D01*
X147038551Y-102702876D01*
X147069510Y-102619900D01*
X147089392Y-102594430D01*
X147108979Y-102573153D01*
X147235924Y-102378849D01*
X147329157Y-102166300D01*
X147386134Y-101941305D01*
X147386134Y-101941303D01*
X147386135Y-101941300D01*
X147405300Y-101709999D01*
X147386135Y-101478699D01*
X147357503Y-101365635D01*
X147329157Y-101253700D01*
X147235924Y-101041151D01*
X147108979Y-100846847D01*
X146951784Y-100676087D01*
X146951779Y-100676083D01*
X146768625Y-100533528D01*
X146564503Y-100423064D01*
X146344983Y-100347702D01*
X146116049Y-100309500D01*
X145883951Y-100309500D01*
X145655016Y-100347702D01*
X145435496Y-100423064D01*
X145231374Y-100533528D01*
X145048220Y-100676083D01*
X145048217Y-100676086D01*
X145048216Y-100676087D01*
X144891021Y-100846847D01*
X144891019Y-100846849D01*
X144891019Y-100846850D01*
X144764076Y-101041150D01*
X144670843Y-101253699D01*
X144613864Y-101478699D01*
X144594699Y-101709999D01*
X131405300Y-101709999D01*
X131386135Y-101478699D01*
X131357503Y-101365635D01*
X131329157Y-101253700D01*
X131235924Y-101041151D01*
X131108979Y-100846847D01*
X130951784Y-100676087D01*
X130951779Y-100676083D01*
X130768625Y-100533528D01*
X130564503Y-100423064D01*
X130344983Y-100347702D01*
X130116049Y-100309500D01*
X129883951Y-100309500D01*
X129655016Y-100347702D01*
X129435496Y-100423064D01*
X129231374Y-100533528D01*
X129048220Y-100676083D01*
X129048217Y-100676086D01*
X129048216Y-100676087D01*
X128891021Y-100846847D01*
X128891019Y-100846849D01*
X128891019Y-100846850D01*
X128764076Y-101041150D01*
X128670843Y-101253699D01*
X128613864Y-101478699D01*
X128594699Y-101709999D01*
X93000500Y-101709999D01*
X93000500Y-100080000D01*
X122694532Y-100080000D01*
X122714365Y-100306694D01*
X122773260Y-100526493D01*
X122773261Y-100526496D01*
X122869432Y-100732734D01*
X122999953Y-100919139D01*
X123160861Y-101080047D01*
X123347266Y-101210568D01*
X123553504Y-101306739D01*
X123773308Y-101365635D01*
X124000000Y-101385468D01*
X124226692Y-101365635D01*
X124446496Y-101306739D01*
X124652734Y-101210568D01*
X124839139Y-101080047D01*
X125000047Y-100919139D01*
X125130568Y-100732734D01*
X125226739Y-100526496D01*
X125285635Y-100306692D01*
X125305468Y-100080000D01*
X150694532Y-100080000D01*
X150714365Y-100306694D01*
X150773260Y-100526493D01*
X150773261Y-100526496D01*
X150869432Y-100732734D01*
X150999953Y-100919139D01*
X151160861Y-101080047D01*
X151347266Y-101210568D01*
X151553504Y-101306739D01*
X151773308Y-101365635D01*
X152000000Y-101385468D01*
X152226692Y-101365635D01*
X152446496Y-101306739D01*
X152652734Y-101210568D01*
X152839139Y-101080047D01*
X153000047Y-100919139D01*
X153130568Y-100732734D01*
X153226739Y-100526496D01*
X153285635Y-100306692D01*
X153305468Y-100080000D01*
X154694532Y-100080000D01*
X154714365Y-100306694D01*
X154773260Y-100526493D01*
X154773261Y-100526496D01*
X154869432Y-100732734D01*
X154999953Y-100919139D01*
X155160861Y-101080047D01*
X155347266Y-101210568D01*
X155553504Y-101306739D01*
X155773308Y-101365635D01*
X156000000Y-101385468D01*
X156226692Y-101365635D01*
X156446496Y-101306739D01*
X156652734Y-101210568D01*
X156839139Y-101080047D01*
X157000047Y-100919139D01*
X157130568Y-100732734D01*
X157226739Y-100526496D01*
X157285635Y-100306692D01*
X157305468Y-100080000D01*
X157285635Y-99853308D01*
X157226739Y-99633504D01*
X157130568Y-99427266D01*
X157000047Y-99240861D01*
X156839139Y-99079953D01*
X156652734Y-98949432D01*
X156446496Y-98853261D01*
X156446493Y-98853260D01*
X156226694Y-98794365D01*
X156000000Y-98774532D01*
X155773305Y-98794365D01*
X155553506Y-98853260D01*
X155347266Y-98949432D01*
X155160858Y-99079955D01*
X154999955Y-99240858D01*
X154869432Y-99427266D01*
X154773260Y-99633506D01*
X154714365Y-99853305D01*
X154694532Y-100080000D01*
X153305468Y-100080000D01*
X153285635Y-99853308D01*
X153226739Y-99633504D01*
X153130568Y-99427266D01*
X153000047Y-99240861D01*
X152839139Y-99079953D01*
X152652734Y-98949432D01*
X152446496Y-98853261D01*
X152446493Y-98853260D01*
X152226694Y-98794365D01*
X152000000Y-98774532D01*
X151773305Y-98794365D01*
X151553506Y-98853260D01*
X151347266Y-98949432D01*
X151160858Y-99079955D01*
X150999955Y-99240858D01*
X150869432Y-99427266D01*
X150773260Y-99633506D01*
X150714365Y-99853305D01*
X150694532Y-100080000D01*
X125305468Y-100080000D01*
X125285635Y-99853308D01*
X125226739Y-99633504D01*
X125130568Y-99427266D01*
X125000047Y-99240861D01*
X124839139Y-99079953D01*
X124652734Y-98949432D01*
X124446496Y-98853261D01*
X124446493Y-98853260D01*
X124226694Y-98794365D01*
X124000000Y-98774532D01*
X123773305Y-98794365D01*
X123553506Y-98853260D01*
X123347266Y-98949432D01*
X123160858Y-99079955D01*
X122999955Y-99240858D01*
X122869432Y-99427266D01*
X122773260Y-99633506D01*
X122714365Y-99853305D01*
X122694532Y-100080000D01*
X93000500Y-100080000D01*
X93000500Y-94000000D01*
X93694532Y-94000000D01*
X93714365Y-94226694D01*
X93755135Y-94378849D01*
X93773261Y-94446496D01*
X93869432Y-94652734D01*
X93999953Y-94839139D01*
X94160861Y-95000047D01*
X94285463Y-95087294D01*
X94344887Y-95152959D01*
X94369934Y-95237907D01*
X94355644Y-95325310D01*
X94304847Y-95397857D01*
X94285462Y-95413316D01*
X94274527Y-95420972D01*
X94274527Y-95420974D01*
X94955598Y-96102046D01*
X94874852Y-96114835D01*
X94761955Y-96172359D01*
X94672359Y-96261955D01*
X94614835Y-96374852D01*
X94602046Y-96455599D01*
X93920974Y-95774527D01*
X93920972Y-95774527D01*
X93869865Y-95847516D01*
X93773732Y-96053674D01*
X93714859Y-96273392D01*
X93695034Y-96500000D01*
X93714859Y-96726607D01*
X93773733Y-96946325D01*
X93869864Y-97152481D01*
X93920972Y-97225471D01*
X93920974Y-97225472D01*
X94602046Y-96544399D01*
X94614835Y-96625148D01*
X94672359Y-96738045D01*
X94761955Y-96827641D01*
X94874852Y-96885165D01*
X94955599Y-96897953D01*
X94274527Y-97579025D01*
X94274527Y-97579026D01*
X94347514Y-97630132D01*
X94553674Y-97726267D01*
X94773392Y-97785140D01*
X94999999Y-97804965D01*
X95226607Y-97785140D01*
X95446325Y-97726267D01*
X95652483Y-97630134D01*
X95725471Y-97579026D01*
X95725471Y-97579025D01*
X95044401Y-96897953D01*
X95125148Y-96885165D01*
X95238045Y-96827641D01*
X95327641Y-96738045D01*
X95385165Y-96625148D01*
X95397953Y-96544400D01*
X96079025Y-97225471D01*
X96079026Y-97225471D01*
X96130134Y-97152483D01*
X96226267Y-96946325D01*
X96285140Y-96726607D01*
X96304965Y-96499999D01*
X96285140Y-96273392D01*
X96226267Y-96053674D01*
X96130132Y-95847514D01*
X96079026Y-95774527D01*
X96079025Y-95774527D01*
X95397953Y-96455599D01*
X95385165Y-96374852D01*
X95327641Y-96261955D01*
X95238045Y-96172359D01*
X95125148Y-96114835D01*
X95044399Y-96102045D01*
X95725472Y-95420973D01*
X95725471Y-95420972D01*
X95714537Y-95413316D01*
X95655112Y-95347648D01*
X95630065Y-95262701D01*
X95644355Y-95175298D01*
X95695152Y-95102751D01*
X95714530Y-95087298D01*
X95839139Y-95000047D01*
X96000047Y-94839139D01*
X96130568Y-94652734D01*
X96226739Y-94446496D01*
X96285635Y-94226692D01*
X96305468Y-94000000D01*
X96285635Y-93773308D01*
X96268671Y-93709999D01*
X128594699Y-93709999D01*
X128613864Y-93941300D01*
X128670843Y-94166300D01*
X128764076Y-94378849D01*
X128891021Y-94573153D01*
X128910608Y-94594430D01*
X128954587Y-94671302D01*
X128960857Y-94759643D01*
X128928177Y-94841956D01*
X128879067Y-94887163D01*
X128880817Y-94889500D01*
X128742811Y-94992811D01*
X128656646Y-95107912D01*
X128606402Y-95242622D01*
X128600569Y-95296873D01*
X128600000Y-95307502D01*
X128600000Y-96000000D01*
X129624722Y-96000000D01*
X129576375Y-96083740D01*
X129546190Y-96215992D01*
X129556327Y-96351265D01*
X129605887Y-96477541D01*
X129623797Y-96500000D01*
X128600000Y-96500000D01*
X128600000Y-97192497D01*
X128600569Y-97203126D01*
X128606402Y-97257377D01*
X128656646Y-97392087D01*
X128742811Y-97507188D01*
X128857912Y-97593353D01*
X128992622Y-97643597D01*
X129046873Y-97649430D01*
X129057503Y-97650000D01*
X129750000Y-97650000D01*
X129750000Y-96624189D01*
X129802547Y-96660016D01*
X129932173Y-96700000D01*
X130033724Y-96700000D01*
X130134138Y-96684865D01*
X130249999Y-96629068D01*
X130249999Y-97649999D01*
X130250000Y-97650000D01*
X130942497Y-97650000D01*
X130953126Y-97649430D01*
X131007377Y-97643597D01*
X131142087Y-97593353D01*
X131257188Y-97507188D01*
X131343353Y-97392087D01*
X131393597Y-97257377D01*
X131399430Y-97203126D01*
X131400000Y-97192497D01*
X131400000Y-96500000D01*
X130375278Y-96500000D01*
X130423625Y-96416260D01*
X130453810Y-96284008D01*
X130443673Y-96148735D01*
X130394113Y-96022459D01*
X130376203Y-96000000D01*
X131400000Y-96000000D01*
X131400000Y-95307502D01*
X131399430Y-95296873D01*
X131393597Y-95242622D01*
X131343353Y-95107912D01*
X131257188Y-94992811D01*
X131119183Y-94889500D01*
X131121579Y-94886298D01*
X131092231Y-94867007D01*
X131046660Y-94791068D01*
X131038551Y-94702876D01*
X131069510Y-94619900D01*
X131089392Y-94594430D01*
X131108979Y-94573153D01*
X131235924Y-94378849D01*
X131329157Y-94166300D01*
X131386134Y-93941305D01*
X131386134Y-93941303D01*
X131386135Y-93941300D01*
X131405300Y-93709999D01*
X136594699Y-93709999D01*
X136613864Y-93941300D01*
X136670843Y-94166300D01*
X136764076Y-94378849D01*
X136891021Y-94573153D01*
X136910608Y-94594430D01*
X136954587Y-94671302D01*
X136960857Y-94759643D01*
X136928177Y-94841956D01*
X136879067Y-94887163D01*
X136880817Y-94889500D01*
X136742811Y-94992811D01*
X136656646Y-95107912D01*
X136606402Y-95242622D01*
X136600569Y-95296873D01*
X136600000Y-95307502D01*
X136600000Y-96000000D01*
X137624722Y-96000000D01*
X137576375Y-96083740D01*
X137546190Y-96215992D01*
X137556327Y-96351265D01*
X137605887Y-96477541D01*
X137623797Y-96500000D01*
X136600000Y-96500000D01*
X136600000Y-97192497D01*
X136600569Y-97203126D01*
X136606402Y-97257377D01*
X136656646Y-97392087D01*
X136742811Y-97507188D01*
X136857912Y-97593353D01*
X136992622Y-97643597D01*
X137046873Y-97649430D01*
X137057503Y-97650000D01*
X137750000Y-97650000D01*
X137750000Y-96624189D01*
X137802547Y-96660016D01*
X137932173Y-96700000D01*
X138033724Y-96700000D01*
X138134138Y-96684865D01*
X138250000Y-96629068D01*
X138250000Y-97650000D01*
X138942497Y-97650000D01*
X138953126Y-97649430D01*
X139007377Y-97643597D01*
X139142087Y-97593353D01*
X139257188Y-97507188D01*
X139343353Y-97392087D01*
X139393597Y-97257377D01*
X139399430Y-97203126D01*
X139400000Y-97192497D01*
X139400000Y-96500000D01*
X138375278Y-96500000D01*
X138423625Y-96416260D01*
X138453810Y-96284008D01*
X138443673Y-96148735D01*
X138394113Y-96022459D01*
X138376203Y-96000000D01*
X139400000Y-96000000D01*
X139400000Y-95307502D01*
X139399430Y-95296873D01*
X139393597Y-95242622D01*
X139343353Y-95107912D01*
X139257188Y-94992811D01*
X139119183Y-94889500D01*
X139121579Y-94886298D01*
X139092231Y-94867007D01*
X139046660Y-94791068D01*
X139038551Y-94702876D01*
X139069510Y-94619900D01*
X139089392Y-94594430D01*
X139108979Y-94573153D01*
X139235924Y-94378849D01*
X139329157Y-94166300D01*
X139386134Y-93941305D01*
X139386134Y-93941303D01*
X139386135Y-93941300D01*
X139405300Y-93709999D01*
X144594699Y-93709999D01*
X144613864Y-93941300D01*
X144670843Y-94166300D01*
X144764076Y-94378849D01*
X144891021Y-94573153D01*
X144910608Y-94594430D01*
X144954587Y-94671302D01*
X144960857Y-94759643D01*
X144928177Y-94841956D01*
X144879067Y-94887163D01*
X144880817Y-94889500D01*
X144742811Y-94992811D01*
X144656646Y-95107912D01*
X144606402Y-95242622D01*
X144600569Y-95296873D01*
X144600000Y-95307502D01*
X144600000Y-96000000D01*
X145624722Y-96000000D01*
X145576375Y-96083740D01*
X145546190Y-96215992D01*
X145556327Y-96351265D01*
X145605887Y-96477541D01*
X145623797Y-96500000D01*
X144600000Y-96500000D01*
X144600000Y-97192497D01*
X144600569Y-97203126D01*
X144606402Y-97257377D01*
X144656646Y-97392087D01*
X144742811Y-97507188D01*
X144857912Y-97593353D01*
X144992622Y-97643597D01*
X145046873Y-97649430D01*
X145057503Y-97650000D01*
X145750000Y-97650000D01*
X145750000Y-96624189D01*
X145802547Y-96660016D01*
X145932173Y-96700000D01*
X146033724Y-96700000D01*
X146134138Y-96684865D01*
X146250000Y-96629068D01*
X146250000Y-97650000D01*
X146942497Y-97650000D01*
X146953126Y-97649430D01*
X147007377Y-97643597D01*
X147142087Y-97593353D01*
X147257188Y-97507188D01*
X147343353Y-97392087D01*
X147393597Y-97257377D01*
X147399430Y-97203126D01*
X147400000Y-97192497D01*
X147400000Y-96500000D01*
X146375278Y-96500000D01*
X146423625Y-96416260D01*
X146453810Y-96284008D01*
X146443673Y-96148735D01*
X146394113Y-96022459D01*
X146376203Y-96000000D01*
X147400000Y-96000000D01*
X147400000Y-95307502D01*
X147399430Y-95296873D01*
X147393597Y-95242622D01*
X147343353Y-95107912D01*
X147257188Y-94992811D01*
X147119183Y-94889500D01*
X147121579Y-94886298D01*
X147092231Y-94867007D01*
X147046660Y-94791068D01*
X147038551Y-94702876D01*
X147069510Y-94619900D01*
X147089392Y-94594430D01*
X147108979Y-94573153D01*
X147235924Y-94378849D01*
X147329157Y-94166300D01*
X147386134Y-93941305D01*
X147386134Y-93941303D01*
X147386135Y-93941300D01*
X147405300Y-93709999D01*
X147386135Y-93478699D01*
X147352851Y-93347266D01*
X147329157Y-93253700D01*
X147235924Y-93041151D01*
X147108979Y-92846847D01*
X146951784Y-92676087D01*
X146951779Y-92676083D01*
X146768625Y-92533528D01*
X146564503Y-92423064D01*
X146344983Y-92347702D01*
X146116049Y-92309500D01*
X145883951Y-92309500D01*
X145655016Y-92347702D01*
X145435496Y-92423064D01*
X145231374Y-92533528D01*
X145048220Y-92676083D01*
X145048217Y-92676086D01*
X145048216Y-92676087D01*
X144891021Y-92846847D01*
X144891019Y-92846849D01*
X144891019Y-92846850D01*
X144764076Y-93041150D01*
X144670843Y-93253699D01*
X144613864Y-93478699D01*
X144594699Y-93709999D01*
X139405300Y-93709999D01*
X139386135Y-93478699D01*
X139352851Y-93347266D01*
X139329157Y-93253700D01*
X139235924Y-93041151D01*
X139108979Y-92846847D01*
X138951784Y-92676087D01*
X138951779Y-92676083D01*
X138768625Y-92533528D01*
X138564503Y-92423064D01*
X138344983Y-92347702D01*
X138116049Y-92309500D01*
X137883951Y-92309500D01*
X137655016Y-92347702D01*
X137435496Y-92423064D01*
X137231374Y-92533528D01*
X137048220Y-92676083D01*
X137048217Y-92676086D01*
X137048216Y-92676087D01*
X136891021Y-92846847D01*
X136891019Y-92846849D01*
X136891019Y-92846850D01*
X136764076Y-93041150D01*
X136670843Y-93253699D01*
X136613864Y-93478699D01*
X136594699Y-93709999D01*
X131405300Y-93709999D01*
X131386135Y-93478699D01*
X131352851Y-93347266D01*
X131329157Y-93253700D01*
X131235924Y-93041151D01*
X131108979Y-92846847D01*
X130951784Y-92676087D01*
X130951779Y-92676083D01*
X130768625Y-92533528D01*
X130564503Y-92423064D01*
X130344983Y-92347702D01*
X130116049Y-92309500D01*
X129883951Y-92309500D01*
X129655016Y-92347702D01*
X129435496Y-92423064D01*
X129231374Y-92533528D01*
X129048220Y-92676083D01*
X129048217Y-92676086D01*
X129048216Y-92676087D01*
X128891021Y-92846847D01*
X128891019Y-92846849D01*
X128891019Y-92846850D01*
X128764076Y-93041150D01*
X128670843Y-93253699D01*
X128613864Y-93478699D01*
X128594699Y-93709999D01*
X96268671Y-93709999D01*
X96226739Y-93553504D01*
X96130568Y-93347266D01*
X96000047Y-93160861D01*
X95839139Y-92999953D01*
X95652734Y-92869432D01*
X95446496Y-92773261D01*
X95446493Y-92773260D01*
X95226694Y-92714365D01*
X95000000Y-92694532D01*
X94773305Y-92714365D01*
X94553506Y-92773260D01*
X94347266Y-92869432D01*
X94160858Y-92999955D01*
X93999955Y-93160858D01*
X93869432Y-93347266D01*
X93773260Y-93553506D01*
X93714365Y-93773305D01*
X93694532Y-94000000D01*
X93000500Y-94000000D01*
X93000500Y-89920000D01*
X122694532Y-89920000D01*
X122714365Y-90146694D01*
X122773260Y-90366493D01*
X122773261Y-90366496D01*
X122869432Y-90572734D01*
X122999953Y-90759139D01*
X123160861Y-90920047D01*
X123347266Y-91050568D01*
X123553504Y-91146739D01*
X123773308Y-91205635D01*
X124000000Y-91225468D01*
X124226692Y-91205635D01*
X124446496Y-91146739D01*
X124652734Y-91050568D01*
X124839139Y-90920047D01*
X125000047Y-90759139D01*
X125130568Y-90572734D01*
X125226739Y-90366496D01*
X125285635Y-90146692D01*
X125305468Y-89920000D01*
X150694532Y-89920000D01*
X150714365Y-90146694D01*
X150773260Y-90366493D01*
X150773261Y-90366496D01*
X150869432Y-90572734D01*
X150999953Y-90759139D01*
X151160861Y-90920047D01*
X151347266Y-91050568D01*
X151553504Y-91146739D01*
X151773308Y-91205635D01*
X152000000Y-91225468D01*
X152226692Y-91205635D01*
X152446496Y-91146739D01*
X152652734Y-91050568D01*
X152839139Y-90920047D01*
X153000047Y-90759139D01*
X153130568Y-90572734D01*
X153226739Y-90366496D01*
X153285635Y-90146692D01*
X153305468Y-89920000D01*
X154694532Y-89920000D01*
X154714365Y-90146694D01*
X154773260Y-90366493D01*
X154773261Y-90366496D01*
X154869432Y-90572734D01*
X154999953Y-90759139D01*
X155160861Y-90920047D01*
X155347266Y-91050568D01*
X155553504Y-91146739D01*
X155773308Y-91205635D01*
X156000000Y-91225468D01*
X156226692Y-91205635D01*
X156446496Y-91146739D01*
X156652734Y-91050568D01*
X156839139Y-90920047D01*
X157000047Y-90759139D01*
X157130568Y-90572734D01*
X157226739Y-90366496D01*
X157285635Y-90146692D01*
X157305468Y-89920000D01*
X157285635Y-89693308D01*
X157226739Y-89473504D01*
X157130568Y-89267266D01*
X157000047Y-89080861D01*
X156839139Y-88919953D01*
X156652734Y-88789432D01*
X156446496Y-88693261D01*
X156446493Y-88693260D01*
X156226694Y-88634365D01*
X156000000Y-88614532D01*
X155773305Y-88634365D01*
X155553506Y-88693260D01*
X155347266Y-88789432D01*
X155160858Y-88919955D01*
X154999955Y-89080858D01*
X154869432Y-89267266D01*
X154773260Y-89473506D01*
X154714365Y-89693305D01*
X154694532Y-89920000D01*
X153305468Y-89920000D01*
X153285635Y-89693308D01*
X153226739Y-89473504D01*
X153130568Y-89267266D01*
X153000047Y-89080861D01*
X152839139Y-88919953D01*
X152652734Y-88789432D01*
X152446496Y-88693261D01*
X152446493Y-88693260D01*
X152226694Y-88634365D01*
X152000000Y-88614532D01*
X151773305Y-88634365D01*
X151553506Y-88693260D01*
X151347266Y-88789432D01*
X151160858Y-88919955D01*
X150999955Y-89080858D01*
X150869432Y-89267266D01*
X150773260Y-89473506D01*
X150714365Y-89693305D01*
X150694532Y-89920000D01*
X125305468Y-89920000D01*
X125285635Y-89693308D01*
X125226739Y-89473504D01*
X125130568Y-89267266D01*
X125000047Y-89080861D01*
X124839139Y-88919953D01*
X124652734Y-88789432D01*
X124446496Y-88693261D01*
X124446493Y-88693260D01*
X124226694Y-88634365D01*
X124000000Y-88614532D01*
X123773305Y-88634365D01*
X123553506Y-88693260D01*
X123347266Y-88789432D01*
X123160858Y-88919955D01*
X122999955Y-89080858D01*
X122869432Y-89267266D01*
X122773260Y-89473506D01*
X122714365Y-89693305D01*
X122694532Y-89920000D01*
X93000500Y-89920000D01*
X93000500Y-86999999D01*
X104994891Y-86999999D01*
X105015299Y-87285357D01*
X105076111Y-87564901D01*
X105176090Y-87832956D01*
X105313193Y-88084041D01*
X105419883Y-88226562D01*
X106322803Y-87323641D01*
X106346059Y-87377553D01*
X106450756Y-87518185D01*
X106585062Y-87630882D01*
X106676665Y-87676887D01*
X105773436Y-88580116D01*
X105915958Y-88686806D01*
X106167043Y-88823909D01*
X106435098Y-88923888D01*
X106714642Y-88984700D01*
X107000000Y-89005108D01*
X107285357Y-88984700D01*
X107564901Y-88923888D01*
X107832956Y-88823909D01*
X108084042Y-88686806D01*
X108226561Y-88580116D01*
X108226562Y-88580115D01*
X107325946Y-87679498D01*
X107338891Y-87674787D01*
X107485373Y-87578445D01*
X107605688Y-87450918D01*
X107678447Y-87324894D01*
X108580115Y-88226562D01*
X108580116Y-88226561D01*
X108686806Y-88084042D01*
X108823909Y-87832956D01*
X108923888Y-87564901D01*
X108984700Y-87285357D01*
X109005108Y-86999999D01*
X108984700Y-86714642D01*
X108923888Y-86435098D01*
X108823909Y-86167043D01*
X108686806Y-85915958D01*
X108580116Y-85773436D01*
X107677195Y-86676356D01*
X107653941Y-86622447D01*
X107549244Y-86481815D01*
X107414938Y-86369118D01*
X107323333Y-86323112D01*
X107936446Y-85709999D01*
X128594699Y-85709999D01*
X128613864Y-85941300D01*
X128670843Y-86166300D01*
X128764076Y-86378849D01*
X128891021Y-86573153D01*
X128910608Y-86594430D01*
X128954587Y-86671302D01*
X128960857Y-86759643D01*
X128928177Y-86841956D01*
X128879067Y-86887163D01*
X128880817Y-86889500D01*
X128742811Y-86992811D01*
X128656646Y-87107912D01*
X128606402Y-87242622D01*
X128600569Y-87296873D01*
X128600000Y-87307502D01*
X128600000Y-88000000D01*
X129624722Y-88000000D01*
X129576375Y-88083740D01*
X129546190Y-88215992D01*
X129556327Y-88351265D01*
X129605887Y-88477541D01*
X129623797Y-88500000D01*
X128600000Y-88500000D01*
X128600000Y-89192497D01*
X128600569Y-89203126D01*
X128606402Y-89257377D01*
X128656646Y-89392087D01*
X128742811Y-89507188D01*
X128857912Y-89593353D01*
X128992622Y-89643597D01*
X129046873Y-89649430D01*
X129057503Y-89650000D01*
X129750000Y-89650000D01*
X129750000Y-88624189D01*
X129802547Y-88660016D01*
X129932173Y-88700000D01*
X130033724Y-88700000D01*
X130134138Y-88684865D01*
X130249999Y-88629068D01*
X130249999Y-89649999D01*
X130250000Y-89650000D01*
X130942497Y-89650000D01*
X130953126Y-89649430D01*
X131007377Y-89643597D01*
X131142087Y-89593353D01*
X131257188Y-89507188D01*
X131343353Y-89392087D01*
X131393597Y-89257377D01*
X131399430Y-89203126D01*
X131400000Y-89192497D01*
X131400000Y-88500000D01*
X130375278Y-88500000D01*
X130423625Y-88416260D01*
X130453810Y-88284008D01*
X130443673Y-88148735D01*
X130394113Y-88022459D01*
X130376203Y-88000000D01*
X131400000Y-88000000D01*
X131400000Y-87307502D01*
X131399430Y-87296873D01*
X131393597Y-87242622D01*
X131343353Y-87107912D01*
X131257188Y-86992811D01*
X131119183Y-86889500D01*
X131121579Y-86886298D01*
X131092231Y-86867007D01*
X131046660Y-86791068D01*
X131038551Y-86702876D01*
X131069510Y-86619900D01*
X131089392Y-86594430D01*
X131108979Y-86573153D01*
X131235924Y-86378849D01*
X131329157Y-86166300D01*
X131386134Y-85941305D01*
X131386134Y-85941303D01*
X131386135Y-85941300D01*
X131405300Y-85709999D01*
X144594699Y-85709999D01*
X144613864Y-85941300D01*
X144670843Y-86166300D01*
X144764076Y-86378849D01*
X144891021Y-86573153D01*
X144910608Y-86594430D01*
X144954587Y-86671302D01*
X144960857Y-86759643D01*
X144928177Y-86841956D01*
X144879067Y-86887163D01*
X144880817Y-86889500D01*
X144742811Y-86992811D01*
X144656646Y-87107912D01*
X144606402Y-87242622D01*
X144600569Y-87296873D01*
X144600000Y-87307502D01*
X144600000Y-88000000D01*
X145624722Y-88000000D01*
X145576375Y-88083740D01*
X145546190Y-88215992D01*
X145556327Y-88351265D01*
X145605887Y-88477541D01*
X145623797Y-88500000D01*
X144600000Y-88500000D01*
X144600000Y-89192497D01*
X144600569Y-89203126D01*
X144606402Y-89257377D01*
X144656646Y-89392087D01*
X144742811Y-89507188D01*
X144857912Y-89593353D01*
X144992622Y-89643597D01*
X145046873Y-89649430D01*
X145057503Y-89650000D01*
X145750000Y-89650000D01*
X145750000Y-88624189D01*
X145802547Y-88660016D01*
X145932173Y-88700000D01*
X146033724Y-88700000D01*
X146134138Y-88684865D01*
X146250000Y-88629068D01*
X146250000Y-89650000D01*
X146942497Y-89650000D01*
X146953126Y-89649430D01*
X147007377Y-89643597D01*
X147142087Y-89593353D01*
X147257188Y-89507188D01*
X147343353Y-89392087D01*
X147393597Y-89257377D01*
X147399430Y-89203126D01*
X147400000Y-89192497D01*
X147400000Y-88500000D01*
X146375278Y-88500000D01*
X146423625Y-88416260D01*
X146453810Y-88284008D01*
X146443673Y-88148735D01*
X146394113Y-88022459D01*
X146376203Y-88000000D01*
X147400000Y-88000000D01*
X147400000Y-87307502D01*
X147399430Y-87296873D01*
X147393597Y-87242622D01*
X147343353Y-87107912D01*
X147257188Y-86992811D01*
X147119183Y-86889500D01*
X147121579Y-86886298D01*
X147092231Y-86867007D01*
X147046660Y-86791068D01*
X147038551Y-86702876D01*
X147069510Y-86619900D01*
X147089392Y-86594430D01*
X147108979Y-86573153D01*
X147235924Y-86378849D01*
X147329157Y-86166300D01*
X147386134Y-85941305D01*
X147386134Y-85941303D01*
X147386135Y-85941300D01*
X147405300Y-85709999D01*
X147386135Y-85478699D01*
X147383573Y-85468582D01*
X147329157Y-85253700D01*
X147235924Y-85041151D01*
X147108979Y-84846847D01*
X146951784Y-84676087D01*
X146951779Y-84676083D01*
X146768625Y-84533528D01*
X146564503Y-84423064D01*
X146344983Y-84347702D01*
X146116049Y-84309500D01*
X145883951Y-84309500D01*
X145655016Y-84347702D01*
X145435496Y-84423064D01*
X145231374Y-84533528D01*
X145048220Y-84676083D01*
X145048217Y-84676086D01*
X145048216Y-84676087D01*
X144891021Y-84846847D01*
X144891019Y-84846849D01*
X144891019Y-84846850D01*
X144764076Y-85041150D01*
X144670843Y-85253699D01*
X144613864Y-85478699D01*
X144594699Y-85709999D01*
X131405300Y-85709999D01*
X131386135Y-85478699D01*
X131383573Y-85468582D01*
X131329157Y-85253700D01*
X131235924Y-85041151D01*
X131108979Y-84846847D01*
X130951784Y-84676087D01*
X130951779Y-84676083D01*
X130768625Y-84533528D01*
X130564503Y-84423064D01*
X130344983Y-84347702D01*
X130116049Y-84309500D01*
X129883951Y-84309500D01*
X129655016Y-84347702D01*
X129435496Y-84423064D01*
X129231374Y-84533528D01*
X129048220Y-84676083D01*
X129048217Y-84676086D01*
X129048216Y-84676087D01*
X128891021Y-84846847D01*
X128891019Y-84846849D01*
X128891019Y-84846850D01*
X128764076Y-85041150D01*
X128670843Y-85253699D01*
X128613864Y-85478699D01*
X128594699Y-85709999D01*
X107936446Y-85709999D01*
X108226562Y-85419883D01*
X108084041Y-85313193D01*
X107832956Y-85176090D01*
X107564901Y-85076111D01*
X107285357Y-85015299D01*
X107000000Y-84994891D01*
X106714642Y-85015299D01*
X106435098Y-85076111D01*
X106167043Y-85176090D01*
X105915958Y-85313193D01*
X105773437Y-85419883D01*
X106674055Y-86320501D01*
X106661109Y-86325213D01*
X106514627Y-86421555D01*
X106394312Y-86549082D01*
X106321552Y-86675106D01*
X105419883Y-85773437D01*
X105313193Y-85915958D01*
X105176090Y-86167043D01*
X105076111Y-86435098D01*
X105015299Y-86714642D01*
X104994891Y-86999999D01*
X93000500Y-86999999D01*
X93000500Y-84067764D01*
X95145787Y-84067764D01*
X95172154Y-84307390D01*
X95175414Y-84337018D01*
X95243928Y-84599088D01*
X95349870Y-84848390D01*
X95349871Y-84848391D01*
X95490980Y-85079608D01*
X95490982Y-85079610D01*
X95664255Y-85287820D01*
X95811647Y-85419883D01*
X95865999Y-85468583D01*
X95985193Y-85547441D01*
X96091910Y-85618044D01*
X96337176Y-85733020D01*
X96482628Y-85776780D01*
X96596569Y-85811060D01*
X96864558Y-85850500D01*
X96864561Y-85850500D01*
X97063999Y-85850500D01*
X97067631Y-85850500D01*
X97270156Y-85835677D01*
X97534553Y-85776780D01*
X97787558Y-85680014D01*
X98023777Y-85547441D01*
X98238177Y-85381888D01*
X98426186Y-85186881D01*
X98583799Y-84966579D01*
X98707656Y-84725675D01*
X98795118Y-84469305D01*
X98844319Y-84202933D01*
X98854212Y-83932235D01*
X98824586Y-83662982D01*
X98814017Y-83622556D01*
X111849500Y-83622556D01*
X111849501Y-83627872D01*
X111850071Y-83633173D01*
X111855909Y-83687484D01*
X111886124Y-83768495D01*
X111906204Y-83822331D01*
X111992454Y-83937546D01*
X112107669Y-84023796D01*
X112242517Y-84074091D01*
X112302127Y-84080500D01*
X114097872Y-84080499D01*
X114157483Y-84074091D01*
X114292331Y-84023796D01*
X114407546Y-83937546D01*
X114493796Y-83822331D01*
X114502028Y-83800257D01*
X114550664Y-83726250D01*
X114626598Y-83680670D01*
X114714788Y-83672551D01*
X114797768Y-83703500D01*
X114829194Y-83729090D01*
X114868599Y-83768495D01*
X115062170Y-83904035D01*
X115276337Y-84003903D01*
X115350580Y-84023796D01*
X115504587Y-84065062D01*
X115504588Y-84065062D01*
X115504592Y-84065063D01*
X115740000Y-84085659D01*
X115975408Y-84065063D01*
X116203663Y-84003903D01*
X116417830Y-83904035D01*
X116611401Y-83768495D01*
X116778495Y-83601401D01*
X116846989Y-83503580D01*
X116912656Y-83444157D01*
X116997604Y-83419109D01*
X117085007Y-83433400D01*
X117157553Y-83484198D01*
X117173008Y-83503577D01*
X117241505Y-83601401D01*
X117408599Y-83768495D01*
X117602170Y-83904035D01*
X117816337Y-84003903D01*
X117890580Y-84023796D01*
X118044587Y-84065062D01*
X118044588Y-84065062D01*
X118044592Y-84065063D01*
X118280000Y-84085659D01*
X118515408Y-84065063D01*
X118743663Y-84003903D01*
X118957830Y-83904035D01*
X119151401Y-83768495D01*
X119318495Y-83601401D01*
X119386989Y-83503580D01*
X119452656Y-83444157D01*
X119537604Y-83419109D01*
X119625007Y-83433400D01*
X119697553Y-83484198D01*
X119713008Y-83503577D01*
X119781505Y-83601401D01*
X119948599Y-83768495D01*
X120142170Y-83904035D01*
X120356337Y-84003903D01*
X120430580Y-84023796D01*
X120584587Y-84065062D01*
X120584588Y-84065062D01*
X120584592Y-84065063D01*
X120820000Y-84085659D01*
X121024536Y-84067764D01*
X152145787Y-84067764D01*
X152172154Y-84307390D01*
X152175414Y-84337018D01*
X152243928Y-84599088D01*
X152349870Y-84848390D01*
X152349871Y-84848391D01*
X152490980Y-85079608D01*
X152490982Y-85079610D01*
X152664255Y-85287820D01*
X152811647Y-85419883D01*
X152865999Y-85468583D01*
X152985193Y-85547441D01*
X153091910Y-85618044D01*
X153337176Y-85733020D01*
X153482628Y-85776780D01*
X153596569Y-85811060D01*
X153864558Y-85850500D01*
X153864561Y-85850500D01*
X154063999Y-85850500D01*
X154067631Y-85850500D01*
X154270156Y-85835677D01*
X154534553Y-85776780D01*
X154787558Y-85680014D01*
X155023777Y-85547441D01*
X155238177Y-85381888D01*
X155426186Y-85186881D01*
X155583799Y-84966579D01*
X155707656Y-84725675D01*
X155795118Y-84469305D01*
X155844319Y-84202933D01*
X155854212Y-83932235D01*
X155824586Y-83662982D01*
X155756072Y-83400912D01*
X155650130Y-83151610D01*
X155509018Y-82920390D01*
X155335745Y-82712180D01*
X155134002Y-82531418D01*
X155134000Y-82531416D01*
X154908091Y-82381956D01*
X154662822Y-82266979D01*
X154403430Y-82188939D01*
X154135442Y-82149500D01*
X154135439Y-82149500D01*
X153932369Y-82149500D01*
X153928751Y-82149764D01*
X153928745Y-82149765D01*
X153729844Y-82164322D01*
X153465445Y-82223220D01*
X153212443Y-82319985D01*
X152976221Y-82452559D01*
X152761821Y-82618112D01*
X152573817Y-82813115D01*
X152573814Y-82813118D01*
X152573814Y-82813119D01*
X152464858Y-82965412D01*
X152416199Y-83033424D01*
X152292342Y-83274327D01*
X152204883Y-83530690D01*
X152155680Y-83797069D01*
X152145787Y-84067764D01*
X121024536Y-84067764D01*
X121055408Y-84065063D01*
X121283663Y-84003903D01*
X121497830Y-83904035D01*
X121691401Y-83768495D01*
X121858495Y-83601401D01*
X121994035Y-83407830D01*
X122093903Y-83193663D01*
X122155063Y-82965408D01*
X122175659Y-82730000D01*
X122155063Y-82494592D01*
X122143800Y-82452559D01*
X122093904Y-82266340D01*
X122090000Y-82257967D01*
X121994035Y-82052171D01*
X121957505Y-82000000D01*
X123614532Y-82000000D01*
X123634365Y-82226694D01*
X123692219Y-82442608D01*
X123693261Y-82446496D01*
X123789432Y-82652734D01*
X123919953Y-82839139D01*
X124080861Y-83000047D01*
X124267266Y-83130568D01*
X124473504Y-83226739D01*
X124693308Y-83285635D01*
X124920000Y-83305468D01*
X125146692Y-83285635D01*
X125366496Y-83226739D01*
X125572734Y-83130568D01*
X125759139Y-83000047D01*
X125920047Y-82839139D01*
X126050568Y-82652734D01*
X126146739Y-82446496D01*
X126205635Y-82226692D01*
X126225468Y-82000000D01*
X133774532Y-82000000D01*
X133794365Y-82226694D01*
X133852219Y-82442608D01*
X133853261Y-82446496D01*
X133949432Y-82652734D01*
X134079953Y-82839139D01*
X134240861Y-83000047D01*
X134427266Y-83130568D01*
X134633504Y-83226739D01*
X134853308Y-83285635D01*
X135080000Y-83305468D01*
X135306692Y-83285635D01*
X135526496Y-83226739D01*
X135732734Y-83130568D01*
X135919139Y-83000047D01*
X136080047Y-82839139D01*
X136210568Y-82652734D01*
X136306739Y-82446496D01*
X136307781Y-82442605D01*
X136349163Y-82364308D01*
X136420420Y-82311717D01*
X136507439Y-82295251D01*
X136592985Y-82318172D01*
X136660114Y-82375941D01*
X136692218Y-82442604D01*
X136693261Y-82446496D01*
X136789432Y-82652734D01*
X136919953Y-82839139D01*
X137080861Y-83000047D01*
X137267266Y-83130568D01*
X137473504Y-83226739D01*
X137693308Y-83285635D01*
X137920000Y-83305468D01*
X138146692Y-83285635D01*
X138366496Y-83226739D01*
X138572734Y-83130568D01*
X138759139Y-83000047D01*
X138920047Y-82839139D01*
X139050568Y-82652734D01*
X139146739Y-82446496D01*
X139205635Y-82226692D01*
X139225468Y-82000000D01*
X146774532Y-82000000D01*
X146794365Y-82226694D01*
X146852219Y-82442608D01*
X146853261Y-82446496D01*
X146949432Y-82652734D01*
X147079953Y-82839139D01*
X147240861Y-83000047D01*
X147427266Y-83130568D01*
X147633504Y-83226739D01*
X147853308Y-83285635D01*
X148080000Y-83305468D01*
X148306692Y-83285635D01*
X148526496Y-83226739D01*
X148732734Y-83130568D01*
X148919139Y-83000047D01*
X149080047Y-82839139D01*
X149210568Y-82652734D01*
X149306739Y-82446496D01*
X149365635Y-82226692D01*
X149385468Y-82000000D01*
X149365635Y-81773308D01*
X149306739Y-81553504D01*
X149210568Y-81347266D01*
X149080047Y-81160861D01*
X148919139Y-80999953D01*
X148732734Y-80869432D01*
X148526496Y-80773261D01*
X148526493Y-80773260D01*
X148306694Y-80714365D01*
X148080000Y-80694532D01*
X147853305Y-80714365D01*
X147633506Y-80773260D01*
X147427266Y-80869432D01*
X147240858Y-80999955D01*
X147079955Y-81160858D01*
X146949432Y-81347266D01*
X146853260Y-81553506D01*
X146794365Y-81773305D01*
X146774532Y-82000000D01*
X139225468Y-82000000D01*
X139205635Y-81773308D01*
X139146739Y-81553504D01*
X139050568Y-81347266D01*
X138920047Y-81160861D01*
X138759139Y-80999953D01*
X138572734Y-80869432D01*
X138366496Y-80773261D01*
X138366493Y-80773260D01*
X138146694Y-80714365D01*
X137920000Y-80694532D01*
X137693305Y-80714365D01*
X137473506Y-80773260D01*
X137267266Y-80869432D01*
X137080858Y-80999955D01*
X136919955Y-81160858D01*
X136789432Y-81347266D01*
X136693260Y-81553505D01*
X136692219Y-81557393D01*
X136650836Y-81635693D01*
X136579578Y-81688283D01*
X136492558Y-81704748D01*
X136407013Y-81681825D01*
X136339884Y-81624056D01*
X136307781Y-81557393D01*
X136307398Y-81555964D01*
X136306739Y-81553504D01*
X136210568Y-81347266D01*
X136080047Y-81160861D01*
X135919139Y-80999953D01*
X135732734Y-80869432D01*
X135526496Y-80773261D01*
X135526493Y-80773260D01*
X135306694Y-80714365D01*
X135080000Y-80694532D01*
X134853305Y-80714365D01*
X134633506Y-80773260D01*
X134427266Y-80869432D01*
X134240858Y-80999955D01*
X134079955Y-81160858D01*
X133949432Y-81347266D01*
X133853260Y-81553506D01*
X133794365Y-81773305D01*
X133774532Y-82000000D01*
X126225468Y-82000000D01*
X126205635Y-81773308D01*
X126146739Y-81553504D01*
X126050568Y-81347266D01*
X125920047Y-81160861D01*
X125759139Y-80999953D01*
X125572734Y-80869432D01*
X125366496Y-80773261D01*
X125366493Y-80773260D01*
X125146694Y-80714365D01*
X124920000Y-80694532D01*
X124693305Y-80714365D01*
X124473506Y-80773260D01*
X124267266Y-80869432D01*
X124080858Y-80999955D01*
X123919955Y-81160858D01*
X123789432Y-81347266D01*
X123693260Y-81553506D01*
X123634365Y-81773305D01*
X123614532Y-82000000D01*
X121957505Y-82000000D01*
X121858495Y-81858599D01*
X121691401Y-81691505D01*
X121497830Y-81555965D01*
X121492553Y-81553504D01*
X121283661Y-81456096D01*
X121055412Y-81394937D01*
X120867081Y-81378460D01*
X120820000Y-81374341D01*
X120819999Y-81374341D01*
X120584587Y-81394937D01*
X120356340Y-81456095D01*
X120214035Y-81522454D01*
X120147445Y-81553506D01*
X120142167Y-81555967D01*
X119948600Y-81691503D01*
X119781506Y-81858597D01*
X119713011Y-81956419D01*
X119647344Y-82015843D01*
X119562396Y-82040891D01*
X119474993Y-82026600D01*
X119402447Y-81975802D01*
X119386989Y-81956419D01*
X119318495Y-81858599D01*
X119151401Y-81691505D01*
X118957830Y-81555965D01*
X118952553Y-81553504D01*
X118743661Y-81456096D01*
X118515412Y-81394937D01*
X118280000Y-81374341D01*
X118044587Y-81394937D01*
X117816340Y-81456095D01*
X117674035Y-81522454D01*
X117607445Y-81553506D01*
X117602167Y-81555967D01*
X117408600Y-81691503D01*
X117241506Y-81858597D01*
X117173011Y-81956419D01*
X117107344Y-82015843D01*
X117022396Y-82040891D01*
X116934993Y-82026600D01*
X116862447Y-81975802D01*
X116846989Y-81956419D01*
X116778495Y-81858599D01*
X116611401Y-81691505D01*
X116417830Y-81555965D01*
X116412553Y-81553504D01*
X116203661Y-81456096D01*
X115975412Y-81394937D01*
X115740000Y-81374341D01*
X115504587Y-81394937D01*
X115276340Y-81456095D01*
X115134035Y-81522454D01*
X115067445Y-81553506D01*
X115062167Y-81555967D01*
X114868602Y-81691502D01*
X114829193Y-81730911D01*
X114754204Y-81778028D01*
X114666197Y-81787944D01*
X114582604Y-81758692D01*
X114519981Y-81696068D01*
X114502027Y-81659738D01*
X114493796Y-81637669D01*
X114407546Y-81522454D01*
X114292331Y-81436204D01*
X114292330Y-81436203D01*
X114157484Y-81385909D01*
X114103170Y-81380069D01*
X114103160Y-81380068D01*
X114097873Y-81379500D01*
X114092542Y-81379500D01*
X112307461Y-81379500D01*
X112307442Y-81379500D01*
X112302128Y-81379501D01*
X112296825Y-81380071D01*
X112296826Y-81380071D01*
X112242515Y-81385909D01*
X112107670Y-81436203D01*
X111992454Y-81522454D01*
X111906203Y-81637669D01*
X111855909Y-81772515D01*
X111850069Y-81826829D01*
X111850068Y-81826840D01*
X111849500Y-81832127D01*
X111849500Y-81837456D01*
X111849500Y-81837457D01*
X111849500Y-83622538D01*
X111849500Y-83622556D01*
X98814017Y-83622556D01*
X98756072Y-83400912D01*
X98650130Y-83151610D01*
X98509018Y-82920390D01*
X98335745Y-82712180D01*
X98134002Y-82531418D01*
X98134000Y-82531416D01*
X97908091Y-82381956D01*
X97662822Y-82266979D01*
X97403430Y-82188939D01*
X97135442Y-82149500D01*
X97135439Y-82149500D01*
X96932369Y-82149500D01*
X96928751Y-82149764D01*
X96928745Y-82149765D01*
X96729844Y-82164322D01*
X96465445Y-82223220D01*
X96212443Y-82319985D01*
X95976221Y-82452559D01*
X95761821Y-82618112D01*
X95573817Y-82813115D01*
X95573814Y-82813118D01*
X95573814Y-82813119D01*
X95464858Y-82965412D01*
X95416199Y-83033424D01*
X95292342Y-83274327D01*
X95204883Y-83530690D01*
X95155680Y-83797069D01*
X95145787Y-84067764D01*
X93000500Y-84067764D01*
X93000500Y-82006513D01*
X93000926Y-81993499D01*
X93003356Y-81956419D01*
X93005991Y-81916208D01*
X93018375Y-81743074D01*
X93021685Y-81718504D01*
X93043159Y-81610544D01*
X93072899Y-81473837D01*
X93078876Y-81452308D01*
X93115893Y-81343260D01*
X93117785Y-81337946D01*
X93163743Y-81214729D01*
X93171700Y-81196301D01*
X93223761Y-81090731D01*
X93227547Y-81083441D01*
X93289253Y-80970433D01*
X93298415Y-80955301D01*
X93364527Y-80856359D01*
X93370620Y-80847748D01*
X93447102Y-80745580D01*
X93456750Y-80733681D01*
X93535542Y-80643835D01*
X93544385Y-80634394D01*
X93634394Y-80544385D01*
X93643835Y-80535542D01*
X93733681Y-80456750D01*
X93745580Y-80447102D01*
X93847748Y-80370620D01*
X93856359Y-80364527D01*
X93955301Y-80298415D01*
X93970433Y-80289253D01*
X94083441Y-80227547D01*
X94090731Y-80223761D01*
X94196301Y-80171700D01*
X94214729Y-80163743D01*
X94337946Y-80117785D01*
X94343260Y-80115893D01*
X94452284Y-80078884D01*
X94473905Y-80072884D01*
X94610546Y-80043159D01*
X94718577Y-80021670D01*
X94743068Y-80018375D01*
X94916208Y-80005991D01*
X94993526Y-80000924D01*
X95006510Y-80000500D01*
X155993486Y-80000500D01*
X156006499Y-80000925D01*
G37*
%TD.AperFunction*%
%TD*%
M02*
