%TF.GenerationSoftware,KiCad,Pcbnew,7.0.8*%
%TF.CreationDate,2023-11-06T17:53:39+01:00*%
%TF.ProjectId,EDice,45446963-652e-46b6-9963-61645f706362,rev?*%
%TF.SameCoordinates,Original*%
%TF.FileFunction,Legend,Top*%
%TF.FilePolarity,Positive*%
%FSLAX46Y46*%
G04 Gerber Fmt 4.6, Leading zero omitted, Abs format (unit mm)*
G04 Created by KiCad (PCBNEW 7.0.8) date 2023-11-06 17:53:39*
%MOMM*%
%LPD*%
G01*
G04 APERTURE LIST*
%ADD10C,0.150000*%
%ADD11C,0.120000*%
G04 APERTURE END LIST*
D10*
X115717438Y-105639411D02*
X115669819Y-105734649D01*
X115669819Y-105734649D02*
X115669819Y-105877506D01*
X115669819Y-105877506D02*
X115717438Y-106020363D01*
X115717438Y-106020363D02*
X115812676Y-106115601D01*
X115812676Y-106115601D02*
X115907914Y-106163220D01*
X115907914Y-106163220D02*
X116098390Y-106210839D01*
X116098390Y-106210839D02*
X116241247Y-106210839D01*
X116241247Y-106210839D02*
X116431723Y-106163220D01*
X116431723Y-106163220D02*
X116526961Y-106115601D01*
X116526961Y-106115601D02*
X116622200Y-106020363D01*
X116622200Y-106020363D02*
X116669819Y-105877506D01*
X116669819Y-105877506D02*
X116669819Y-105782268D01*
X116669819Y-105782268D02*
X116622200Y-105639411D01*
X116622200Y-105639411D02*
X116574580Y-105591792D01*
X116574580Y-105591792D02*
X116241247Y-105591792D01*
X116241247Y-105591792D02*
X116241247Y-105782268D01*
X116669819Y-105163220D02*
X115669819Y-105163220D01*
X115669819Y-105163220D02*
X116669819Y-104591792D01*
X116669819Y-104591792D02*
X115669819Y-104591792D01*
X116669819Y-104115601D02*
X115669819Y-104115601D01*
X115669819Y-104115601D02*
X115669819Y-103877506D01*
X115669819Y-103877506D02*
X115717438Y-103734649D01*
X115717438Y-103734649D02*
X115812676Y-103639411D01*
X115812676Y-103639411D02*
X115907914Y-103591792D01*
X115907914Y-103591792D02*
X116098390Y-103544173D01*
X116098390Y-103544173D02*
X116241247Y-103544173D01*
X116241247Y-103544173D02*
X116431723Y-103591792D01*
X116431723Y-103591792D02*
X116526961Y-103639411D01*
X116526961Y-103639411D02*
X116622200Y-103734649D01*
X116622200Y-103734649D02*
X116669819Y-103877506D01*
X116669819Y-103877506D02*
X116669819Y-104115601D01*
X108969819Y-106163220D02*
X107969819Y-106163220D01*
X107969819Y-106163220D02*
X107969819Y-105782268D01*
X107969819Y-105782268D02*
X108017438Y-105687030D01*
X108017438Y-105687030D02*
X108065057Y-105639411D01*
X108065057Y-105639411D02*
X108160295Y-105591792D01*
X108160295Y-105591792D02*
X108303152Y-105591792D01*
X108303152Y-105591792D02*
X108398390Y-105639411D01*
X108398390Y-105639411D02*
X108446009Y-105687030D01*
X108446009Y-105687030D02*
X108493628Y-105782268D01*
X108493628Y-105782268D02*
X108493628Y-106163220D01*
X108684104Y-105210839D02*
X108684104Y-104734649D01*
X108969819Y-105306077D02*
X107969819Y-104972744D01*
X107969819Y-104972744D02*
X108969819Y-104639411D01*
X107969819Y-104401315D02*
X107969819Y-103782268D01*
X107969819Y-103782268D02*
X108350771Y-104115601D01*
X108350771Y-104115601D02*
X108350771Y-103972744D01*
X108350771Y-103972744D02*
X108398390Y-103877506D01*
X108398390Y-103877506D02*
X108446009Y-103829887D01*
X108446009Y-103829887D02*
X108541247Y-103782268D01*
X108541247Y-103782268D02*
X108779342Y-103782268D01*
X108779342Y-103782268D02*
X108874580Y-103829887D01*
X108874580Y-103829887D02*
X108922200Y-103877506D01*
X108922200Y-103877506D02*
X108969819Y-103972744D01*
X108969819Y-103972744D02*
X108969819Y-104258458D01*
X108969819Y-104258458D02*
X108922200Y-104353696D01*
X108922200Y-104353696D02*
X108874580Y-104401315D01*
X111569819Y-86263220D02*
X110569819Y-86263220D01*
X110569819Y-86263220D02*
X110569819Y-85882268D01*
X110569819Y-85882268D02*
X110617438Y-85787030D01*
X110617438Y-85787030D02*
X110665057Y-85739411D01*
X110665057Y-85739411D02*
X110760295Y-85691792D01*
X110760295Y-85691792D02*
X110903152Y-85691792D01*
X110903152Y-85691792D02*
X110998390Y-85739411D01*
X110998390Y-85739411D02*
X111046009Y-85787030D01*
X111046009Y-85787030D02*
X111093628Y-85882268D01*
X111093628Y-85882268D02*
X111093628Y-86263220D01*
X111284104Y-85310839D02*
X111284104Y-84834649D01*
X111569819Y-85406077D02*
X110569819Y-85072744D01*
X110569819Y-85072744D02*
X111569819Y-84739411D01*
X110569819Y-83977506D02*
X110569819Y-84167982D01*
X110569819Y-84167982D02*
X110617438Y-84263220D01*
X110617438Y-84263220D02*
X110665057Y-84310839D01*
X110665057Y-84310839D02*
X110807914Y-84406077D01*
X110807914Y-84406077D02*
X110998390Y-84453696D01*
X110998390Y-84453696D02*
X111379342Y-84453696D01*
X111379342Y-84453696D02*
X111474580Y-84406077D01*
X111474580Y-84406077D02*
X111522200Y-84358458D01*
X111522200Y-84358458D02*
X111569819Y-84263220D01*
X111569819Y-84263220D02*
X111569819Y-84072744D01*
X111569819Y-84072744D02*
X111522200Y-83977506D01*
X111522200Y-83977506D02*
X111474580Y-83929887D01*
X111474580Y-83929887D02*
X111379342Y-83882268D01*
X111379342Y-83882268D02*
X111141247Y-83882268D01*
X111141247Y-83882268D02*
X111046009Y-83929887D01*
X111046009Y-83929887D02*
X110998390Y-83977506D01*
X110998390Y-83977506D02*
X110950771Y-84072744D01*
X110950771Y-84072744D02*
X110950771Y-84263220D01*
X110950771Y-84263220D02*
X110998390Y-84358458D01*
X110998390Y-84358458D02*
X111046009Y-84406077D01*
X111046009Y-84406077D02*
X111141247Y-84453696D01*
X116046009Y-85929887D02*
X116093628Y-85787030D01*
X116093628Y-85787030D02*
X116141247Y-85739411D01*
X116141247Y-85739411D02*
X116236485Y-85691792D01*
X116236485Y-85691792D02*
X116379342Y-85691792D01*
X116379342Y-85691792D02*
X116474580Y-85739411D01*
X116474580Y-85739411D02*
X116522200Y-85787030D01*
X116522200Y-85787030D02*
X116569819Y-85882268D01*
X116569819Y-85882268D02*
X116569819Y-86263220D01*
X116569819Y-86263220D02*
X115569819Y-86263220D01*
X115569819Y-86263220D02*
X115569819Y-85929887D01*
X115569819Y-85929887D02*
X115617438Y-85834649D01*
X115617438Y-85834649D02*
X115665057Y-85787030D01*
X115665057Y-85787030D02*
X115760295Y-85739411D01*
X115760295Y-85739411D02*
X115855533Y-85739411D01*
X115855533Y-85739411D02*
X115950771Y-85787030D01*
X115950771Y-85787030D02*
X115998390Y-85834649D01*
X115998390Y-85834649D02*
X116046009Y-85929887D01*
X116046009Y-85929887D02*
X116046009Y-86263220D01*
X116284104Y-85310839D02*
X116284104Y-84834649D01*
X116569819Y-85406077D02*
X115569819Y-85072744D01*
X115569819Y-85072744D02*
X116569819Y-84739411D01*
X115569819Y-84548934D02*
X115569819Y-83977506D01*
X116569819Y-84263220D02*
X115569819Y-84263220D01*
X114069819Y-86263220D02*
X113069819Y-86263220D01*
X113069819Y-86263220D02*
X113069819Y-85882268D01*
X113069819Y-85882268D02*
X113117438Y-85787030D01*
X113117438Y-85787030D02*
X113165057Y-85739411D01*
X113165057Y-85739411D02*
X113260295Y-85691792D01*
X113260295Y-85691792D02*
X113403152Y-85691792D01*
X113403152Y-85691792D02*
X113498390Y-85739411D01*
X113498390Y-85739411D02*
X113546009Y-85787030D01*
X113546009Y-85787030D02*
X113593628Y-85882268D01*
X113593628Y-85882268D02*
X113593628Y-86263220D01*
X113784104Y-85310839D02*
X113784104Y-84834649D01*
X114069819Y-85406077D02*
X113069819Y-85072744D01*
X113069819Y-85072744D02*
X114069819Y-84739411D01*
X113069819Y-84501315D02*
X113069819Y-83834649D01*
X113069819Y-83834649D02*
X114069819Y-84263220D01*
X111569819Y-106163220D02*
X110569819Y-106163220D01*
X110569819Y-106163220D02*
X110569819Y-105782268D01*
X110569819Y-105782268D02*
X110617438Y-105687030D01*
X110617438Y-105687030D02*
X110665057Y-105639411D01*
X110665057Y-105639411D02*
X110760295Y-105591792D01*
X110760295Y-105591792D02*
X110903152Y-105591792D01*
X110903152Y-105591792D02*
X110998390Y-105639411D01*
X110998390Y-105639411D02*
X111046009Y-105687030D01*
X111046009Y-105687030D02*
X111093628Y-105782268D01*
X111093628Y-105782268D02*
X111093628Y-106163220D01*
X111284104Y-105210839D02*
X111284104Y-104734649D01*
X111569819Y-105306077D02*
X110569819Y-104972744D01*
X110569819Y-104972744D02*
X111569819Y-104639411D01*
X110903152Y-103877506D02*
X111569819Y-103877506D01*
X110522200Y-104115601D02*
X111236485Y-104353696D01*
X111236485Y-104353696D02*
X111236485Y-103734649D01*
X108969819Y-86263220D02*
X107969819Y-86263220D01*
X107969819Y-86263220D02*
X107969819Y-85882268D01*
X107969819Y-85882268D02*
X108017438Y-85787030D01*
X108017438Y-85787030D02*
X108065057Y-85739411D01*
X108065057Y-85739411D02*
X108160295Y-85691792D01*
X108160295Y-85691792D02*
X108303152Y-85691792D01*
X108303152Y-85691792D02*
X108398390Y-85739411D01*
X108398390Y-85739411D02*
X108446009Y-85787030D01*
X108446009Y-85787030D02*
X108493628Y-85882268D01*
X108493628Y-85882268D02*
X108493628Y-86263220D01*
X108684104Y-85310839D02*
X108684104Y-84834649D01*
X108969819Y-85406077D02*
X107969819Y-85072744D01*
X107969819Y-85072744D02*
X108969819Y-84739411D01*
X107969819Y-83929887D02*
X107969819Y-84406077D01*
X107969819Y-84406077D02*
X108446009Y-84453696D01*
X108446009Y-84453696D02*
X108398390Y-84406077D01*
X108398390Y-84406077D02*
X108350771Y-84310839D01*
X108350771Y-84310839D02*
X108350771Y-84072744D01*
X108350771Y-84072744D02*
X108398390Y-83977506D01*
X108398390Y-83977506D02*
X108446009Y-83929887D01*
X108446009Y-83929887D02*
X108541247Y-83882268D01*
X108541247Y-83882268D02*
X108779342Y-83882268D01*
X108779342Y-83882268D02*
X108874580Y-83929887D01*
X108874580Y-83929887D02*
X108922200Y-83977506D01*
X108922200Y-83977506D02*
X108969819Y-84072744D01*
X108969819Y-84072744D02*
X108969819Y-84310839D01*
X108969819Y-84310839D02*
X108922200Y-84406077D01*
X108922200Y-84406077D02*
X108874580Y-84453696D01*
X113969819Y-106163220D02*
X112969819Y-106163220D01*
X112969819Y-106163220D02*
X112969819Y-105782268D01*
X112969819Y-105782268D02*
X113017438Y-105687030D01*
X113017438Y-105687030D02*
X113065057Y-105639411D01*
X113065057Y-105639411D02*
X113160295Y-105591792D01*
X113160295Y-105591792D02*
X113303152Y-105591792D01*
X113303152Y-105591792D02*
X113398390Y-105639411D01*
X113398390Y-105639411D02*
X113446009Y-105687030D01*
X113446009Y-105687030D02*
X113493628Y-105782268D01*
X113493628Y-105782268D02*
X113493628Y-106163220D01*
X113684104Y-105210839D02*
X113684104Y-104734649D01*
X113969819Y-105306077D02*
X112969819Y-104972744D01*
X112969819Y-104972744D02*
X113969819Y-104639411D01*
X112969819Y-104115601D02*
X112969819Y-104020363D01*
X112969819Y-104020363D02*
X113017438Y-103925125D01*
X113017438Y-103925125D02*
X113065057Y-103877506D01*
X113065057Y-103877506D02*
X113160295Y-103829887D01*
X113160295Y-103829887D02*
X113350771Y-103782268D01*
X113350771Y-103782268D02*
X113588866Y-103782268D01*
X113588866Y-103782268D02*
X113779342Y-103829887D01*
X113779342Y-103829887D02*
X113874580Y-103877506D01*
X113874580Y-103877506D02*
X113922200Y-103925125D01*
X113922200Y-103925125D02*
X113969819Y-104020363D01*
X113969819Y-104020363D02*
X113969819Y-104115601D01*
X113969819Y-104115601D02*
X113922200Y-104210839D01*
X113922200Y-104210839D02*
X113874580Y-104258458D01*
X113874580Y-104258458D02*
X113779342Y-104306077D01*
X113779342Y-104306077D02*
X113588866Y-104353696D01*
X113588866Y-104353696D02*
X113350771Y-104353696D01*
X113350771Y-104353696D02*
X113160295Y-104306077D01*
X113160295Y-104306077D02*
X113065057Y-104258458D01*
X113065057Y-104258458D02*
X113017438Y-104210839D01*
X113017438Y-104210839D02*
X112969819Y-104115601D01*
X129261905Y-98854819D02*
X129261905Y-97854819D01*
X129261905Y-97854819D02*
X129500000Y-97854819D01*
X129500000Y-97854819D02*
X129642857Y-97902438D01*
X129642857Y-97902438D02*
X129738095Y-97997676D01*
X129738095Y-97997676D02*
X129785714Y-98092914D01*
X129785714Y-98092914D02*
X129833333Y-98283390D01*
X129833333Y-98283390D02*
X129833333Y-98426247D01*
X129833333Y-98426247D02*
X129785714Y-98616723D01*
X129785714Y-98616723D02*
X129738095Y-98711961D01*
X129738095Y-98711961D02*
X129642857Y-98807200D01*
X129642857Y-98807200D02*
X129500000Y-98854819D01*
X129500000Y-98854819D02*
X129261905Y-98854819D01*
X130166667Y-97854819D02*
X130785714Y-97854819D01*
X130785714Y-97854819D02*
X130452381Y-98235771D01*
X130452381Y-98235771D02*
X130595238Y-98235771D01*
X130595238Y-98235771D02*
X130690476Y-98283390D01*
X130690476Y-98283390D02*
X130738095Y-98331009D01*
X130738095Y-98331009D02*
X130785714Y-98426247D01*
X130785714Y-98426247D02*
X130785714Y-98664342D01*
X130785714Y-98664342D02*
X130738095Y-98759580D01*
X130738095Y-98759580D02*
X130690476Y-98807200D01*
X130690476Y-98807200D02*
X130595238Y-98854819D01*
X130595238Y-98854819D02*
X130309524Y-98854819D01*
X130309524Y-98854819D02*
X130214286Y-98807200D01*
X130214286Y-98807200D02*
X130166667Y-98759580D01*
X133661905Y-87454819D02*
X133661905Y-86454819D01*
X133661905Y-86454819D02*
X133900000Y-86454819D01*
X133900000Y-86454819D02*
X134042857Y-86502438D01*
X134042857Y-86502438D02*
X134138095Y-86597676D01*
X134138095Y-86597676D02*
X134185714Y-86692914D01*
X134185714Y-86692914D02*
X134233333Y-86883390D01*
X134233333Y-86883390D02*
X134233333Y-87026247D01*
X134233333Y-87026247D02*
X134185714Y-87216723D01*
X134185714Y-87216723D02*
X134138095Y-87311961D01*
X134138095Y-87311961D02*
X134042857Y-87407200D01*
X134042857Y-87407200D02*
X133900000Y-87454819D01*
X133900000Y-87454819D02*
X133661905Y-87454819D01*
X135185714Y-87454819D02*
X134614286Y-87454819D01*
X134900000Y-87454819D02*
X134900000Y-86454819D01*
X134900000Y-86454819D02*
X134804762Y-86597676D01*
X134804762Y-86597676D02*
X134709524Y-86692914D01*
X134709524Y-86692914D02*
X134614286Y-86740533D01*
X152766667Y-101207200D02*
X152909524Y-101254819D01*
X152909524Y-101254819D02*
X153147619Y-101254819D01*
X153147619Y-101254819D02*
X153242857Y-101207200D01*
X153242857Y-101207200D02*
X153290476Y-101159580D01*
X153290476Y-101159580D02*
X153338095Y-101064342D01*
X153338095Y-101064342D02*
X153338095Y-100969104D01*
X153338095Y-100969104D02*
X153290476Y-100873866D01*
X153290476Y-100873866D02*
X153242857Y-100826247D01*
X153242857Y-100826247D02*
X153147619Y-100778628D01*
X153147619Y-100778628D02*
X152957143Y-100731009D01*
X152957143Y-100731009D02*
X152861905Y-100683390D01*
X152861905Y-100683390D02*
X152814286Y-100635771D01*
X152814286Y-100635771D02*
X152766667Y-100540533D01*
X152766667Y-100540533D02*
X152766667Y-100445295D01*
X152766667Y-100445295D02*
X152814286Y-100350057D01*
X152814286Y-100350057D02*
X152861905Y-100302438D01*
X152861905Y-100302438D02*
X152957143Y-100254819D01*
X152957143Y-100254819D02*
X153195238Y-100254819D01*
X153195238Y-100254819D02*
X153338095Y-100302438D01*
X153671429Y-100254819D02*
X153909524Y-101254819D01*
X153909524Y-101254819D02*
X154100000Y-100540533D01*
X154100000Y-100540533D02*
X154290476Y-101254819D01*
X154290476Y-101254819D02*
X154528572Y-100254819D01*
X155433333Y-101254819D02*
X154861905Y-101254819D01*
X155147619Y-101254819D02*
X155147619Y-100254819D01*
X155147619Y-100254819D02*
X155052381Y-100397676D01*
X155052381Y-100397676D02*
X154957143Y-100492914D01*
X154957143Y-100492914D02*
X154861905Y-100540533D01*
X137261905Y-98854819D02*
X137261905Y-97854819D01*
X137261905Y-97854819D02*
X137500000Y-97854819D01*
X137500000Y-97854819D02*
X137642857Y-97902438D01*
X137642857Y-97902438D02*
X137738095Y-97997676D01*
X137738095Y-97997676D02*
X137785714Y-98092914D01*
X137785714Y-98092914D02*
X137833333Y-98283390D01*
X137833333Y-98283390D02*
X137833333Y-98426247D01*
X137833333Y-98426247D02*
X137785714Y-98616723D01*
X137785714Y-98616723D02*
X137738095Y-98711961D01*
X137738095Y-98711961D02*
X137642857Y-98807200D01*
X137642857Y-98807200D02*
X137500000Y-98854819D01*
X137500000Y-98854819D02*
X137261905Y-98854819D01*
X138690476Y-98188152D02*
X138690476Y-98854819D01*
X138452381Y-97807200D02*
X138214286Y-98521485D01*
X138214286Y-98521485D02*
X138833333Y-98521485D01*
X140861905Y-87454819D02*
X140861905Y-86454819D01*
X140861905Y-86454819D02*
X141100000Y-86454819D01*
X141100000Y-86454819D02*
X141242857Y-86502438D01*
X141242857Y-86502438D02*
X141338095Y-86597676D01*
X141338095Y-86597676D02*
X141385714Y-86692914D01*
X141385714Y-86692914D02*
X141433333Y-86883390D01*
X141433333Y-86883390D02*
X141433333Y-87026247D01*
X141433333Y-87026247D02*
X141385714Y-87216723D01*
X141385714Y-87216723D02*
X141338095Y-87311961D01*
X141338095Y-87311961D02*
X141242857Y-87407200D01*
X141242857Y-87407200D02*
X141100000Y-87454819D01*
X141100000Y-87454819D02*
X140861905Y-87454819D01*
X141814286Y-86550057D02*
X141861905Y-86502438D01*
X141861905Y-86502438D02*
X141957143Y-86454819D01*
X141957143Y-86454819D02*
X142195238Y-86454819D01*
X142195238Y-86454819D02*
X142290476Y-86502438D01*
X142290476Y-86502438D02*
X142338095Y-86550057D01*
X142338095Y-86550057D02*
X142385714Y-86645295D01*
X142385714Y-86645295D02*
X142385714Y-86740533D01*
X142385714Y-86740533D02*
X142338095Y-86883390D01*
X142338095Y-86883390D02*
X141766667Y-87454819D01*
X141766667Y-87454819D02*
X142385714Y-87454819D01*
X127833333Y-82454819D02*
X127500000Y-81978628D01*
X127261905Y-82454819D02*
X127261905Y-81454819D01*
X127261905Y-81454819D02*
X127642857Y-81454819D01*
X127642857Y-81454819D02*
X127738095Y-81502438D01*
X127738095Y-81502438D02*
X127785714Y-81550057D01*
X127785714Y-81550057D02*
X127833333Y-81645295D01*
X127833333Y-81645295D02*
X127833333Y-81788152D01*
X127833333Y-81788152D02*
X127785714Y-81883390D01*
X127785714Y-81883390D02*
X127738095Y-81931009D01*
X127738095Y-81931009D02*
X127642857Y-81978628D01*
X127642857Y-81978628D02*
X127261905Y-81978628D01*
X128785714Y-82454819D02*
X128214286Y-82454819D01*
X128500000Y-82454819D02*
X128500000Y-81454819D01*
X128500000Y-81454819D02*
X128404762Y-81597676D01*
X128404762Y-81597676D02*
X128309524Y-81692914D01*
X128309524Y-81692914D02*
X128214286Y-81740533D01*
X120454819Y-87166666D02*
X119978628Y-87499999D01*
X120454819Y-87738094D02*
X119454819Y-87738094D01*
X119454819Y-87738094D02*
X119454819Y-87357142D01*
X119454819Y-87357142D02*
X119502438Y-87261904D01*
X119502438Y-87261904D02*
X119550057Y-87214285D01*
X119550057Y-87214285D02*
X119645295Y-87166666D01*
X119645295Y-87166666D02*
X119788152Y-87166666D01*
X119788152Y-87166666D02*
X119883390Y-87214285D01*
X119883390Y-87214285D02*
X119931009Y-87261904D01*
X119931009Y-87261904D02*
X119978628Y-87357142D01*
X119978628Y-87357142D02*
X119978628Y-87738094D01*
X119454819Y-86309523D02*
X119454819Y-86499999D01*
X119454819Y-86499999D02*
X119502438Y-86595237D01*
X119502438Y-86595237D02*
X119550057Y-86642856D01*
X119550057Y-86642856D02*
X119692914Y-86738094D01*
X119692914Y-86738094D02*
X119883390Y-86785713D01*
X119883390Y-86785713D02*
X120264342Y-86785713D01*
X120264342Y-86785713D02*
X120359580Y-86738094D01*
X120359580Y-86738094D02*
X120407200Y-86690475D01*
X120407200Y-86690475D02*
X120454819Y-86595237D01*
X120454819Y-86595237D02*
X120454819Y-86404761D01*
X120454819Y-86404761D02*
X120407200Y-86309523D01*
X120407200Y-86309523D02*
X120359580Y-86261904D01*
X120359580Y-86261904D02*
X120264342Y-86214285D01*
X120264342Y-86214285D02*
X120026247Y-86214285D01*
X120026247Y-86214285D02*
X119931009Y-86261904D01*
X119931009Y-86261904D02*
X119883390Y-86309523D01*
X119883390Y-86309523D02*
X119835771Y-86404761D01*
X119835771Y-86404761D02*
X119835771Y-86595237D01*
X119835771Y-86595237D02*
X119883390Y-86690475D01*
X119883390Y-86690475D02*
X119931009Y-86738094D01*
X119931009Y-86738094D02*
X120026247Y-86785713D01*
X147833333Y-108454819D02*
X147500000Y-107978628D01*
X147261905Y-108454819D02*
X147261905Y-107454819D01*
X147261905Y-107454819D02*
X147642857Y-107454819D01*
X147642857Y-107454819D02*
X147738095Y-107502438D01*
X147738095Y-107502438D02*
X147785714Y-107550057D01*
X147785714Y-107550057D02*
X147833333Y-107645295D01*
X147833333Y-107645295D02*
X147833333Y-107788152D01*
X147833333Y-107788152D02*
X147785714Y-107883390D01*
X147785714Y-107883390D02*
X147738095Y-107931009D01*
X147738095Y-107931009D02*
X147642857Y-107978628D01*
X147642857Y-107978628D02*
X147261905Y-107978628D01*
X148166667Y-107454819D02*
X148833333Y-107454819D01*
X148833333Y-107454819D02*
X148404762Y-108454819D01*
X140861905Y-103454819D02*
X140861905Y-102454819D01*
X140861905Y-102454819D02*
X141100000Y-102454819D01*
X141100000Y-102454819D02*
X141242857Y-102502438D01*
X141242857Y-102502438D02*
X141338095Y-102597676D01*
X141338095Y-102597676D02*
X141385714Y-102692914D01*
X141385714Y-102692914D02*
X141433333Y-102883390D01*
X141433333Y-102883390D02*
X141433333Y-103026247D01*
X141433333Y-103026247D02*
X141385714Y-103216723D01*
X141385714Y-103216723D02*
X141338095Y-103311961D01*
X141338095Y-103311961D02*
X141242857Y-103407200D01*
X141242857Y-103407200D02*
X141100000Y-103454819D01*
X141100000Y-103454819D02*
X140861905Y-103454819D01*
X141766667Y-102454819D02*
X142433333Y-102454819D01*
X142433333Y-102454819D02*
X142004762Y-103454819D01*
X125054819Y-95166666D02*
X124578628Y-95499999D01*
X125054819Y-95738094D02*
X124054819Y-95738094D01*
X124054819Y-95738094D02*
X124054819Y-95357142D01*
X124054819Y-95357142D02*
X124102438Y-95261904D01*
X124102438Y-95261904D02*
X124150057Y-95214285D01*
X124150057Y-95214285D02*
X124245295Y-95166666D01*
X124245295Y-95166666D02*
X124388152Y-95166666D01*
X124388152Y-95166666D02*
X124483390Y-95214285D01*
X124483390Y-95214285D02*
X124531009Y-95261904D01*
X124531009Y-95261904D02*
X124578628Y-95357142D01*
X124578628Y-95357142D02*
X124578628Y-95738094D01*
X124388152Y-94309523D02*
X125054819Y-94309523D01*
X124007200Y-94547618D02*
X124721485Y-94785713D01*
X124721485Y-94785713D02*
X124721485Y-94166666D01*
X133661905Y-103454819D02*
X133661905Y-102454819D01*
X133661905Y-102454819D02*
X133900000Y-102454819D01*
X133900000Y-102454819D02*
X134042857Y-102502438D01*
X134042857Y-102502438D02*
X134138095Y-102597676D01*
X134138095Y-102597676D02*
X134185714Y-102692914D01*
X134185714Y-102692914D02*
X134233333Y-102883390D01*
X134233333Y-102883390D02*
X134233333Y-103026247D01*
X134233333Y-103026247D02*
X134185714Y-103216723D01*
X134185714Y-103216723D02*
X134138095Y-103311961D01*
X134138095Y-103311961D02*
X134042857Y-103407200D01*
X134042857Y-103407200D02*
X133900000Y-103454819D01*
X133900000Y-103454819D02*
X133661905Y-103454819D01*
X135138095Y-102454819D02*
X134661905Y-102454819D01*
X134661905Y-102454819D02*
X134614286Y-102931009D01*
X134614286Y-102931009D02*
X134661905Y-102883390D01*
X134661905Y-102883390D02*
X134757143Y-102835771D01*
X134757143Y-102835771D02*
X134995238Y-102835771D01*
X134995238Y-102835771D02*
X135090476Y-102883390D01*
X135090476Y-102883390D02*
X135138095Y-102931009D01*
X135138095Y-102931009D02*
X135185714Y-103026247D01*
X135185714Y-103026247D02*
X135185714Y-103264342D01*
X135185714Y-103264342D02*
X135138095Y-103359580D01*
X135138095Y-103359580D02*
X135090476Y-103407200D01*
X135090476Y-103407200D02*
X134995238Y-103454819D01*
X134995238Y-103454819D02*
X134757143Y-103454819D01*
X134757143Y-103454819D02*
X134661905Y-103407200D01*
X134661905Y-103407200D02*
X134614286Y-103359580D01*
X147833333Y-82454819D02*
X147500000Y-81978628D01*
X147261905Y-82454819D02*
X147261905Y-81454819D01*
X147261905Y-81454819D02*
X147642857Y-81454819D01*
X147642857Y-81454819D02*
X147738095Y-81502438D01*
X147738095Y-81502438D02*
X147785714Y-81550057D01*
X147785714Y-81550057D02*
X147833333Y-81645295D01*
X147833333Y-81645295D02*
X147833333Y-81788152D01*
X147833333Y-81788152D02*
X147785714Y-81883390D01*
X147785714Y-81883390D02*
X147738095Y-81931009D01*
X147738095Y-81931009D02*
X147642857Y-81978628D01*
X147642857Y-81978628D02*
X147261905Y-81978628D01*
X148214286Y-81550057D02*
X148261905Y-81502438D01*
X148261905Y-81502438D02*
X148357143Y-81454819D01*
X148357143Y-81454819D02*
X148595238Y-81454819D01*
X148595238Y-81454819D02*
X148690476Y-81502438D01*
X148690476Y-81502438D02*
X148738095Y-81550057D01*
X148738095Y-81550057D02*
X148785714Y-81645295D01*
X148785714Y-81645295D02*
X148785714Y-81740533D01*
X148785714Y-81740533D02*
X148738095Y-81883390D01*
X148738095Y-81883390D02*
X148166667Y-82454819D01*
X148166667Y-82454819D02*
X148785714Y-82454819D01*
X120454819Y-103166666D02*
X119978628Y-103499999D01*
X120454819Y-103738094D02*
X119454819Y-103738094D01*
X119454819Y-103738094D02*
X119454819Y-103357142D01*
X119454819Y-103357142D02*
X119502438Y-103261904D01*
X119502438Y-103261904D02*
X119550057Y-103214285D01*
X119550057Y-103214285D02*
X119645295Y-103166666D01*
X119645295Y-103166666D02*
X119788152Y-103166666D01*
X119788152Y-103166666D02*
X119883390Y-103214285D01*
X119883390Y-103214285D02*
X119931009Y-103261904D01*
X119931009Y-103261904D02*
X119978628Y-103357142D01*
X119978628Y-103357142D02*
X119978628Y-103738094D01*
X119454819Y-102833332D02*
X119454819Y-102214285D01*
X119454819Y-102214285D02*
X119835771Y-102547618D01*
X119835771Y-102547618D02*
X119835771Y-102404761D01*
X119835771Y-102404761D02*
X119883390Y-102309523D01*
X119883390Y-102309523D02*
X119931009Y-102261904D01*
X119931009Y-102261904D02*
X120026247Y-102214285D01*
X120026247Y-102214285D02*
X120264342Y-102214285D01*
X120264342Y-102214285D02*
X120359580Y-102261904D01*
X120359580Y-102261904D02*
X120407200Y-102309523D01*
X120407200Y-102309523D02*
X120454819Y-102404761D01*
X120454819Y-102404761D02*
X120454819Y-102690475D01*
X120454819Y-102690475D02*
X120407200Y-102785713D01*
X120407200Y-102785713D02*
X120359580Y-102833332D01*
X112554819Y-93161904D02*
X113364342Y-93161904D01*
X113364342Y-93161904D02*
X113459580Y-93114285D01*
X113459580Y-93114285D02*
X113507200Y-93066666D01*
X113507200Y-93066666D02*
X113554819Y-92971428D01*
X113554819Y-92971428D02*
X113554819Y-92780952D01*
X113554819Y-92780952D02*
X113507200Y-92685714D01*
X113507200Y-92685714D02*
X113459580Y-92638095D01*
X113459580Y-92638095D02*
X113364342Y-92590476D01*
X113364342Y-92590476D02*
X112554819Y-92590476D01*
X113554819Y-91590476D02*
X113554819Y-92161904D01*
X113554819Y-91876190D02*
X112554819Y-91876190D01*
X112554819Y-91876190D02*
X112697676Y-91971428D01*
X112697676Y-91971428D02*
X112792914Y-92066666D01*
X112792914Y-92066666D02*
X112840533Y-92161904D01*
X117859580Y-95166666D02*
X117907200Y-95214285D01*
X117907200Y-95214285D02*
X117954819Y-95357142D01*
X117954819Y-95357142D02*
X117954819Y-95452380D01*
X117954819Y-95452380D02*
X117907200Y-95595237D01*
X117907200Y-95595237D02*
X117811961Y-95690475D01*
X117811961Y-95690475D02*
X117716723Y-95738094D01*
X117716723Y-95738094D02*
X117526247Y-95785713D01*
X117526247Y-95785713D02*
X117383390Y-95785713D01*
X117383390Y-95785713D02*
X117192914Y-95738094D01*
X117192914Y-95738094D02*
X117097676Y-95690475D01*
X117097676Y-95690475D02*
X117002438Y-95595237D01*
X117002438Y-95595237D02*
X116954819Y-95452380D01*
X116954819Y-95452380D02*
X116954819Y-95357142D01*
X116954819Y-95357142D02*
X117002438Y-95214285D01*
X117002438Y-95214285D02*
X117050057Y-95166666D01*
X117954819Y-94214285D02*
X117954819Y-94785713D01*
X117954819Y-94499999D02*
X116954819Y-94499999D01*
X116954819Y-94499999D02*
X117097676Y-94595237D01*
X117097676Y-94595237D02*
X117192914Y-94690475D01*
X117192914Y-94690475D02*
X117240533Y-94785713D01*
X145261905Y-98854819D02*
X145261905Y-97854819D01*
X145261905Y-97854819D02*
X145500000Y-97854819D01*
X145500000Y-97854819D02*
X145642857Y-97902438D01*
X145642857Y-97902438D02*
X145738095Y-97997676D01*
X145738095Y-97997676D02*
X145785714Y-98092914D01*
X145785714Y-98092914D02*
X145833333Y-98283390D01*
X145833333Y-98283390D02*
X145833333Y-98426247D01*
X145833333Y-98426247D02*
X145785714Y-98616723D01*
X145785714Y-98616723D02*
X145738095Y-98711961D01*
X145738095Y-98711961D02*
X145642857Y-98807200D01*
X145642857Y-98807200D02*
X145500000Y-98854819D01*
X145500000Y-98854819D02*
X145261905Y-98854819D01*
X146690476Y-97854819D02*
X146500000Y-97854819D01*
X146500000Y-97854819D02*
X146404762Y-97902438D01*
X146404762Y-97902438D02*
X146357143Y-97950057D01*
X146357143Y-97950057D02*
X146261905Y-98092914D01*
X146261905Y-98092914D02*
X146214286Y-98283390D01*
X146214286Y-98283390D02*
X146214286Y-98664342D01*
X146214286Y-98664342D02*
X146261905Y-98759580D01*
X146261905Y-98759580D02*
X146309524Y-98807200D01*
X146309524Y-98807200D02*
X146404762Y-98854819D01*
X146404762Y-98854819D02*
X146595238Y-98854819D01*
X146595238Y-98854819D02*
X146690476Y-98807200D01*
X146690476Y-98807200D02*
X146738095Y-98759580D01*
X146738095Y-98759580D02*
X146785714Y-98664342D01*
X146785714Y-98664342D02*
X146785714Y-98426247D01*
X146785714Y-98426247D02*
X146738095Y-98331009D01*
X146738095Y-98331009D02*
X146690476Y-98283390D01*
X146690476Y-98283390D02*
X146595238Y-98235771D01*
X146595238Y-98235771D02*
X146404762Y-98235771D01*
X146404762Y-98235771D02*
X146309524Y-98283390D01*
X146309524Y-98283390D02*
X146261905Y-98331009D01*
X146261905Y-98331009D02*
X146214286Y-98426247D01*
X127833333Y-108454819D02*
X127500000Y-107978628D01*
X127261905Y-108454819D02*
X127261905Y-107454819D01*
X127261905Y-107454819D02*
X127642857Y-107454819D01*
X127642857Y-107454819D02*
X127738095Y-107502438D01*
X127738095Y-107502438D02*
X127785714Y-107550057D01*
X127785714Y-107550057D02*
X127833333Y-107645295D01*
X127833333Y-107645295D02*
X127833333Y-107788152D01*
X127833333Y-107788152D02*
X127785714Y-107883390D01*
X127785714Y-107883390D02*
X127738095Y-107931009D01*
X127738095Y-107931009D02*
X127642857Y-107978628D01*
X127642857Y-107978628D02*
X127261905Y-107978628D01*
X128738095Y-107454819D02*
X128261905Y-107454819D01*
X128261905Y-107454819D02*
X128214286Y-107931009D01*
X128214286Y-107931009D02*
X128261905Y-107883390D01*
X128261905Y-107883390D02*
X128357143Y-107835771D01*
X128357143Y-107835771D02*
X128595238Y-107835771D01*
X128595238Y-107835771D02*
X128690476Y-107883390D01*
X128690476Y-107883390D02*
X128738095Y-107931009D01*
X128738095Y-107931009D02*
X128785714Y-108026247D01*
X128785714Y-108026247D02*
X128785714Y-108264342D01*
X128785714Y-108264342D02*
X128738095Y-108359580D01*
X128738095Y-108359580D02*
X128690476Y-108407200D01*
X128690476Y-108407200D02*
X128595238Y-108454819D01*
X128595238Y-108454819D02*
X128357143Y-108454819D01*
X128357143Y-108454819D02*
X128261905Y-108407200D01*
X128261905Y-108407200D02*
X128214286Y-108359580D01*
D11*
%TO.C,D3*%
X128455000Y-97540000D02*
X131545000Y-97540000D01*
X130000462Y-91990001D02*
G75*
G03*
X128455170Y-97539999I-462J-2989999D01*
G01*
X131544830Y-97540000D02*
G75*
G03*
X129999538Y-91990000I-1544830J2560000D01*
G01*
X132500000Y-94980000D02*
G75*
G03*
X132500000Y-94980000I-2500000J0D01*
G01*
%TO.C,D1*%
X128455000Y-89540000D02*
X131545000Y-89540000D01*
X130000462Y-83990001D02*
G75*
G03*
X128455170Y-89539999I-462J-2989999D01*
G01*
X131544830Y-89540000D02*
G75*
G03*
X129999538Y-83990000I-1544830J2560000D01*
G01*
X132500000Y-86980000D02*
G75*
G03*
X132500000Y-86980000I-2500000J0D01*
G01*
%TO.C,SW1*%
X153250000Y-98500000D02*
X154750000Y-98500000D01*
X157250000Y-97250000D02*
X157250000Y-92750000D01*
X150750000Y-92750000D02*
X150750000Y-97250000D01*
X154750000Y-91500000D02*
X153250000Y-91500000D01*
%TO.C,D4*%
X136455000Y-97540000D02*
X139545000Y-97540000D01*
X138000462Y-91990001D02*
G75*
G03*
X136455170Y-97539999I-462J-2989999D01*
G01*
X139544830Y-97540000D02*
G75*
G03*
X137999538Y-91990000I-1544830J2560000D01*
G01*
X140500000Y-94980000D02*
G75*
G03*
X140500000Y-94980000I-2500000J0D01*
G01*
%TO.C,D2*%
X144455000Y-89540000D02*
X147545000Y-89540000D01*
X146000462Y-83990001D02*
G75*
G03*
X144455170Y-89539999I-462J-2989999D01*
G01*
X147544830Y-89540000D02*
G75*
G03*
X145999538Y-83990000I-1544830J2560000D01*
G01*
X148500000Y-86980000D02*
G75*
G03*
X148500000Y-86980000I-2500000J0D01*
G01*
%TO.C,R1*%
X123960000Y-82000000D02*
X124730000Y-82000000D01*
X124730000Y-80630000D02*
X124730000Y-83370000D01*
X124730000Y-83370000D02*
X131270000Y-83370000D01*
X131270000Y-80630000D02*
X124730000Y-80630000D01*
X131270000Y-83370000D02*
X131270000Y-80630000D01*
X132040000Y-82000000D02*
X131270000Y-82000000D01*
%TO.C,R6*%
X120000000Y-82960000D02*
X120000000Y-83730000D01*
X121370000Y-83730000D02*
X118630000Y-83730000D01*
X118630000Y-83730000D02*
X118630000Y-90270000D01*
X121370000Y-90270000D02*
X121370000Y-83730000D01*
X118630000Y-90270000D02*
X121370000Y-90270000D01*
X120000000Y-91040000D02*
X120000000Y-90270000D01*
%TO.C,R7*%
X143960000Y-108000000D02*
X144730000Y-108000000D01*
X144730000Y-106630000D02*
X144730000Y-109370000D01*
X144730000Y-109370000D02*
X151270000Y-109370000D01*
X151270000Y-106630000D02*
X144730000Y-106630000D01*
X151270000Y-109370000D02*
X151270000Y-106630000D01*
X152040000Y-108000000D02*
X151270000Y-108000000D01*
%TO.C,D7*%
X144455000Y-105540000D02*
X147545000Y-105540000D01*
X146000462Y-99990001D02*
G75*
G03*
X144455170Y-105539999I-462J-2989999D01*
G01*
X147544830Y-105540000D02*
G75*
G03*
X145999538Y-99990000I-1544830J2560000D01*
G01*
X148500000Y-102980000D02*
G75*
G03*
X148500000Y-102980000I-2500000J0D01*
G01*
%TO.C,R4*%
X124600000Y-99040000D02*
X124600000Y-98270000D01*
X123230000Y-98270000D02*
X125970000Y-98270000D01*
X125970000Y-98270000D02*
X125970000Y-91730000D01*
X123230000Y-91730000D02*
X123230000Y-98270000D01*
X125970000Y-91730000D02*
X123230000Y-91730000D01*
X124600000Y-90960000D02*
X124600000Y-91730000D01*
%TO.C,D5*%
X128455000Y-105540000D02*
X131545000Y-105540000D01*
X130000462Y-99990001D02*
G75*
G03*
X128455170Y-105539999I-462J-2989999D01*
G01*
X131544830Y-105540000D02*
G75*
G03*
X129999538Y-99990000I-1544830J2560000D01*
G01*
X132500000Y-102980000D02*
G75*
G03*
X132500000Y-102980000I-2500000J0D01*
G01*
%TO.C,R2*%
X143960000Y-82000000D02*
X144730000Y-82000000D01*
X144730000Y-80630000D02*
X144730000Y-83370000D01*
X144730000Y-83370000D02*
X151270000Y-83370000D01*
X151270000Y-80630000D02*
X144730000Y-80630000D01*
X151270000Y-83370000D02*
X151270000Y-80630000D01*
X152040000Y-82000000D02*
X151270000Y-82000000D01*
%TO.C,R3*%
X120000000Y-107040000D02*
X120000000Y-106270000D01*
X118630000Y-106270000D02*
X121370000Y-106270000D01*
X121370000Y-106270000D02*
X121370000Y-99730000D01*
X118630000Y-99730000D02*
X118630000Y-106270000D01*
X121370000Y-99730000D02*
X118630000Y-99730000D01*
X120000000Y-98960000D02*
X120000000Y-99730000D01*
%TO.C,U1*%
X112060000Y-95000000D02*
X112060000Y-91550000D01*
X112060000Y-95000000D02*
X112060000Y-96950000D01*
X101940000Y-95000000D02*
X101940000Y-93050000D01*
X101940000Y-95000000D02*
X101940000Y-96950000D01*
%TO.C,C1*%
X119921000Y-94080000D02*
X121179000Y-94080000D01*
X119921000Y-95920000D02*
X121179000Y-95920000D01*
%TO.C,D6*%
X144455000Y-97540000D02*
X147545000Y-97540000D01*
X146000462Y-91990001D02*
G75*
G03*
X144455170Y-97539999I-462J-2989999D01*
G01*
X147544830Y-97540000D02*
G75*
G03*
X145999538Y-91990000I-1544830J2560000D01*
G01*
X148500000Y-94980000D02*
G75*
G03*
X148500000Y-94980000I-2500000J0D01*
G01*
%TO.C,R5*%
X123960000Y-108000000D02*
X124730000Y-108000000D01*
X124730000Y-106630000D02*
X124730000Y-109370000D01*
X124730000Y-109370000D02*
X131270000Y-109370000D01*
X131270000Y-106630000D02*
X124730000Y-106630000D01*
X131270000Y-109370000D02*
X131270000Y-106630000D01*
X132040000Y-108000000D02*
X131270000Y-108000000D01*
%TD*%
M02*
