%TF.GenerationSoftware,KiCad,Pcbnew,7.0.2*%
%TF.CreationDate,2024-01-31T21:45:49+01:00*%
%TF.ProjectId,EDice,45446963-652e-46b6-9963-61645f706362,rev?*%
%TF.SameCoordinates,Original*%
%TF.FileFunction,Legend,Bot*%
%TF.FilePolarity,Positive*%
%FSLAX46Y46*%
G04 Gerber Fmt 4.6, Leading zero omitted, Abs format (unit mm)*
G04 Created by KiCad (PCBNEW 7.0.2) date 2024-01-31 21:45:49*
%MOMM*%
%LPD*%
G01*
G04 APERTURE LIST*
%ADD10C,0.150000*%
%ADD11C,0.120000*%
%ADD12C,0.100000*%
G04 APERTURE END LIST*
D10*
X121801280Y-103578776D02*
X121834952Y-103477761D01*
X121834952Y-103477761D02*
X121935967Y-103376746D01*
X121935967Y-103376746D02*
X122070654Y-103309402D01*
X122070654Y-103309402D02*
X122205341Y-103309402D01*
X122205341Y-103309402D02*
X122306356Y-103343074D01*
X122306356Y-103343074D02*
X122474715Y-103444089D01*
X122474715Y-103444089D02*
X122575730Y-103545104D01*
X122575730Y-103545104D02*
X122676746Y-103713463D01*
X122676746Y-103713463D02*
X122710417Y-103814478D01*
X122710417Y-103814478D02*
X122710417Y-103949165D01*
X122710417Y-103949165D02*
X122643074Y-104083852D01*
X122643074Y-104083852D02*
X122575730Y-104151196D01*
X122575730Y-104151196D02*
X122441043Y-104218539D01*
X122441043Y-104218539D02*
X122373700Y-104218539D01*
X122373700Y-104218539D02*
X122137998Y-103982837D01*
X122137998Y-103982837D02*
X122272685Y-103848150D01*
X122137998Y-104588929D02*
X121430891Y-103881822D01*
X121430891Y-103881822D02*
X121733937Y-104992990D01*
X121733937Y-104992990D02*
X121026830Y-104285883D01*
X121397219Y-105329707D02*
X120690112Y-104622600D01*
X120690112Y-104622600D02*
X120521754Y-104790959D01*
X120521754Y-104790959D02*
X120454410Y-104925646D01*
X120454410Y-104925646D02*
X120454410Y-105060333D01*
X120454410Y-105060333D02*
X120488082Y-105161348D01*
X120488082Y-105161348D02*
X120589097Y-105329707D01*
X120589097Y-105329707D02*
X120690112Y-105430722D01*
X120690112Y-105430722D02*
X120858471Y-105531738D01*
X120858471Y-105531738D02*
X120959486Y-105565409D01*
X120959486Y-105565409D02*
X121094173Y-105565409D01*
X121094173Y-105565409D02*
X121228860Y-105498066D01*
X121228860Y-105498066D02*
X121397219Y-105329707D01*
X115445104Y-103981822D02*
X114737998Y-103274715D01*
X114737998Y-103274715D02*
X114468624Y-103544089D01*
X114468624Y-103544089D02*
X114434952Y-103645104D01*
X114434952Y-103645104D02*
X114434952Y-103712448D01*
X114434952Y-103712448D02*
X114468624Y-103813463D01*
X114468624Y-103813463D02*
X114569639Y-103914478D01*
X114569639Y-103914478D02*
X114670654Y-103948150D01*
X114670654Y-103948150D02*
X114737998Y-103948150D01*
X114737998Y-103948150D02*
X114839013Y-103914478D01*
X114839013Y-103914478D02*
X115108387Y-103645104D01*
X114569639Y-104453226D02*
X114232921Y-104789944D01*
X114839013Y-104587913D02*
X113896204Y-104116509D01*
X113896204Y-104116509D02*
X114367608Y-105059318D01*
X113492143Y-104520570D02*
X113054410Y-104958303D01*
X113054410Y-104958303D02*
X113559486Y-104991975D01*
X113559486Y-104991975D02*
X113458471Y-105092990D01*
X113458471Y-105092990D02*
X113424799Y-105194005D01*
X113424799Y-105194005D02*
X113424799Y-105261349D01*
X113424799Y-105261349D02*
X113458471Y-105362364D01*
X113458471Y-105362364D02*
X113626830Y-105530723D01*
X113626830Y-105530723D02*
X113727845Y-105564394D01*
X113727845Y-105564394D02*
X113795188Y-105564394D01*
X113795188Y-105564394D02*
X113896204Y-105530723D01*
X113896204Y-105530723D02*
X114098234Y-105328692D01*
X114098234Y-105328692D02*
X114131906Y-105227677D01*
X114131906Y-105227677D02*
X114131906Y-105160333D01*
X116481822Y-84254895D02*
X115774715Y-84962001D01*
X115774715Y-84962001D02*
X116044089Y-85231375D01*
X116044089Y-85231375D02*
X116145104Y-85265047D01*
X116145104Y-85265047D02*
X116212448Y-85265047D01*
X116212448Y-85265047D02*
X116313463Y-85231375D01*
X116313463Y-85231375D02*
X116414478Y-85130360D01*
X116414478Y-85130360D02*
X116448150Y-85029345D01*
X116448150Y-85029345D02*
X116448150Y-84962001D01*
X116448150Y-84962001D02*
X116414478Y-84860986D01*
X116414478Y-84860986D02*
X116145104Y-84591612D01*
X116953226Y-85130360D02*
X117289944Y-85467078D01*
X117087913Y-84860986D02*
X116616509Y-85803795D01*
X116616509Y-85803795D02*
X117559318Y-85332391D01*
X117390959Y-86578246D02*
X117256272Y-86443559D01*
X117256272Y-86443559D02*
X117222600Y-86342543D01*
X117222600Y-86342543D02*
X117222600Y-86275200D01*
X117222600Y-86275200D02*
X117256272Y-86106841D01*
X117256272Y-86106841D02*
X117357287Y-85938482D01*
X117357287Y-85938482D02*
X117626662Y-85669108D01*
X117626662Y-85669108D02*
X117727677Y-85635437D01*
X117727677Y-85635437D02*
X117795020Y-85635437D01*
X117795020Y-85635437D02*
X117896036Y-85669108D01*
X117896036Y-85669108D02*
X118030723Y-85803795D01*
X118030723Y-85803795D02*
X118064394Y-85904811D01*
X118064394Y-85904811D02*
X118064394Y-85972154D01*
X118064394Y-85972154D02*
X118030723Y-86073169D01*
X118030723Y-86073169D02*
X117862364Y-86241528D01*
X117862364Y-86241528D02*
X117761349Y-86275200D01*
X117761349Y-86275200D02*
X117694005Y-86275200D01*
X117694005Y-86275200D02*
X117592990Y-86241528D01*
X117592990Y-86241528D02*
X117458303Y-86106841D01*
X117458303Y-86106841D02*
X117424631Y-86005826D01*
X117424631Y-86005826D02*
X117424631Y-85938482D01*
X117424631Y-85938482D02*
X117458303Y-85837467D01*
X121447135Y-84860986D02*
X121581822Y-84928330D01*
X121581822Y-84928330D02*
X121649165Y-84928330D01*
X121649165Y-84928330D02*
X121750181Y-84894658D01*
X121750181Y-84894658D02*
X121851196Y-84793643D01*
X121851196Y-84793643D02*
X121884868Y-84692627D01*
X121884868Y-84692627D02*
X121884868Y-84625284D01*
X121884868Y-84625284D02*
X121851196Y-84524269D01*
X121851196Y-84524269D02*
X121581822Y-84254895D01*
X121581822Y-84254895D02*
X120874715Y-84962001D01*
X120874715Y-84962001D02*
X121110417Y-85197704D01*
X121110417Y-85197704D02*
X121211433Y-85231375D01*
X121211433Y-85231375D02*
X121278776Y-85231375D01*
X121278776Y-85231375D02*
X121379791Y-85197704D01*
X121379791Y-85197704D02*
X121447135Y-85130360D01*
X121447135Y-85130360D02*
X121480807Y-85029345D01*
X121480807Y-85029345D02*
X121480807Y-84962001D01*
X121480807Y-84962001D02*
X121447135Y-84860986D01*
X121447135Y-84860986D02*
X121211433Y-84625284D01*
X122053226Y-85130360D02*
X122389944Y-85467078D01*
X122187913Y-84860986D02*
X121716509Y-85803795D01*
X121716509Y-85803795D02*
X122659318Y-85332391D01*
X122086898Y-86174185D02*
X122490959Y-86578246D01*
X122996036Y-85669108D02*
X122288929Y-86376215D01*
X119081822Y-84254895D02*
X118374715Y-84962001D01*
X118374715Y-84962001D02*
X118644089Y-85231375D01*
X118644089Y-85231375D02*
X118745104Y-85265047D01*
X118745104Y-85265047D02*
X118812448Y-85265047D01*
X118812448Y-85265047D02*
X118913463Y-85231375D01*
X118913463Y-85231375D02*
X119014478Y-85130360D01*
X119014478Y-85130360D02*
X119048150Y-85029345D01*
X119048150Y-85029345D02*
X119048150Y-84962001D01*
X119048150Y-84962001D02*
X119014478Y-84860986D01*
X119014478Y-84860986D02*
X118745104Y-84591612D01*
X119553226Y-85130360D02*
X119889944Y-85467078D01*
X119687913Y-84860986D02*
X119216509Y-85803795D01*
X119216509Y-85803795D02*
X120159318Y-85332391D01*
X119620570Y-86207856D02*
X120091975Y-86679261D01*
X120091975Y-86679261D02*
X120496036Y-85669108D01*
X117845104Y-103981822D02*
X117137998Y-103274715D01*
X117137998Y-103274715D02*
X116868624Y-103544089D01*
X116868624Y-103544089D02*
X116834952Y-103645104D01*
X116834952Y-103645104D02*
X116834952Y-103712448D01*
X116834952Y-103712448D02*
X116868624Y-103813463D01*
X116868624Y-103813463D02*
X116969639Y-103914478D01*
X116969639Y-103914478D02*
X117070654Y-103948150D01*
X117070654Y-103948150D02*
X117137998Y-103948150D01*
X117137998Y-103948150D02*
X117239013Y-103914478D01*
X117239013Y-103914478D02*
X117508387Y-103645104D01*
X116969639Y-104453226D02*
X116632921Y-104789944D01*
X117239013Y-104587913D02*
X116296204Y-104116509D01*
X116296204Y-104116509D02*
X116767608Y-105059318D01*
X115757456Y-105126662D02*
X116228860Y-105598066D01*
X115656440Y-104688929D02*
X116329875Y-105025646D01*
X116329875Y-105025646D02*
X115892143Y-105463379D01*
X113981822Y-84254895D02*
X113274715Y-84962001D01*
X113274715Y-84962001D02*
X113544089Y-85231375D01*
X113544089Y-85231375D02*
X113645104Y-85265047D01*
X113645104Y-85265047D02*
X113712448Y-85265047D01*
X113712448Y-85265047D02*
X113813463Y-85231375D01*
X113813463Y-85231375D02*
X113914478Y-85130360D01*
X113914478Y-85130360D02*
X113948150Y-85029345D01*
X113948150Y-85029345D02*
X113948150Y-84962001D01*
X113948150Y-84962001D02*
X113914478Y-84860986D01*
X113914478Y-84860986D02*
X113645104Y-84591612D01*
X114453226Y-85130360D02*
X114789944Y-85467078D01*
X114587913Y-84860986D02*
X114116509Y-85803795D01*
X114116509Y-85803795D02*
X115059318Y-85332391D01*
X114924631Y-86611917D02*
X114587913Y-86275200D01*
X114587913Y-86275200D02*
X114890959Y-85904811D01*
X114890959Y-85904811D02*
X114890959Y-85972154D01*
X114890959Y-85972154D02*
X114924631Y-86073169D01*
X114924631Y-86073169D02*
X115092990Y-86241528D01*
X115092990Y-86241528D02*
X115194005Y-86275200D01*
X115194005Y-86275200D02*
X115261349Y-86275200D01*
X115261349Y-86275200D02*
X115362364Y-86241528D01*
X115362364Y-86241528D02*
X115530723Y-86073169D01*
X115530723Y-86073169D02*
X115564394Y-85972154D01*
X115564394Y-85972154D02*
X115564394Y-85904811D01*
X115564394Y-85904811D02*
X115530723Y-85803795D01*
X115530723Y-85803795D02*
X115362364Y-85635437D01*
X115362364Y-85635437D02*
X115261349Y-85601765D01*
X115261349Y-85601765D02*
X115194005Y-85601765D01*
X120245104Y-103981822D02*
X119537998Y-103274715D01*
X119537998Y-103274715D02*
X119268624Y-103544089D01*
X119268624Y-103544089D02*
X119234952Y-103645104D01*
X119234952Y-103645104D02*
X119234952Y-103712448D01*
X119234952Y-103712448D02*
X119268624Y-103813463D01*
X119268624Y-103813463D02*
X119369639Y-103914478D01*
X119369639Y-103914478D02*
X119470654Y-103948150D01*
X119470654Y-103948150D02*
X119537998Y-103948150D01*
X119537998Y-103948150D02*
X119639013Y-103914478D01*
X119639013Y-103914478D02*
X119908387Y-103645104D01*
X119369639Y-104453226D02*
X119032921Y-104789944D01*
X119639013Y-104587913D02*
X118696204Y-104116509D01*
X118696204Y-104116509D02*
X119167608Y-105059318D01*
X118090112Y-104722600D02*
X118022769Y-104789944D01*
X118022769Y-104789944D02*
X117989097Y-104890959D01*
X117989097Y-104890959D02*
X117989097Y-104958303D01*
X117989097Y-104958303D02*
X118022769Y-105059318D01*
X118022769Y-105059318D02*
X118123784Y-105227677D01*
X118123784Y-105227677D02*
X118292143Y-105396036D01*
X118292143Y-105396036D02*
X118460501Y-105497051D01*
X118460501Y-105497051D02*
X118561517Y-105530723D01*
X118561517Y-105530723D02*
X118628860Y-105530723D01*
X118628860Y-105530723D02*
X118729875Y-105497051D01*
X118729875Y-105497051D02*
X118797219Y-105429707D01*
X118797219Y-105429707D02*
X118830891Y-105328692D01*
X118830891Y-105328692D02*
X118830891Y-105261349D01*
X118830891Y-105261349D02*
X118797219Y-105160333D01*
X118797219Y-105160333D02*
X118696204Y-104991975D01*
X118696204Y-104991975D02*
X118527845Y-104823616D01*
X118527845Y-104823616D02*
X118359486Y-104722600D01*
X118359486Y-104722600D02*
X118258471Y-104688929D01*
X118258471Y-104688929D02*
X118191127Y-104688929D01*
X118191127Y-104688929D02*
X118090112Y-104722600D01*
%TO.C,J2*%
X124362619Y-84266666D02*
X125076904Y-84266666D01*
X125076904Y-84266666D02*
X125219761Y-84219047D01*
X125219761Y-84219047D02*
X125315000Y-84123809D01*
X125315000Y-84123809D02*
X125362619Y-83980952D01*
X125362619Y-83980952D02*
X125362619Y-83885714D01*
X124457857Y-84695238D02*
X124410238Y-84742857D01*
X124410238Y-84742857D02*
X124362619Y-84838095D01*
X124362619Y-84838095D02*
X124362619Y-85076190D01*
X124362619Y-85076190D02*
X124410238Y-85171428D01*
X124410238Y-85171428D02*
X124457857Y-85219047D01*
X124457857Y-85219047D02*
X124553095Y-85266666D01*
X124553095Y-85266666D02*
X124648333Y-85266666D01*
X124648333Y-85266666D02*
X124791190Y-85219047D01*
X124791190Y-85219047D02*
X125362619Y-84647619D01*
X125362619Y-84647619D02*
X125362619Y-85266666D01*
%TO.C,J3*%
X124362619Y-105166666D02*
X125076904Y-105166666D01*
X125076904Y-105166666D02*
X125219761Y-105119047D01*
X125219761Y-105119047D02*
X125315000Y-105023809D01*
X125315000Y-105023809D02*
X125362619Y-104880952D01*
X125362619Y-104880952D02*
X125362619Y-104785714D01*
X124362619Y-105547619D02*
X124362619Y-106166666D01*
X124362619Y-106166666D02*
X124743571Y-105833333D01*
X124743571Y-105833333D02*
X124743571Y-105976190D01*
X124743571Y-105976190D02*
X124791190Y-106071428D01*
X124791190Y-106071428D02*
X124838809Y-106119047D01*
X124838809Y-106119047D02*
X124934047Y-106166666D01*
X124934047Y-106166666D02*
X125172142Y-106166666D01*
X125172142Y-106166666D02*
X125267380Y-106119047D01*
X125267380Y-106119047D02*
X125315000Y-106071428D01*
X125315000Y-106071428D02*
X125362619Y-105976190D01*
X125362619Y-105976190D02*
X125362619Y-105690476D01*
X125362619Y-105690476D02*
X125315000Y-105595238D01*
X125315000Y-105595238D02*
X125267380Y-105547619D01*
%TO.C,BT1*%
X119738809Y-94214285D02*
X119786428Y-94357142D01*
X119786428Y-94357142D02*
X119834047Y-94404761D01*
X119834047Y-94404761D02*
X119929285Y-94452380D01*
X119929285Y-94452380D02*
X120072142Y-94452380D01*
X120072142Y-94452380D02*
X120167380Y-94404761D01*
X120167380Y-94404761D02*
X120215000Y-94357142D01*
X120215000Y-94357142D02*
X120262619Y-94261904D01*
X120262619Y-94261904D02*
X120262619Y-93880952D01*
X120262619Y-93880952D02*
X119262619Y-93880952D01*
X119262619Y-93880952D02*
X119262619Y-94214285D01*
X119262619Y-94214285D02*
X119310238Y-94309523D01*
X119310238Y-94309523D02*
X119357857Y-94357142D01*
X119357857Y-94357142D02*
X119453095Y-94404761D01*
X119453095Y-94404761D02*
X119548333Y-94404761D01*
X119548333Y-94404761D02*
X119643571Y-94357142D01*
X119643571Y-94357142D02*
X119691190Y-94309523D01*
X119691190Y-94309523D02*
X119738809Y-94214285D01*
X119738809Y-94214285D02*
X119738809Y-93880952D01*
X119262619Y-94738095D02*
X119262619Y-95309523D01*
X120262619Y-95023809D02*
X119262619Y-95023809D01*
X120262619Y-96166666D02*
X120262619Y-95595238D01*
X120262619Y-95880952D02*
X119262619Y-95880952D01*
X119262619Y-95880952D02*
X119405476Y-95785714D01*
X119405476Y-95785714D02*
X119500714Y-95690476D01*
X119500714Y-95690476D02*
X119548333Y-95595238D01*
D11*
%TO.C,J2*%
X122150000Y-81400000D02*
X122150000Y-84060000D01*
X114470000Y-81400000D02*
X122150000Y-81400000D01*
X114470000Y-81400000D02*
X114470000Y-84060000D01*
X113200000Y-81400000D02*
X111870000Y-81400000D01*
X111870000Y-81400000D02*
X111870000Y-82730000D01*
X114470000Y-84060000D02*
X122150000Y-84060000D01*
%TO.C,J3*%
X114470000Y-108600000D02*
X122150000Y-108600000D01*
X111870000Y-105940000D02*
X111870000Y-107270000D01*
X113200000Y-105940000D02*
X111870000Y-105940000D01*
X114470000Y-105940000D02*
X114470000Y-108600000D01*
X114470000Y-105940000D02*
X122150000Y-105940000D01*
X122150000Y-105940000D02*
X122150000Y-108600000D01*
D12*
%TO.C,BT1*%
X110750000Y-105300000D02*
X110750000Y-108350000D01*
X110750000Y-108350000D02*
X103250000Y-108350000D01*
X110750000Y-108350000D02*
X103250000Y-108350000D01*
X103250000Y-108350000D02*
X103250000Y-105300000D01*
X118050000Y-94900000D02*
G75*
G03*
X118050000Y-94900000I-11050000J0D01*
G01*
%TD*%
M02*
