%TF.GenerationSoftware,KiCad,Pcbnew,7.0.2*%
%TF.CreationDate,2024-01-31T21:58:11+01:00*%
%TF.ProjectId,EDice,45446963-652e-46b6-9963-61645f706362,rev?*%
%TF.SameCoordinates,Original*%
%TF.FileFunction,Soldermask,Bot*%
%TF.FilePolarity,Negative*%
%FSLAX46Y46*%
G04 Gerber Fmt 4.6, Leading zero omitted, Abs format (unit mm)*
G04 Created by KiCad (PCBNEW 7.0.2) date 2024-01-31 21:58:11*
%MOMM*%
%LPD*%
G01*
G04 APERTURE LIST*
%ADD10R,1.800000X1.800000*%
%ADD11C,1.800000*%
%ADD12C,3.200000*%
%ADD13C,1.600000*%
%ADD14O,1.600000X1.600000*%
%ADD15R,1.700000X1.700000*%
%ADD16O,1.700000X1.700000*%
%ADD17C,3.000000*%
G04 APERTURE END LIST*
D10*
%TO.C,D3*%
X130000000Y-96250000D03*
D11*
X130000000Y-93710000D03*
%TD*%
D12*
%TO.C,H2*%
X154000000Y-84000000D03*
%TD*%
D10*
%TO.C,D1*%
X130000000Y-88250000D03*
D11*
X130000000Y-85710000D03*
%TD*%
D10*
%TO.C,D4*%
X138000000Y-96250000D03*
D11*
X138000000Y-93710000D03*
%TD*%
D10*
%TO.C,D2*%
X146000000Y-88250000D03*
D11*
X146000000Y-85710000D03*
%TD*%
D12*
%TO.C,H4*%
X97000000Y-106000000D03*
%TD*%
D13*
%TO.C,R1*%
X124920000Y-82000000D03*
D14*
X135080000Y-82000000D03*
%TD*%
D13*
%TO.C,R6*%
X156000000Y-89920000D03*
D14*
X156000000Y-100080000D03*
%TD*%
D13*
%TO.C,R7*%
X137920000Y-108000000D03*
D14*
X148080000Y-108000000D03*
%TD*%
D10*
%TO.C,D7*%
X146000000Y-104250000D03*
D11*
X146000000Y-101710000D03*
%TD*%
D12*
%TO.C,H1*%
X97000000Y-84000000D03*
%TD*%
%TO.C,H3*%
X154000000Y-106000000D03*
%TD*%
D13*
%TO.C,R4*%
X152000000Y-100080000D03*
D14*
X152000000Y-89920000D03*
%TD*%
D10*
%TO.C,D5*%
X130000000Y-104250000D03*
D11*
X130000000Y-101710000D03*
%TD*%
D13*
%TO.C,R2*%
X137920000Y-82000000D03*
D14*
X148080000Y-82000000D03*
%TD*%
D13*
%TO.C,R3*%
X124000000Y-100080000D03*
D14*
X124000000Y-89920000D03*
%TD*%
D13*
%TO.C,C1*%
X95000000Y-94000000D03*
X95000000Y-96500000D03*
%TD*%
D10*
%TO.C,D6*%
X146000000Y-96250000D03*
D11*
X146000000Y-93710000D03*
%TD*%
D13*
%TO.C,R5*%
X124920000Y-108000000D03*
D14*
X135080000Y-108000000D03*
%TD*%
D15*
%TO.C,J2*%
X113200000Y-82730000D03*
D16*
X115740000Y-82730000D03*
X118280000Y-82730000D03*
X120820000Y-82730000D03*
%TD*%
%TO.C,J3*%
X120820000Y-107270000D03*
X118280000Y-107270000D03*
X115740000Y-107270000D03*
D15*
X113200000Y-107270000D03*
%TD*%
D17*
%TO.C,BT1*%
X107000000Y-107000000D03*
X107000000Y-87000000D03*
%TD*%
M02*
