%TF.GenerationSoftware,KiCad,Pcbnew,7.0.8*%
%TF.CreationDate,2023-11-06T17:26:59+01:00*%
%TF.ProjectId,EDice,45446963-652e-46b6-9963-61645f706362,rev?*%
%TF.SameCoordinates,Original*%
%TF.FileFunction,Legend,Bot*%
%TF.FilePolarity,Positive*%
%FSLAX46Y46*%
G04 Gerber Fmt 4.6, Leading zero omitted, Abs format (unit mm)*
G04 Created by KiCad (PCBNEW 7.0.8) date 2023-11-06 17:26:59*
%MOMM*%
%LPD*%
G01*
G04 APERTURE LIST*
%ADD10C,0.100000*%
%ADD11C,0.150000*%
%ADD12C,0.120000*%
G04 APERTURE END LIST*
D10*
X107885714Y-94433609D02*
X107742857Y-94481228D01*
X107742857Y-94481228D02*
X107695238Y-94528847D01*
X107695238Y-94528847D02*
X107647619Y-94624085D01*
X107647619Y-94624085D02*
X107647619Y-94766942D01*
X107647619Y-94766942D02*
X107695238Y-94862180D01*
X107695238Y-94862180D02*
X107742857Y-94909800D01*
X107742857Y-94909800D02*
X107838095Y-94957419D01*
X107838095Y-94957419D02*
X108219047Y-94957419D01*
X108219047Y-94957419D02*
X108219047Y-93957419D01*
X108219047Y-93957419D02*
X107885714Y-93957419D01*
X107885714Y-93957419D02*
X107790476Y-94005038D01*
X107790476Y-94005038D02*
X107742857Y-94052657D01*
X107742857Y-94052657D02*
X107695238Y-94147895D01*
X107695238Y-94147895D02*
X107695238Y-94243133D01*
X107695238Y-94243133D02*
X107742857Y-94338371D01*
X107742857Y-94338371D02*
X107790476Y-94385990D01*
X107790476Y-94385990D02*
X107885714Y-94433609D01*
X107885714Y-94433609D02*
X108219047Y-94433609D01*
X107361904Y-93957419D02*
X106790476Y-93957419D01*
X107076190Y-94957419D02*
X107076190Y-93957419D01*
X105933333Y-94957419D02*
X106504761Y-94957419D01*
X106219047Y-94957419D02*
X106219047Y-93957419D01*
X106219047Y-93957419D02*
X106314285Y-94100276D01*
X106314285Y-94100276D02*
X106409523Y-94195514D01*
X106409523Y-94195514D02*
X106504761Y-94243133D01*
D11*
X105624819Y-81666666D02*
X106339104Y-81666666D01*
X106339104Y-81666666D02*
X106481961Y-81619047D01*
X106481961Y-81619047D02*
X106577200Y-81523809D01*
X106577200Y-81523809D02*
X106624819Y-81380952D01*
X106624819Y-81380952D02*
X106624819Y-81285714D01*
X105720057Y-82095238D02*
X105672438Y-82142857D01*
X105672438Y-82142857D02*
X105624819Y-82238095D01*
X105624819Y-82238095D02*
X105624819Y-82476190D01*
X105624819Y-82476190D02*
X105672438Y-82571428D01*
X105672438Y-82571428D02*
X105720057Y-82619047D01*
X105720057Y-82619047D02*
X105815295Y-82666666D01*
X105815295Y-82666666D02*
X105910533Y-82666666D01*
X105910533Y-82666666D02*
X106053390Y-82619047D01*
X106053390Y-82619047D02*
X106624819Y-82047619D01*
X106624819Y-82047619D02*
X106624819Y-82666666D01*
X105624819Y-107666666D02*
X106339104Y-107666666D01*
X106339104Y-107666666D02*
X106481961Y-107619047D01*
X106481961Y-107619047D02*
X106577200Y-107523809D01*
X106577200Y-107523809D02*
X106624819Y-107380952D01*
X106624819Y-107380952D02*
X106624819Y-107285714D01*
X105624819Y-108047619D02*
X105624819Y-108666666D01*
X105624819Y-108666666D02*
X106005771Y-108333333D01*
X106005771Y-108333333D02*
X106005771Y-108476190D01*
X106005771Y-108476190D02*
X106053390Y-108571428D01*
X106053390Y-108571428D02*
X106101009Y-108619047D01*
X106101009Y-108619047D02*
X106196247Y-108666666D01*
X106196247Y-108666666D02*
X106434342Y-108666666D01*
X106434342Y-108666666D02*
X106529580Y-108619047D01*
X106529580Y-108619047D02*
X106577200Y-108571428D01*
X106577200Y-108571428D02*
X106624819Y-108476190D01*
X106624819Y-108476190D02*
X106624819Y-108190476D01*
X106624819Y-108190476D02*
X106577200Y-108095238D01*
X106577200Y-108095238D02*
X106529580Y-108047619D01*
D10*
%TO.C,BT1*%
X96700000Y-98750000D02*
X93650000Y-98750000D01*
X93650000Y-91250000D02*
X96700000Y-91250000D01*
X93650000Y-98750000D02*
X93650000Y-91250000D01*
X93650000Y-98750000D02*
X93650000Y-91250000D01*
X118150000Y-95000000D02*
G75*
G03*
X118150000Y-95000000I-11050000J0D01*
G01*
D12*
%TO.C,J2*%
X117450000Y-80670000D02*
X117450000Y-83330000D01*
X109770000Y-80670000D02*
X117450000Y-80670000D01*
X109770000Y-80670000D02*
X109770000Y-83330000D01*
X108500000Y-80670000D02*
X107170000Y-80670000D01*
X107170000Y-80670000D02*
X107170000Y-82000000D01*
X109770000Y-83330000D02*
X117450000Y-83330000D01*
%TO.C,J3*%
X117450000Y-106670000D02*
X117450000Y-109330000D01*
X109770000Y-106670000D02*
X117450000Y-106670000D01*
X109770000Y-106670000D02*
X109770000Y-109330000D01*
X108500000Y-106670000D02*
X107170000Y-106670000D01*
X107170000Y-106670000D02*
X107170000Y-108000000D01*
X109770000Y-109330000D02*
X117450000Y-109330000D01*
%TD*%
M02*
