%TF.GenerationSoftware,KiCad,Pcbnew,7.0.2*%
%TF.CreationDate,2024-01-31T21:45:49+01:00*%
%TF.ProjectId,EDice,45446963-652e-46b6-9963-61645f706362,rev?*%
%TF.SameCoordinates,Original*%
%TF.FileFunction,Legend,Top*%
%TF.FilePolarity,Positive*%
%FSLAX46Y46*%
G04 Gerber Fmt 4.6, Leading zero omitted, Abs format (unit mm)*
G04 Created by KiCad (PCBNEW 7.0.2) date 2024-01-31 21:45:49*
%MOMM*%
%LPD*%
G01*
G04 APERTURE LIST*
%ADD10C,0.150000*%
%ADD11C,0.120000*%
G04 APERTURE END LIST*
D10*
X109309902Y-92600000D02*
G75*
G03*
X109309902Y-92600000I-509902J0D01*
G01*
%TO.C,U1*%
X108162619Y-90861904D02*
X108972142Y-90861904D01*
X108972142Y-90861904D02*
X109067380Y-90814285D01*
X109067380Y-90814285D02*
X109115000Y-90766666D01*
X109115000Y-90766666D02*
X109162619Y-90671428D01*
X109162619Y-90671428D02*
X109162619Y-90480952D01*
X109162619Y-90480952D02*
X109115000Y-90385714D01*
X109115000Y-90385714D02*
X109067380Y-90338095D01*
X109067380Y-90338095D02*
X108972142Y-90290476D01*
X108972142Y-90290476D02*
X108162619Y-90290476D01*
X109162619Y-89290476D02*
X109162619Y-89861904D01*
X109162619Y-89576190D02*
X108162619Y-89576190D01*
X108162619Y-89576190D02*
X108305476Y-89671428D01*
X108305476Y-89671428D02*
X108400714Y-89766666D01*
X108400714Y-89766666D02*
X108448333Y-89861904D01*
%TO.C,SW1*%
X118015000Y-96333332D02*
X118062619Y-96190475D01*
X118062619Y-96190475D02*
X118062619Y-95952380D01*
X118062619Y-95952380D02*
X118015000Y-95857142D01*
X118015000Y-95857142D02*
X117967380Y-95809523D01*
X117967380Y-95809523D02*
X117872142Y-95761904D01*
X117872142Y-95761904D02*
X117776904Y-95761904D01*
X117776904Y-95761904D02*
X117681666Y-95809523D01*
X117681666Y-95809523D02*
X117634047Y-95857142D01*
X117634047Y-95857142D02*
X117586428Y-95952380D01*
X117586428Y-95952380D02*
X117538809Y-96142856D01*
X117538809Y-96142856D02*
X117491190Y-96238094D01*
X117491190Y-96238094D02*
X117443571Y-96285713D01*
X117443571Y-96285713D02*
X117348333Y-96333332D01*
X117348333Y-96333332D02*
X117253095Y-96333332D01*
X117253095Y-96333332D02*
X117157857Y-96285713D01*
X117157857Y-96285713D02*
X117110238Y-96238094D01*
X117110238Y-96238094D02*
X117062619Y-96142856D01*
X117062619Y-96142856D02*
X117062619Y-95904761D01*
X117062619Y-95904761D02*
X117110238Y-95761904D01*
X117062619Y-95428570D02*
X118062619Y-95190475D01*
X118062619Y-95190475D02*
X117348333Y-94999999D01*
X117348333Y-94999999D02*
X118062619Y-94809523D01*
X118062619Y-94809523D02*
X117062619Y-94571428D01*
X118062619Y-93666666D02*
X118062619Y-94238094D01*
X118062619Y-93952380D02*
X117062619Y-93952380D01*
X117062619Y-93952380D02*
X117205476Y-94047618D01*
X117205476Y-94047618D02*
X117300714Y-94142856D01*
X117300714Y-94142856D02*
X117348333Y-94238094D01*
%TO.C,D3*%
X129261905Y-98862619D02*
X129261905Y-97862619D01*
X129261905Y-97862619D02*
X129500000Y-97862619D01*
X129500000Y-97862619D02*
X129642857Y-97910238D01*
X129642857Y-97910238D02*
X129738095Y-98005476D01*
X129738095Y-98005476D02*
X129785714Y-98100714D01*
X129785714Y-98100714D02*
X129833333Y-98291190D01*
X129833333Y-98291190D02*
X129833333Y-98434047D01*
X129833333Y-98434047D02*
X129785714Y-98624523D01*
X129785714Y-98624523D02*
X129738095Y-98719761D01*
X129738095Y-98719761D02*
X129642857Y-98815000D01*
X129642857Y-98815000D02*
X129500000Y-98862619D01*
X129500000Y-98862619D02*
X129261905Y-98862619D01*
X130166667Y-97862619D02*
X130785714Y-97862619D01*
X130785714Y-97862619D02*
X130452381Y-98243571D01*
X130452381Y-98243571D02*
X130595238Y-98243571D01*
X130595238Y-98243571D02*
X130690476Y-98291190D01*
X130690476Y-98291190D02*
X130738095Y-98338809D01*
X130738095Y-98338809D02*
X130785714Y-98434047D01*
X130785714Y-98434047D02*
X130785714Y-98672142D01*
X130785714Y-98672142D02*
X130738095Y-98767380D01*
X130738095Y-98767380D02*
X130690476Y-98815000D01*
X130690476Y-98815000D02*
X130595238Y-98862619D01*
X130595238Y-98862619D02*
X130309524Y-98862619D01*
X130309524Y-98862619D02*
X130214286Y-98815000D01*
X130214286Y-98815000D02*
X130166667Y-98767380D01*
%TO.C,D1*%
X133661905Y-87462619D02*
X133661905Y-86462619D01*
X133661905Y-86462619D02*
X133900000Y-86462619D01*
X133900000Y-86462619D02*
X134042857Y-86510238D01*
X134042857Y-86510238D02*
X134138095Y-86605476D01*
X134138095Y-86605476D02*
X134185714Y-86700714D01*
X134185714Y-86700714D02*
X134233333Y-86891190D01*
X134233333Y-86891190D02*
X134233333Y-87034047D01*
X134233333Y-87034047D02*
X134185714Y-87224523D01*
X134185714Y-87224523D02*
X134138095Y-87319761D01*
X134138095Y-87319761D02*
X134042857Y-87415000D01*
X134042857Y-87415000D02*
X133900000Y-87462619D01*
X133900000Y-87462619D02*
X133661905Y-87462619D01*
X135185714Y-87462619D02*
X134614286Y-87462619D01*
X134900000Y-87462619D02*
X134900000Y-86462619D01*
X134900000Y-86462619D02*
X134804762Y-86605476D01*
X134804762Y-86605476D02*
X134709524Y-86700714D01*
X134709524Y-86700714D02*
X134614286Y-86748333D01*
%TO.C,D4*%
X137261905Y-98862619D02*
X137261905Y-97862619D01*
X137261905Y-97862619D02*
X137500000Y-97862619D01*
X137500000Y-97862619D02*
X137642857Y-97910238D01*
X137642857Y-97910238D02*
X137738095Y-98005476D01*
X137738095Y-98005476D02*
X137785714Y-98100714D01*
X137785714Y-98100714D02*
X137833333Y-98291190D01*
X137833333Y-98291190D02*
X137833333Y-98434047D01*
X137833333Y-98434047D02*
X137785714Y-98624523D01*
X137785714Y-98624523D02*
X137738095Y-98719761D01*
X137738095Y-98719761D02*
X137642857Y-98815000D01*
X137642857Y-98815000D02*
X137500000Y-98862619D01*
X137500000Y-98862619D02*
X137261905Y-98862619D01*
X138690476Y-98195952D02*
X138690476Y-98862619D01*
X138452381Y-97815000D02*
X138214286Y-98529285D01*
X138214286Y-98529285D02*
X138833333Y-98529285D01*
%TO.C,D2*%
X140861905Y-87462619D02*
X140861905Y-86462619D01*
X140861905Y-86462619D02*
X141100000Y-86462619D01*
X141100000Y-86462619D02*
X141242857Y-86510238D01*
X141242857Y-86510238D02*
X141338095Y-86605476D01*
X141338095Y-86605476D02*
X141385714Y-86700714D01*
X141385714Y-86700714D02*
X141433333Y-86891190D01*
X141433333Y-86891190D02*
X141433333Y-87034047D01*
X141433333Y-87034047D02*
X141385714Y-87224523D01*
X141385714Y-87224523D02*
X141338095Y-87319761D01*
X141338095Y-87319761D02*
X141242857Y-87415000D01*
X141242857Y-87415000D02*
X141100000Y-87462619D01*
X141100000Y-87462619D02*
X140861905Y-87462619D01*
X141814286Y-86557857D02*
X141861905Y-86510238D01*
X141861905Y-86510238D02*
X141957143Y-86462619D01*
X141957143Y-86462619D02*
X142195238Y-86462619D01*
X142195238Y-86462619D02*
X142290476Y-86510238D01*
X142290476Y-86510238D02*
X142338095Y-86557857D01*
X142338095Y-86557857D02*
X142385714Y-86653095D01*
X142385714Y-86653095D02*
X142385714Y-86748333D01*
X142385714Y-86748333D02*
X142338095Y-86891190D01*
X142338095Y-86891190D02*
X141766667Y-87462619D01*
X141766667Y-87462619D02*
X142385714Y-87462619D01*
%TO.C,R1*%
X129833333Y-82462619D02*
X129500000Y-81986428D01*
X129261905Y-82462619D02*
X129261905Y-81462619D01*
X129261905Y-81462619D02*
X129642857Y-81462619D01*
X129642857Y-81462619D02*
X129738095Y-81510238D01*
X129738095Y-81510238D02*
X129785714Y-81557857D01*
X129785714Y-81557857D02*
X129833333Y-81653095D01*
X129833333Y-81653095D02*
X129833333Y-81795952D01*
X129833333Y-81795952D02*
X129785714Y-81891190D01*
X129785714Y-81891190D02*
X129738095Y-81938809D01*
X129738095Y-81938809D02*
X129642857Y-81986428D01*
X129642857Y-81986428D02*
X129261905Y-81986428D01*
X130785714Y-82462619D02*
X130214286Y-82462619D01*
X130500000Y-82462619D02*
X130500000Y-81462619D01*
X130500000Y-81462619D02*
X130404762Y-81605476D01*
X130404762Y-81605476D02*
X130309524Y-81700714D01*
X130309524Y-81700714D02*
X130214286Y-81748333D01*
%TO.C,R6*%
X156462619Y-95166666D02*
X155986428Y-95499999D01*
X156462619Y-95738094D02*
X155462619Y-95738094D01*
X155462619Y-95738094D02*
X155462619Y-95357142D01*
X155462619Y-95357142D02*
X155510238Y-95261904D01*
X155510238Y-95261904D02*
X155557857Y-95214285D01*
X155557857Y-95214285D02*
X155653095Y-95166666D01*
X155653095Y-95166666D02*
X155795952Y-95166666D01*
X155795952Y-95166666D02*
X155891190Y-95214285D01*
X155891190Y-95214285D02*
X155938809Y-95261904D01*
X155938809Y-95261904D02*
X155986428Y-95357142D01*
X155986428Y-95357142D02*
X155986428Y-95738094D01*
X155462619Y-94309523D02*
X155462619Y-94499999D01*
X155462619Y-94499999D02*
X155510238Y-94595237D01*
X155510238Y-94595237D02*
X155557857Y-94642856D01*
X155557857Y-94642856D02*
X155700714Y-94738094D01*
X155700714Y-94738094D02*
X155891190Y-94785713D01*
X155891190Y-94785713D02*
X156272142Y-94785713D01*
X156272142Y-94785713D02*
X156367380Y-94738094D01*
X156367380Y-94738094D02*
X156415000Y-94690475D01*
X156415000Y-94690475D02*
X156462619Y-94595237D01*
X156462619Y-94595237D02*
X156462619Y-94404761D01*
X156462619Y-94404761D02*
X156415000Y-94309523D01*
X156415000Y-94309523D02*
X156367380Y-94261904D01*
X156367380Y-94261904D02*
X156272142Y-94214285D01*
X156272142Y-94214285D02*
X156034047Y-94214285D01*
X156034047Y-94214285D02*
X155938809Y-94261904D01*
X155938809Y-94261904D02*
X155891190Y-94309523D01*
X155891190Y-94309523D02*
X155843571Y-94404761D01*
X155843571Y-94404761D02*
X155843571Y-94595237D01*
X155843571Y-94595237D02*
X155891190Y-94690475D01*
X155891190Y-94690475D02*
X155938809Y-94738094D01*
X155938809Y-94738094D02*
X156034047Y-94785713D01*
%TO.C,R7*%
X142833333Y-108462619D02*
X142500000Y-107986428D01*
X142261905Y-108462619D02*
X142261905Y-107462619D01*
X142261905Y-107462619D02*
X142642857Y-107462619D01*
X142642857Y-107462619D02*
X142738095Y-107510238D01*
X142738095Y-107510238D02*
X142785714Y-107557857D01*
X142785714Y-107557857D02*
X142833333Y-107653095D01*
X142833333Y-107653095D02*
X142833333Y-107795952D01*
X142833333Y-107795952D02*
X142785714Y-107891190D01*
X142785714Y-107891190D02*
X142738095Y-107938809D01*
X142738095Y-107938809D02*
X142642857Y-107986428D01*
X142642857Y-107986428D02*
X142261905Y-107986428D01*
X143166667Y-107462619D02*
X143833333Y-107462619D01*
X143833333Y-107462619D02*
X143404762Y-108462619D01*
%TO.C,D7*%
X140861905Y-103462619D02*
X140861905Y-102462619D01*
X140861905Y-102462619D02*
X141100000Y-102462619D01*
X141100000Y-102462619D02*
X141242857Y-102510238D01*
X141242857Y-102510238D02*
X141338095Y-102605476D01*
X141338095Y-102605476D02*
X141385714Y-102700714D01*
X141385714Y-102700714D02*
X141433333Y-102891190D01*
X141433333Y-102891190D02*
X141433333Y-103034047D01*
X141433333Y-103034047D02*
X141385714Y-103224523D01*
X141385714Y-103224523D02*
X141338095Y-103319761D01*
X141338095Y-103319761D02*
X141242857Y-103415000D01*
X141242857Y-103415000D02*
X141100000Y-103462619D01*
X141100000Y-103462619D02*
X140861905Y-103462619D01*
X141766667Y-102462619D02*
X142433333Y-102462619D01*
X142433333Y-102462619D02*
X142004762Y-103462619D01*
%TO.C,R4*%
X152462619Y-95166666D02*
X151986428Y-95499999D01*
X152462619Y-95738094D02*
X151462619Y-95738094D01*
X151462619Y-95738094D02*
X151462619Y-95357142D01*
X151462619Y-95357142D02*
X151510238Y-95261904D01*
X151510238Y-95261904D02*
X151557857Y-95214285D01*
X151557857Y-95214285D02*
X151653095Y-95166666D01*
X151653095Y-95166666D02*
X151795952Y-95166666D01*
X151795952Y-95166666D02*
X151891190Y-95214285D01*
X151891190Y-95214285D02*
X151938809Y-95261904D01*
X151938809Y-95261904D02*
X151986428Y-95357142D01*
X151986428Y-95357142D02*
X151986428Y-95738094D01*
X151795952Y-94309523D02*
X152462619Y-94309523D01*
X151415000Y-94547618D02*
X152129285Y-94785713D01*
X152129285Y-94785713D02*
X152129285Y-94166666D01*
%TO.C,D5*%
X133661905Y-103462619D02*
X133661905Y-102462619D01*
X133661905Y-102462619D02*
X133900000Y-102462619D01*
X133900000Y-102462619D02*
X134042857Y-102510238D01*
X134042857Y-102510238D02*
X134138095Y-102605476D01*
X134138095Y-102605476D02*
X134185714Y-102700714D01*
X134185714Y-102700714D02*
X134233333Y-102891190D01*
X134233333Y-102891190D02*
X134233333Y-103034047D01*
X134233333Y-103034047D02*
X134185714Y-103224523D01*
X134185714Y-103224523D02*
X134138095Y-103319761D01*
X134138095Y-103319761D02*
X134042857Y-103415000D01*
X134042857Y-103415000D02*
X133900000Y-103462619D01*
X133900000Y-103462619D02*
X133661905Y-103462619D01*
X135138095Y-102462619D02*
X134661905Y-102462619D01*
X134661905Y-102462619D02*
X134614286Y-102938809D01*
X134614286Y-102938809D02*
X134661905Y-102891190D01*
X134661905Y-102891190D02*
X134757143Y-102843571D01*
X134757143Y-102843571D02*
X134995238Y-102843571D01*
X134995238Y-102843571D02*
X135090476Y-102891190D01*
X135090476Y-102891190D02*
X135138095Y-102938809D01*
X135138095Y-102938809D02*
X135185714Y-103034047D01*
X135185714Y-103034047D02*
X135185714Y-103272142D01*
X135185714Y-103272142D02*
X135138095Y-103367380D01*
X135138095Y-103367380D02*
X135090476Y-103415000D01*
X135090476Y-103415000D02*
X134995238Y-103462619D01*
X134995238Y-103462619D02*
X134757143Y-103462619D01*
X134757143Y-103462619D02*
X134661905Y-103415000D01*
X134661905Y-103415000D02*
X134614286Y-103367380D01*
%TO.C,R2*%
X142833333Y-82462619D02*
X142500000Y-81986428D01*
X142261905Y-82462619D02*
X142261905Y-81462619D01*
X142261905Y-81462619D02*
X142642857Y-81462619D01*
X142642857Y-81462619D02*
X142738095Y-81510238D01*
X142738095Y-81510238D02*
X142785714Y-81557857D01*
X142785714Y-81557857D02*
X142833333Y-81653095D01*
X142833333Y-81653095D02*
X142833333Y-81795952D01*
X142833333Y-81795952D02*
X142785714Y-81891190D01*
X142785714Y-81891190D02*
X142738095Y-81938809D01*
X142738095Y-81938809D02*
X142642857Y-81986428D01*
X142642857Y-81986428D02*
X142261905Y-81986428D01*
X143214286Y-81557857D02*
X143261905Y-81510238D01*
X143261905Y-81510238D02*
X143357143Y-81462619D01*
X143357143Y-81462619D02*
X143595238Y-81462619D01*
X143595238Y-81462619D02*
X143690476Y-81510238D01*
X143690476Y-81510238D02*
X143738095Y-81557857D01*
X143738095Y-81557857D02*
X143785714Y-81653095D01*
X143785714Y-81653095D02*
X143785714Y-81748333D01*
X143785714Y-81748333D02*
X143738095Y-81891190D01*
X143738095Y-81891190D02*
X143166667Y-82462619D01*
X143166667Y-82462619D02*
X143785714Y-82462619D01*
%TO.C,R3*%
X124462619Y-95166666D02*
X123986428Y-95499999D01*
X124462619Y-95738094D02*
X123462619Y-95738094D01*
X123462619Y-95738094D02*
X123462619Y-95357142D01*
X123462619Y-95357142D02*
X123510238Y-95261904D01*
X123510238Y-95261904D02*
X123557857Y-95214285D01*
X123557857Y-95214285D02*
X123653095Y-95166666D01*
X123653095Y-95166666D02*
X123795952Y-95166666D01*
X123795952Y-95166666D02*
X123891190Y-95214285D01*
X123891190Y-95214285D02*
X123938809Y-95261904D01*
X123938809Y-95261904D02*
X123986428Y-95357142D01*
X123986428Y-95357142D02*
X123986428Y-95738094D01*
X123462619Y-94833332D02*
X123462619Y-94214285D01*
X123462619Y-94214285D02*
X123843571Y-94547618D01*
X123843571Y-94547618D02*
X123843571Y-94404761D01*
X123843571Y-94404761D02*
X123891190Y-94309523D01*
X123891190Y-94309523D02*
X123938809Y-94261904D01*
X123938809Y-94261904D02*
X124034047Y-94214285D01*
X124034047Y-94214285D02*
X124272142Y-94214285D01*
X124272142Y-94214285D02*
X124367380Y-94261904D01*
X124367380Y-94261904D02*
X124415000Y-94309523D01*
X124415000Y-94309523D02*
X124462619Y-94404761D01*
X124462619Y-94404761D02*
X124462619Y-94690475D01*
X124462619Y-94690475D02*
X124415000Y-94785713D01*
X124415000Y-94785713D02*
X124367380Y-94833332D01*
%TO.C,C1*%
X94833333Y-92567380D02*
X94785714Y-92615000D01*
X94785714Y-92615000D02*
X94642857Y-92662619D01*
X94642857Y-92662619D02*
X94547619Y-92662619D01*
X94547619Y-92662619D02*
X94404762Y-92615000D01*
X94404762Y-92615000D02*
X94309524Y-92519761D01*
X94309524Y-92519761D02*
X94261905Y-92424523D01*
X94261905Y-92424523D02*
X94214286Y-92234047D01*
X94214286Y-92234047D02*
X94214286Y-92091190D01*
X94214286Y-92091190D02*
X94261905Y-91900714D01*
X94261905Y-91900714D02*
X94309524Y-91805476D01*
X94309524Y-91805476D02*
X94404762Y-91710238D01*
X94404762Y-91710238D02*
X94547619Y-91662619D01*
X94547619Y-91662619D02*
X94642857Y-91662619D01*
X94642857Y-91662619D02*
X94785714Y-91710238D01*
X94785714Y-91710238D02*
X94833333Y-91757857D01*
X95785714Y-92662619D02*
X95214286Y-92662619D01*
X95500000Y-92662619D02*
X95500000Y-91662619D01*
X95500000Y-91662619D02*
X95404762Y-91805476D01*
X95404762Y-91805476D02*
X95309524Y-91900714D01*
X95309524Y-91900714D02*
X95214286Y-91948333D01*
%TO.C,D6*%
X145261905Y-98862619D02*
X145261905Y-97862619D01*
X145261905Y-97862619D02*
X145500000Y-97862619D01*
X145500000Y-97862619D02*
X145642857Y-97910238D01*
X145642857Y-97910238D02*
X145738095Y-98005476D01*
X145738095Y-98005476D02*
X145785714Y-98100714D01*
X145785714Y-98100714D02*
X145833333Y-98291190D01*
X145833333Y-98291190D02*
X145833333Y-98434047D01*
X145833333Y-98434047D02*
X145785714Y-98624523D01*
X145785714Y-98624523D02*
X145738095Y-98719761D01*
X145738095Y-98719761D02*
X145642857Y-98815000D01*
X145642857Y-98815000D02*
X145500000Y-98862619D01*
X145500000Y-98862619D02*
X145261905Y-98862619D01*
X146690476Y-97862619D02*
X146500000Y-97862619D01*
X146500000Y-97862619D02*
X146404762Y-97910238D01*
X146404762Y-97910238D02*
X146357143Y-97957857D01*
X146357143Y-97957857D02*
X146261905Y-98100714D01*
X146261905Y-98100714D02*
X146214286Y-98291190D01*
X146214286Y-98291190D02*
X146214286Y-98672142D01*
X146214286Y-98672142D02*
X146261905Y-98767380D01*
X146261905Y-98767380D02*
X146309524Y-98815000D01*
X146309524Y-98815000D02*
X146404762Y-98862619D01*
X146404762Y-98862619D02*
X146595238Y-98862619D01*
X146595238Y-98862619D02*
X146690476Y-98815000D01*
X146690476Y-98815000D02*
X146738095Y-98767380D01*
X146738095Y-98767380D02*
X146785714Y-98672142D01*
X146785714Y-98672142D02*
X146785714Y-98434047D01*
X146785714Y-98434047D02*
X146738095Y-98338809D01*
X146738095Y-98338809D02*
X146690476Y-98291190D01*
X146690476Y-98291190D02*
X146595238Y-98243571D01*
X146595238Y-98243571D02*
X146404762Y-98243571D01*
X146404762Y-98243571D02*
X146309524Y-98291190D01*
X146309524Y-98291190D02*
X146261905Y-98338809D01*
X146261905Y-98338809D02*
X146214286Y-98434047D01*
%TO.C,R5*%
X129833333Y-108462619D02*
X129500000Y-107986428D01*
X129261905Y-108462619D02*
X129261905Y-107462619D01*
X129261905Y-107462619D02*
X129642857Y-107462619D01*
X129642857Y-107462619D02*
X129738095Y-107510238D01*
X129738095Y-107510238D02*
X129785714Y-107557857D01*
X129785714Y-107557857D02*
X129833333Y-107653095D01*
X129833333Y-107653095D02*
X129833333Y-107795952D01*
X129833333Y-107795952D02*
X129785714Y-107891190D01*
X129785714Y-107891190D02*
X129738095Y-107938809D01*
X129738095Y-107938809D02*
X129642857Y-107986428D01*
X129642857Y-107986428D02*
X129261905Y-107986428D01*
X130738095Y-107462619D02*
X130261905Y-107462619D01*
X130261905Y-107462619D02*
X130214286Y-107938809D01*
X130214286Y-107938809D02*
X130261905Y-107891190D01*
X130261905Y-107891190D02*
X130357143Y-107843571D01*
X130357143Y-107843571D02*
X130595238Y-107843571D01*
X130595238Y-107843571D02*
X130690476Y-107891190D01*
X130690476Y-107891190D02*
X130738095Y-107938809D01*
X130738095Y-107938809D02*
X130785714Y-108034047D01*
X130785714Y-108034047D02*
X130785714Y-108272142D01*
X130785714Y-108272142D02*
X130738095Y-108367380D01*
X130738095Y-108367380D02*
X130690476Y-108415000D01*
X130690476Y-108415000D02*
X130595238Y-108462619D01*
X130595238Y-108462619D02*
X130357143Y-108462619D01*
X130357143Y-108462619D02*
X130261905Y-108415000D01*
X130261905Y-108415000D02*
X130214286Y-108367380D01*
D11*
%TO.C,U1*%
X108060000Y-95000000D02*
X108060000Y-91550000D01*
X108060000Y-95000000D02*
X108060000Y-96950000D01*
X97940000Y-95000000D02*
X97940000Y-93050000D01*
X97940000Y-95000000D02*
X97940000Y-96950000D01*
%TO.C,SW1*%
X109700000Y-101100000D02*
X109700000Y-100100000D01*
X110700000Y-101100000D02*
X109700000Y-101100000D01*
X111700000Y-98100000D02*
X114300000Y-98100000D01*
X109750000Y-92100000D02*
X109750000Y-97900000D01*
X116250000Y-92000000D02*
X116250000Y-98000000D01*
X111700000Y-91900000D02*
X114300000Y-91900000D01*
%TO.C,D3*%
X128455000Y-97540000D02*
X131545000Y-97540000D01*
X130000462Y-91990001D02*
G75*
G03*
X128455170Y-97539999I-462J-2989999D01*
G01*
X131544830Y-97540000D02*
G75*
G03*
X129999538Y-91990000I-1544830J2560000D01*
G01*
X132500000Y-94980000D02*
G75*
G03*
X132500000Y-94980000I-2500000J0D01*
G01*
%TO.C,D1*%
X128455000Y-89540000D02*
X131545000Y-89540000D01*
X130000462Y-83990001D02*
G75*
G03*
X128455170Y-89539999I-462J-2989999D01*
G01*
X131544830Y-89540000D02*
G75*
G03*
X129999538Y-83990000I-1544830J2560000D01*
G01*
X132500000Y-86980000D02*
G75*
G03*
X132500000Y-86980000I-2500000J0D01*
G01*
%TO.C,D4*%
X136455000Y-97540000D02*
X139545000Y-97540000D01*
X138000462Y-91990001D02*
G75*
G03*
X136455170Y-97539999I-462J-2989999D01*
G01*
X139544830Y-97540000D02*
G75*
G03*
X137999538Y-91990000I-1544830J2560000D01*
G01*
X140500000Y-94980000D02*
G75*
G03*
X140500000Y-94980000I-2500000J0D01*
G01*
%TO.C,D2*%
X144455000Y-89540000D02*
X147545000Y-89540000D01*
X146000462Y-83990001D02*
G75*
G03*
X144455170Y-89539999I-462J-2989999D01*
G01*
X147544830Y-89540000D02*
G75*
G03*
X145999538Y-83990000I-1544830J2560000D01*
G01*
X148500000Y-86980000D02*
G75*
G03*
X148500000Y-86980000I-2500000J0D01*
G01*
%TO.C,R1*%
X125960000Y-82000000D02*
X126730000Y-82000000D01*
X126730000Y-80630000D02*
X126730000Y-83370000D01*
X126730000Y-83370000D02*
X133270000Y-83370000D01*
X133270000Y-80630000D02*
X126730000Y-80630000D01*
X133270000Y-83370000D02*
X133270000Y-80630000D01*
X134040000Y-82000000D02*
X133270000Y-82000000D01*
%TO.C,R6*%
X156000000Y-90960000D02*
X156000000Y-91730000D01*
X157370000Y-91730000D02*
X154630000Y-91730000D01*
X154630000Y-91730000D02*
X154630000Y-98270000D01*
X157370000Y-98270000D02*
X157370000Y-91730000D01*
X154630000Y-98270000D02*
X157370000Y-98270000D01*
X156000000Y-99040000D02*
X156000000Y-98270000D01*
%TO.C,R7*%
X138960000Y-108000000D02*
X139730000Y-108000000D01*
X139730000Y-106630000D02*
X139730000Y-109370000D01*
X139730000Y-109370000D02*
X146270000Y-109370000D01*
X146270000Y-106630000D02*
X139730000Y-106630000D01*
X146270000Y-109370000D02*
X146270000Y-106630000D01*
X147040000Y-108000000D02*
X146270000Y-108000000D01*
%TO.C,D7*%
X144455000Y-105540000D02*
X147545000Y-105540000D01*
X146000462Y-99990001D02*
G75*
G03*
X144455170Y-105539999I-462J-2989999D01*
G01*
X147544830Y-105540000D02*
G75*
G03*
X145999538Y-99990000I-1544830J2560000D01*
G01*
X148500000Y-102980000D02*
G75*
G03*
X148500000Y-102980000I-2500000J0D01*
G01*
%TO.C,R4*%
X152000000Y-99040000D02*
X152000000Y-98270000D01*
X150630000Y-98270000D02*
X153370000Y-98270000D01*
X153370000Y-98270000D02*
X153370000Y-91730000D01*
X150630000Y-91730000D02*
X150630000Y-98270000D01*
X153370000Y-91730000D02*
X150630000Y-91730000D01*
X152000000Y-90960000D02*
X152000000Y-91730000D01*
%TO.C,D5*%
X128455000Y-105540000D02*
X131545000Y-105540000D01*
X130000462Y-99990001D02*
G75*
G03*
X128455170Y-105539999I-462J-2989999D01*
G01*
X131544830Y-105540000D02*
G75*
G03*
X129999538Y-99990000I-1544830J2560000D01*
G01*
X132500000Y-102980000D02*
G75*
G03*
X132500000Y-102980000I-2500000J0D01*
G01*
%TO.C,R2*%
X138960000Y-82000000D02*
X139730000Y-82000000D01*
X139730000Y-80630000D02*
X139730000Y-83370000D01*
X139730000Y-83370000D02*
X146270000Y-83370000D01*
X146270000Y-80630000D02*
X139730000Y-80630000D01*
X146270000Y-83370000D02*
X146270000Y-80630000D01*
X147040000Y-82000000D02*
X146270000Y-82000000D01*
%TO.C,R3*%
X124000000Y-99040000D02*
X124000000Y-98270000D01*
X122630000Y-98270000D02*
X125370000Y-98270000D01*
X125370000Y-98270000D02*
X125370000Y-91730000D01*
X122630000Y-91730000D02*
X122630000Y-98270000D01*
X125370000Y-91730000D02*
X122630000Y-91730000D01*
X124000000Y-90960000D02*
X124000000Y-91730000D01*
%TO.C,C1*%
X95920000Y-94621000D02*
X95920000Y-95879000D01*
X94080000Y-94621000D02*
X94080000Y-95879000D01*
%TO.C,D6*%
X144455000Y-97540000D02*
X147545000Y-97540000D01*
X146000462Y-91990001D02*
G75*
G03*
X144455170Y-97539999I-462J-2989999D01*
G01*
X147544830Y-97540000D02*
G75*
G03*
X145999538Y-91990000I-1544830J2560000D01*
G01*
X148500000Y-94980000D02*
G75*
G03*
X148500000Y-94980000I-2500000J0D01*
G01*
%TO.C,R5*%
X125960000Y-108000000D02*
X126730000Y-108000000D01*
X126730000Y-106630000D02*
X126730000Y-109370000D01*
X126730000Y-109370000D02*
X133270000Y-109370000D01*
X133270000Y-106630000D02*
X126730000Y-106630000D01*
X133270000Y-109370000D02*
X133270000Y-106630000D01*
X134040000Y-108000000D02*
X133270000Y-108000000D01*
%TD*%
M02*
