%TF.GenerationSoftware,KiCad,Pcbnew,7.0.2*%
%TF.CreationDate,2024-01-31T21:58:11+01:00*%
%TF.ProjectId,EDice,45446963-652e-46b6-9963-61645f706362,rev?*%
%TF.SameCoordinates,Original*%
%TF.FileFunction,Soldermask,Top*%
%TF.FilePolarity,Negative*%
%FSLAX46Y46*%
G04 Gerber Fmt 4.6, Leading zero omitted, Abs format (unit mm)*
G04 Created by KiCad (PCBNEW 7.0.2) date 2024-01-31 21:58:11*
%MOMM*%
%LPD*%
G01*
G04 APERTURE LIST*
G04 Aperture macros list*
%AMRoundRect*
0 Rectangle with rounded corners*
0 $1 Rounding radius*
0 $2 $3 $4 $5 $6 $7 $8 $9 X,Y pos of 4 corners*
0 Add a 4 corners polygon primitive as box body*
4,1,4,$2,$3,$4,$5,$6,$7,$8,$9,$2,$3,0*
0 Add four circle primitives for the rounded corners*
1,1,$1+$1,$2,$3*
1,1,$1+$1,$4,$5*
1,1,$1+$1,$6,$7*
1,1,$1+$1,$8,$9*
0 Add four rect primitives between the rounded corners*
20,1,$1+$1,$2,$3,$4,$5,0*
20,1,$1+$1,$4,$5,$6,$7,0*
20,1,$1+$1,$6,$7,$8,$9,0*
20,1,$1+$1,$8,$9,$2,$3,0*%
G04 Aperture macros list end*
%ADD10RoundRect,0.150000X-0.150000X1.350000X-0.150000X-1.350000X0.150000X-1.350000X0.150000X1.350000X0*%
%ADD11R,1.400000X2.600000*%
%ADD12R,1.800000X1.800000*%
%ADD13C,1.800000*%
%ADD14C,3.200000*%
%ADD15C,1.600000*%
%ADD16O,1.600000X1.600000*%
%ADD17R,1.700000X1.700000*%
%ADD18O,1.700000X1.700000*%
%ADD19C,3.000000*%
G04 APERTURE END LIST*
D10*
%TO.C,U1*%
X107445000Y-92525000D03*
X106175000Y-92525000D03*
X104905000Y-92525000D03*
X103635000Y-92525000D03*
X102365000Y-92525000D03*
X101095000Y-92525000D03*
X99825000Y-92525000D03*
X98555000Y-92525000D03*
X98555000Y-97475000D03*
X99825000Y-97475000D03*
X101095000Y-97475000D03*
X102365000Y-97475000D03*
X103635000Y-97475000D03*
X104905000Y-97475000D03*
X106175000Y-97475000D03*
X107445000Y-97475000D03*
%TD*%
D11*
%TO.C,SW1*%
X110750000Y-99500000D03*
X110750000Y-90500000D03*
X115250000Y-99500000D03*
X115250000Y-90500000D03*
%TD*%
D12*
%TO.C,D3*%
X130000000Y-96250000D03*
D13*
X130000000Y-93710000D03*
%TD*%
D14*
%TO.C,H2*%
X154000000Y-84000000D03*
%TD*%
D12*
%TO.C,D1*%
X130000000Y-88250000D03*
D13*
X130000000Y-85710000D03*
%TD*%
D12*
%TO.C,D4*%
X138000000Y-96250000D03*
D13*
X138000000Y-93710000D03*
%TD*%
D12*
%TO.C,D2*%
X146000000Y-88250000D03*
D13*
X146000000Y-85710000D03*
%TD*%
D14*
%TO.C,H4*%
X97000000Y-106000000D03*
%TD*%
D15*
%TO.C,R1*%
X124920000Y-82000000D03*
D16*
X135080000Y-82000000D03*
%TD*%
D15*
%TO.C,R6*%
X156000000Y-89920000D03*
D16*
X156000000Y-100080000D03*
%TD*%
D15*
%TO.C,R7*%
X137920000Y-108000000D03*
D16*
X148080000Y-108000000D03*
%TD*%
D12*
%TO.C,D7*%
X146000000Y-104250000D03*
D13*
X146000000Y-101710000D03*
%TD*%
D14*
%TO.C,H1*%
X97000000Y-84000000D03*
%TD*%
%TO.C,H3*%
X154000000Y-106000000D03*
%TD*%
D15*
%TO.C,R4*%
X152000000Y-100080000D03*
D16*
X152000000Y-89920000D03*
%TD*%
D12*
%TO.C,D5*%
X130000000Y-104250000D03*
D13*
X130000000Y-101710000D03*
%TD*%
D15*
%TO.C,R2*%
X137920000Y-82000000D03*
D16*
X148080000Y-82000000D03*
%TD*%
D15*
%TO.C,R3*%
X124000000Y-100080000D03*
D16*
X124000000Y-89920000D03*
%TD*%
D15*
%TO.C,C1*%
X95000000Y-94000000D03*
X95000000Y-96500000D03*
%TD*%
D12*
%TO.C,D6*%
X146000000Y-96250000D03*
D13*
X146000000Y-93710000D03*
%TD*%
D15*
%TO.C,R5*%
X124920000Y-108000000D03*
D16*
X135080000Y-108000000D03*
%TD*%
D17*
%TO.C,J2*%
X113200000Y-82730000D03*
D18*
X115740000Y-82730000D03*
X118280000Y-82730000D03*
X120820000Y-82730000D03*
%TD*%
%TO.C,J3*%
X120820000Y-107270000D03*
X118280000Y-107270000D03*
X115740000Y-107270000D03*
D17*
X113200000Y-107270000D03*
%TD*%
D19*
%TO.C,BT1*%
X107000000Y-107000000D03*
X107000000Y-87000000D03*
%TD*%
M02*
