%TF.GenerationSoftware,KiCad,Pcbnew,7.0.2*%
%TF.CreationDate,2024-01-31T21:45:49+01:00*%
%TF.ProjectId,EDice,45446963-652e-46b6-9963-61645f706362,rev?*%
%TF.SameCoordinates,Original*%
%TF.FileFunction,Copper,L1,Top*%
%TF.FilePolarity,Positive*%
%FSLAX46Y46*%
G04 Gerber Fmt 4.6, Leading zero omitted, Abs format (unit mm)*
G04 Created by KiCad (PCBNEW 7.0.2) date 2024-01-31 21:45:49*
%MOMM*%
%LPD*%
G01*
G04 APERTURE LIST*
G04 Aperture macros list*
%AMRoundRect*
0 Rectangle with rounded corners*
0 $1 Rounding radius*
0 $2 $3 $4 $5 $6 $7 $8 $9 X,Y pos of 4 corners*
0 Add a 4 corners polygon primitive as box body*
4,1,4,$2,$3,$4,$5,$6,$7,$8,$9,$2,$3,0*
0 Add four circle primitives for the rounded corners*
1,1,$1+$1,$2,$3*
1,1,$1+$1,$4,$5*
1,1,$1+$1,$6,$7*
1,1,$1+$1,$8,$9*
0 Add four rect primitives between the rounded corners*
20,1,$1+$1,$2,$3,$4,$5,0*
20,1,$1+$1,$4,$5,$6,$7,0*
20,1,$1+$1,$6,$7,$8,$9,0*
20,1,$1+$1,$8,$9,$2,$3,0*%
G04 Aperture macros list end*
%TA.AperFunction,SMDPad,CuDef*%
%ADD10RoundRect,0.150000X-0.150000X1.350000X-0.150000X-1.350000X0.150000X-1.350000X0.150000X1.350000X0*%
%TD*%
%TA.AperFunction,SMDPad,CuDef*%
%ADD11R,1.400000X2.600000*%
%TD*%
%TA.AperFunction,ComponentPad*%
%ADD12R,1.800000X1.800000*%
%TD*%
%TA.AperFunction,ComponentPad*%
%ADD13C,1.800000*%
%TD*%
%TA.AperFunction,ComponentPad*%
%ADD14C,1.600000*%
%TD*%
%TA.AperFunction,ComponentPad*%
%ADD15O,1.600000X1.600000*%
%TD*%
%TA.AperFunction,ComponentPad*%
%ADD16R,1.700000X1.700000*%
%TD*%
%TA.AperFunction,ComponentPad*%
%ADD17O,1.700000X1.700000*%
%TD*%
%TA.AperFunction,ComponentPad*%
%ADD18C,3.000000*%
%TD*%
%TA.AperFunction,ViaPad*%
%ADD19C,1.300000*%
%TD*%
%TA.AperFunction,Conductor*%
%ADD20C,0.400000*%
%TD*%
G04 APERTURE END LIST*
D10*
%TO.P,U1,1,PB4*%
%TO.N,/BTN*%
X107445000Y-92525000D03*
%TO.P,U1,2,PB5*%
%TO.N,/LED6*%
X106175000Y-92525000D03*
%TO.P,U1,3,PB6*%
%TO.N,/LED2*%
X104905000Y-92525000D03*
%TO.P,U1,4,PB7*%
%TO.N,/LED1*%
X103635000Y-92525000D03*
%TO.P,U1,5,VDD*%
%TO.N,+BATT*%
X102365000Y-92525000D03*
%TO.P,U1,6,PA7*%
%TO.N,/PA7*%
X101095000Y-92525000D03*
%TO.P,U1,7,PA6*%
%TO.N,/PA6*%
X99825000Y-92525000D03*
%TO.P,U1,8,PA5*%
%TO.N,/PA5*%
X98555000Y-92525000D03*
%TO.P,U1,9,PA3*%
%TO.N,/PA3*%
X98555000Y-97475000D03*
%TO.P,U1,10,PA4*%
%TO.N,/PA4*%
X99825000Y-97475000D03*
%TO.P,U1,11,PA0*%
%TO.N,/PA0*%
X101095000Y-97475000D03*
%TO.P,U1,12,GND*%
%TO.N,GND*%
X102365000Y-97475000D03*
%TO.P,U1,13,PB0*%
%TO.N,/LED5*%
X103635000Y-97475000D03*
%TO.P,U1,14,PB1*%
%TO.N,/LED3*%
X104905000Y-97475000D03*
%TO.P,U1,15,PB2*%
%TO.N,/LED7*%
X106175000Y-97475000D03*
%TO.P,U1,16,PB3*%
%TO.N,/LED4*%
X107445000Y-97475000D03*
%TD*%
D11*
%TO.P,SW1,1,1*%
%TO.N,GND*%
X110750000Y-99500000D03*
X110750000Y-90500000D03*
%TO.P,SW1,2,2*%
%TO.N,/BTN*%
X115250000Y-99500000D03*
X115250000Y-90500000D03*
%TD*%
D12*
%TO.P,D3,1,K*%
%TO.N,GND*%
X130000000Y-96250000D03*
D13*
%TO.P,D3,2,A*%
%TO.N,Net-(D3-A)*%
X130000000Y-93710000D03*
%TD*%
D12*
%TO.P,D1,1,K*%
%TO.N,GND*%
X130000000Y-88250000D03*
D13*
%TO.P,D1,2,A*%
%TO.N,Net-(D1-A)*%
X130000000Y-85710000D03*
%TD*%
D12*
%TO.P,D4,1,K*%
%TO.N,GND*%
X138000000Y-96250000D03*
D13*
%TO.P,D4,2,A*%
%TO.N,Net-(D4-A)*%
X138000000Y-93710000D03*
%TD*%
D12*
%TO.P,D2,1,K*%
%TO.N,GND*%
X146000000Y-88250000D03*
D13*
%TO.P,D2,2,A*%
%TO.N,Net-(D2-A)*%
X146000000Y-85710000D03*
%TD*%
D14*
%TO.P,R1,1*%
%TO.N,/LED1*%
X124920000Y-82000000D03*
D15*
%TO.P,R1,2*%
%TO.N,Net-(D1-A)*%
X135080000Y-82000000D03*
%TD*%
D14*
%TO.P,R6,1*%
%TO.N,/LED6*%
X156000000Y-89920000D03*
D15*
%TO.P,R6,2*%
%TO.N,Net-(D6-A)*%
X156000000Y-100080000D03*
%TD*%
D14*
%TO.P,R7,1*%
%TO.N,/LED7*%
X137920000Y-108000000D03*
D15*
%TO.P,R7,2*%
%TO.N,Net-(D7-A)*%
X148080000Y-108000000D03*
%TD*%
D12*
%TO.P,D7,1,K*%
%TO.N,GND*%
X146000000Y-104250000D03*
D13*
%TO.P,D7,2,A*%
%TO.N,Net-(D7-A)*%
X146000000Y-101710000D03*
%TD*%
D14*
%TO.P,R4,1*%
%TO.N,/LED4*%
X152000000Y-100080000D03*
D15*
%TO.P,R4,2*%
%TO.N,Net-(D4-A)*%
X152000000Y-89920000D03*
%TD*%
D12*
%TO.P,D5,1,K*%
%TO.N,GND*%
X130000000Y-104250000D03*
D13*
%TO.P,D5,2,A*%
%TO.N,Net-(D5-A)*%
X130000000Y-101710000D03*
%TD*%
D14*
%TO.P,R2,1*%
%TO.N,/LED2*%
X137920000Y-82000000D03*
D15*
%TO.P,R2,2*%
%TO.N,Net-(D2-A)*%
X148080000Y-82000000D03*
%TD*%
D14*
%TO.P,R3,1*%
%TO.N,/LED3*%
X124000000Y-100080000D03*
D15*
%TO.P,R3,2*%
%TO.N,Net-(D3-A)*%
X124000000Y-89920000D03*
%TD*%
D14*
%TO.P,C1,1*%
%TO.N,+BATT*%
X95000000Y-94000000D03*
%TO.P,C1,2*%
%TO.N,GND*%
X95000000Y-96500000D03*
%TD*%
D12*
%TO.P,D6,1,K*%
%TO.N,GND*%
X146000000Y-96250000D03*
D13*
%TO.P,D6,2,A*%
%TO.N,Net-(D6-A)*%
X146000000Y-93710000D03*
%TD*%
D14*
%TO.P,R5,1*%
%TO.N,/LED5*%
X124920000Y-108000000D03*
D15*
%TO.P,R5,2*%
%TO.N,Net-(D5-A)*%
X135080000Y-108000000D03*
%TD*%
D16*
%TO.P,J2,1,Pin_1*%
%TO.N,/PA5*%
X113200000Y-82730000D03*
D17*
%TO.P,J2,2,Pin_2*%
%TO.N,/PA6*%
X115740000Y-82730000D03*
%TO.P,J2,3,Pin_3*%
%TO.N,/PA7*%
X118280000Y-82730000D03*
%TO.P,J2,4,Pin_4*%
%TO.N,+BATT*%
X120820000Y-82730000D03*
%TD*%
%TO.P,J3,4,Pin_4*%
%TO.N,GND*%
X120820000Y-107270000D03*
%TO.P,J3,3,Pin_3*%
%TO.N,/PA0*%
X118280000Y-107270000D03*
%TO.P,J3,2,Pin_2*%
%TO.N,/PA4*%
X115740000Y-107270000D03*
D16*
%TO.P,J3,1,Pin_1*%
%TO.N,/PA3*%
X113200000Y-107270000D03*
%TD*%
D18*
%TO.P,BT1,1,+*%
%TO.N,+BATT*%
X107000000Y-107000000D03*
%TO.P,BT1,2,-*%
%TO.N,GND*%
X107000000Y-87000000D03*
%TD*%
D19*
%TO.N,GND*%
X102400000Y-99800000D03*
X110800000Y-97000000D03*
X110800000Y-92900000D03*
%TD*%
D20*
%TO.N,/PA0*%
X104598003Y-103898003D02*
X114908003Y-103898003D01*
X101095000Y-100395000D02*
X104598003Y-103898003D01*
X101095000Y-97475000D02*
X101095000Y-100395000D01*
X114908003Y-103898003D02*
X118280000Y-107270000D01*
%TO.N,/PA4*%
X112967504Y-104497504D02*
X115740000Y-107270000D01*
X103997504Y-104497504D02*
X112967504Y-104497504D01*
X99825000Y-100325000D02*
X103997504Y-104497504D01*
X99825000Y-97475000D02*
X99825000Y-100325000D01*
%TO.N,/PA3*%
X111027004Y-105097004D02*
X113200000Y-107270000D01*
X103297004Y-105097004D02*
X111027004Y-105097004D01*
X98555000Y-100355000D02*
X103297004Y-105097004D01*
X98555000Y-97475000D02*
X98555000Y-100355000D01*
%TO.N,/LED2*%
X137920000Y-84180000D02*
X137920000Y-82000000D01*
X128147822Y-90100000D02*
X132000000Y-90100000D01*
X132000000Y-90100000D02*
X137920000Y-84180000D01*
X124745823Y-86698001D02*
X128147822Y-90100000D01*
X110306713Y-86698001D02*
X121069819Y-86698003D01*
X121069821Y-86698001D02*
X124745823Y-86698001D01*
X108606217Y-84997505D02*
X110306713Y-86698001D01*
X105603201Y-84997505D02*
X108606217Y-84997505D01*
X121069819Y-86698003D02*
X121069821Y-86698001D01*
X104905000Y-85695706D02*
X105603201Y-84997505D01*
X104905000Y-92525000D02*
X104905000Y-85695706D01*
%TO.N,/PA7*%
X104857523Y-83199002D02*
X101095000Y-86961525D01*
%TO.N,/LED1*%
X124920000Y-82000000D02*
X120821497Y-86098503D01*
X120821497Y-86098503D02*
X110555034Y-86098500D01*
%TO.N,+BATT*%
X118050998Y-85499002D02*
X110803356Y-85499000D01*
%TO.N,/LED1*%
X110555034Y-86098500D02*
X108854538Y-84398004D01*
%TO.N,+BATT*%
X120820000Y-82730000D02*
X118050998Y-85499002D01*
%TO.N,/LED1*%
X108854538Y-84398004D02*
X105354880Y-84398004D01*
X105354880Y-84398004D02*
X103635000Y-86117884D01*
X103635000Y-86117884D02*
X103635000Y-92525000D01*
%TO.N,+BATT*%
X110803356Y-85499000D02*
X109102859Y-83798503D01*
X109102859Y-83798503D02*
X105105853Y-83798503D01*
X105105853Y-83798503D02*
X102365000Y-86539356D01*
X102365000Y-86539356D02*
X102365000Y-92525000D01*
%TO.N,/PA7*%
X118280000Y-82730000D02*
X116110499Y-84899501D01*
X116110499Y-84899501D02*
X111051678Y-84899500D01*
X111051678Y-84899500D02*
X109351180Y-83199002D01*
X109351180Y-83199002D02*
X104857523Y-83199002D01*
X101095000Y-86961525D02*
X101095000Y-92525000D01*
%TO.N,/PA6*%
X115740000Y-82730000D02*
X114170000Y-84300000D01*
X114170000Y-84300000D02*
X111300000Y-84300000D01*
X111300000Y-84300000D02*
X109599501Y-82599501D01*
X109599501Y-82599501D02*
X104609193Y-82599501D01*
X104609193Y-82599501D02*
X99825000Y-87383694D01*
X99825000Y-87383694D02*
X99825000Y-92525000D01*
%TO.N,/BTN*%
X107445000Y-90255000D02*
X107445000Y-92525000D01*
X113247004Y-87897004D02*
X109802996Y-87897004D01*
X115250000Y-89900000D02*
X113247004Y-87897004D01*
X115250000Y-90500000D02*
X115250000Y-89900000D01*
%TO.N,/LED6*%
X124497504Y-87297504D02*
X109554674Y-87297504D01*
X127899500Y-90699500D02*
X124497504Y-87297504D01*
X148700499Y-90699501D02*
X127899500Y-90699500D01*
X150680000Y-88720000D02*
X148700499Y-90699501D01*
X154800000Y-88720000D02*
X150680000Y-88720000D01*
X156000000Y-89920000D02*
X154800000Y-88720000D01*
X106175000Y-90677178D02*
X106175000Y-92525000D01*
%TO.N,/BTN*%
X109802996Y-87897004D02*
X107445000Y-90255000D01*
%TO.N,/LED6*%
X109554674Y-87297504D02*
X106175000Y-90677178D01*
%TO.N,/PA5*%
X104360863Y-82000000D02*
X112470000Y-82000000D01*
X98555000Y-92525000D02*
X98555000Y-87805863D01*
X98555000Y-87805863D02*
X104360863Y-82000000D01*
X112470000Y-82000000D02*
X113200000Y-82730000D01*
%TO.N,/LED7*%
X107999501Y-102099501D02*
X106175000Y-100275000D01*
X117748321Y-102099501D02*
X107999501Y-102099501D01*
X106175000Y-100275000D02*
X106175000Y-97475000D01*
X121147822Y-98700000D02*
X117748321Y-102099501D01*
X137920000Y-106472178D02*
X130147822Y-98700000D01*
X137920000Y-108000000D02*
X137920000Y-106472178D01*
X130147822Y-98700000D02*
X121147822Y-98700000D01*
%TO.N,/LED4*%
X117500499Y-101499501D02*
X108699501Y-101499501D01*
X120899500Y-98100500D02*
X117500499Y-101499501D01*
X108699501Y-101499501D02*
X107445000Y-100245000D01*
X152000000Y-100080000D02*
X150020499Y-98100499D01*
X150020499Y-98100499D02*
X120899500Y-98100500D01*
X107445000Y-100245000D02*
X107445000Y-97475000D01*
%TO.N,Net-(D5-A)*%
X135080000Y-104480000D02*
X135080000Y-108000000D01*
X132310000Y-101710000D02*
X135080000Y-104480000D01*
X130000000Y-101710000D02*
X132310000Y-101710000D01*
%TO.N,Net-(D7-A)*%
X146710000Y-101710000D02*
X148080000Y-103080000D01*
X148080000Y-103080000D02*
X148080000Y-108000000D01*
X146000000Y-101710000D02*
X146710000Y-101710000D01*
%TO.N,Net-(D4-A)*%
X140410998Y-91299002D02*
X138000000Y-93710000D01*
X150620998Y-91299002D02*
X140410998Y-91299002D01*
X152000000Y-89920000D02*
X150620998Y-91299002D01*
%TO.N,GND*%
X102365000Y-99765000D02*
X102400000Y-99800000D01*
X102365000Y-97475000D02*
X102365000Y-99765000D01*
%TO.N,/LED3*%
X107099002Y-102699002D02*
X104900000Y-100500000D01*
X104900000Y-100500000D02*
X104900000Y-97480000D01*
X104900000Y-97480000D02*
X104905000Y-97475000D01*
X124000000Y-100080000D02*
X121380998Y-102699002D01*
X121380998Y-102699002D02*
X107099002Y-102699002D01*
%TO.N,/LED5*%
X103635000Y-100435000D02*
X103635000Y-97475000D01*
X106498502Y-103298502D02*
X103635000Y-100435000D01*
X120218502Y-103298502D02*
X106498502Y-103298502D01*
X124920000Y-108000000D02*
X120218502Y-103298502D01*
%TO.N,+BATT*%
X97300000Y-94900000D02*
X97100000Y-94700000D01*
X97300000Y-100400000D02*
X97300000Y-94900000D01*
X103900000Y-107000000D02*
X97300000Y-100400000D01*
X107000000Y-107000000D02*
X103900000Y-107000000D01*
X97100000Y-94700000D02*
X97400000Y-95000000D01*
X102365000Y-94335000D02*
X102365000Y-92525000D01*
X101700000Y-95000000D02*
X102365000Y-94335000D01*
X97400000Y-95000000D02*
X101700000Y-95000000D01*
X96400000Y-94000000D02*
X97100000Y-94700000D01*
X95000000Y-94000000D02*
X96400000Y-94000000D01*
%TO.N,/BTN*%
X115250000Y-99450000D02*
X115250000Y-90500000D01*
X115200000Y-99500000D02*
X115250000Y-99450000D01*
X115250000Y-99500000D02*
X115200000Y-99500000D01*
%TO.N,GND*%
X110750000Y-97050000D02*
X110800000Y-97000000D01*
X110750000Y-99500000D02*
X110750000Y-97050000D01*
X110750000Y-92850000D02*
X110800000Y-92900000D01*
X110750000Y-90500000D02*
X110750000Y-92850000D01*
%TO.N,Net-(D3-A)*%
X127790000Y-93710000D02*
X124000000Y-89920000D01*
X130000000Y-93710000D02*
X127790000Y-93710000D01*
%TO.N,Net-(D6-A)*%
X149630000Y-93710000D02*
X156000000Y-100080000D01*
X146000000Y-93710000D02*
X149630000Y-93710000D01*
%TO.N,Net-(D2-A)*%
X146000000Y-84080000D02*
X148080000Y-82000000D01*
X146000000Y-85710000D02*
X146000000Y-84080000D01*
%TO.N,Net-(D1-A)*%
X130000000Y-85710000D02*
X131370000Y-85710000D01*
X131370000Y-85710000D02*
X135080000Y-82000000D01*
%TD*%
M02*
